<svg width="137" height="79" viewBox="0 0 137 79" fill="none" xmlns="http://www.w3.org/2000/svg">
<path d="M52.8985 77.4808H37.8154V58.4904H0V47.2047L37.5999 1.51923H52.8985V45.9025H63.9953V58.4904H52.8985V77.4808ZM37.8154 21.1607L17.1301 45.9025H37.8154V21.1607Z" fill="url(#paint0_linear_1582_504)"/>
<path d="M104.571 79C97.8918 79 92.0381 77.119 87.0104 73.3571C82.1264 69.6676 78.3915 64.8929 75.8059 59.033C73.292 53.1731 72.0351 46.6621 72.0351 39.5C72.0351 32.4103 73.2561 25.9716 75.6981 20.1841C78.2838 14.1071 82.0905 9.2239 87.1182 5.53434C92.2177 1.84478 98.0354 0 104.571 0C114.483 0 122.348 3.87042 128.166 11.6113C134.055 19.2798 137 28.576 137 39.5C137 50.424 134.055 59.7202 128.166 67.3887C122.348 75.1296 114.483 79 104.571 79ZM92.1818 57.1882C95.342 61.9629 99.4719 64.3503 104.571 64.3503C109.743 64.3503 113.837 61.9629 116.853 57.1882C119.942 52.3411 121.486 46.4451 121.486 39.5C121.486 32.4826 119.942 26.6227 116.853 21.9203C113.837 17.0733 109.743 14.6497 104.571 14.6497C99.4001 14.6497 95.2702 17.0733 92.1818 21.9203C89.0933 26.6227 87.5491 32.4826 87.5491 39.5C87.5491 46.4451 89.0933 52.3411 92.1818 57.1882Z" fill="url(#paint1_linear_1582_504)"/>
<defs>
<linearGradient id="paint0_linear_1582_504" x1="0" y1="0" x2="68.7364" y2="117.953" gradientUnits="userSpaceOnUse">
<stop stop-color="#C028F7"/>
<stop offset="0.279167" stop-color="#BA3DF5"/>
<stop offset="1" stop-color="#1A5BF3"/>
</linearGradient>
<linearGradient id="paint1_linear_1582_504" x1="0" y1="0" x2="68.7364" y2="117.953" gradientUnits="userSpaceOnUse">
<stop stop-color="#C028F7"/>
<stop offset="0.279167" stop-color="#BA3DF5"/>
<stop offset="1" stop-color="#1A5BF3"/>
</linearGradient>
</defs>
</svg>
