<svg width="222" height="78" viewBox="0 0 222 78" fill="none" xmlns="http://www.w3.org/2000/svg">
<path d="M26.9894 0C36.34 0 43.601 3.10714 48.7722 9.32143C54.0142 15.5357 56.6352 24.1429 56.6352 35.1429C56.6352 40.7857 55.9268 46.1429 54.5101 51.2143C53.0933 56.2857 51.0036 60.8571 48.2409 64.9286C45.549 68.9286 41.9717 72.1071 37.5089 74.4643C33.1169 76.8214 28.1228 78 22.5266 78C16.1511 78 10.5549 76.3929 5.73791 73.1786V59.25C10.4132 62.4643 15.4428 64.0714 20.8265 64.0714C26.9186 64.0714 31.7001 62.1429 35.1712 58.2857C38.7131 54.3571 40.6966 49.5 41.1216 43.7143C37.1547 48.3571 31.3814 50.6786 23.8017 50.6786C17.0012 50.6786 11.3341 48.5 6.80048 44.1429C2.26683 39.7857 0 33.8929 0 26.4643C0 18.6786 2.55018 12.3214 7.65054 7.39286C12.8217 2.46429 19.268 0 26.9894 0ZM27.9457 13.2857C24.1913 13.2857 21.1098 14.5 18.7013 16.9286C16.3637 19.2857 15.1948 22.3571 15.1948 26.1429C15.1948 29.7857 16.3991 32.7857 18.8076 35.1429C21.2161 37.5 24.2621 38.6786 27.9457 38.6786C30.8501 38.6786 33.5774 37.7857 36.1275 36C38.6777 34.2143 40.4841 31.9286 41.5467 29.1429C41.3342 24.0714 40.0236 20.1786 37.6151 17.4643C35.2066 14.6786 31.9835 13.2857 27.9457 13.2857Z" fill="url(#paint0_linear_1582_508)"/>
<path d="M99.9559 78C93.368 78 87.5946 76.1429 82.6359 72.4286C77.8189 68.7857 74.1353 64.0714 71.5852 58.2857C69.1058 52.5 67.8662 46.0714 67.8662 39C67.8662 32 69.0704 25.6429 71.4789 19.9286C74.0291 13.9286 77.7835 9.10714 82.7422 5.46428C87.7717 1.82143 93.5096 0 99.9559 0C109.732 0 117.488 3.82143 123.226 11.4643C129.035 19.0357 131.939 28.2143 131.939 39C131.939 49.7857 129.035 58.9643 123.226 66.5357C117.488 74.1786 109.732 78 99.9559 78ZM87.7363 56.4643C90.8532 61.1786 94.9264 63.5357 99.9559 63.5357C105.056 63.5357 109.094 61.1786 112.069 56.4643C115.115 51.6786 116.638 45.8571 116.638 39C116.638 32.0714 115.115 26.2857 112.069 21.6429C109.094 16.8571 105.056 14.4643 99.9559 14.4643C94.8556 14.4643 90.7824 16.8571 87.7363 21.6429C84.6903 26.2857 83.1672 32.0714 83.1672 39C83.1672 45.8571 84.6903 51.6786 87.7363 56.4643Z" fill="url(#paint1_linear_1582_508)"/>
<path d="M164.037 76.5H153.305L197.721 1.5H208.453L164.037 76.5ZM189.327 45.75C192.798 42.25 197.296 40.5 202.821 40.5C208.347 40.5 212.845 42.25 216.316 45.75C219.858 49.3214 221.629 53.6786 221.629 58.8214C221.629 63.9643 219.858 68.3214 216.316 71.8929C212.845 75.3929 208.347 77.1429 202.821 77.1429C197.296 77.1429 192.798 75.3929 189.327 71.8929C185.785 68.3214 184.014 63.9643 184.014 58.8214C184.014 53.6786 185.785 49.3214 189.327 45.75ZM196.658 65.0357C198.288 66.6786 200.342 67.5 202.821 67.5C205.23 67.5 207.249 66.6786 208.878 65.0357C210.507 63.3929 211.322 61.3214 211.322 58.8214C211.322 56.3214 210.507 54.25 208.878 52.6071C207.249 50.9643 205.23 50.1429 202.821 50.1429C200.342 50.1429 198.288 50.9643 196.658 52.6071C195.1 54.25 194.321 56.3214 194.321 58.8214C194.321 61.3214 195.1 63.3929 196.658 65.0357ZM145.23 6.10715C148.701 2.60715 153.199 0.857145 158.725 0.857145C164.25 0.857145 168.748 2.60715 172.219 6.10715C175.761 9.67857 177.532 14.0357 177.532 19.1786C177.532 24.3214 175.761 28.6786 172.219 32.25C168.748 35.75 164.25 37.5 158.725 37.5C153.199 37.5 148.701 35.75 145.23 32.25C141.688 28.6786 139.917 24.3214 139.917 19.1786C139.917 14.0357 141.688 9.67857 145.23 6.10715ZM152.562 25.3929C154.191 27.0357 156.245 27.8571 158.725 27.8571C161.133 27.8571 163.152 27.0357 164.781 25.3929C166.411 23.75 167.225 21.6786 167.225 19.1786C167.225 16.6786 166.411 14.6071 164.781 12.9643C163.152 11.3214 161.133 10.5 158.725 10.5C156.245 10.5 154.191 11.3214 152.562 12.9643C151.003 14.6071 150.224 16.6786 150.224 19.1786C150.224 21.6786 151.003 23.75 152.562 25.3929Z" fill="url(#paint2_linear_1582_508)"/>
<defs>
<linearGradient id="paint0_linear_1582_508" x1="0" y1="0" x2="49.2559" y2="138.49" gradientUnits="userSpaceOnUse">
<stop stop-color="#C028F7"/>
<stop offset="0.279167" stop-color="#BA3DF5"/>
<stop offset="1" stop-color="#1A5BF3"/>
</linearGradient>
<linearGradient id="paint1_linear_1582_508" x1="0" y1="0" x2="49.2559" y2="138.49" gradientUnits="userSpaceOnUse">
<stop stop-color="#C028F7"/>
<stop offset="0.279167" stop-color="#BA3DF5"/>
<stop offset="1" stop-color="#1A5BF3"/>
</linearGradient>
<linearGradient id="paint2_linear_1582_508" x1="0" y1="0" x2="49.2559" y2="138.49" gradientUnits="userSpaceOnUse">
<stop stop-color="#C028F7"/>
<stop offset="0.279167" stop-color="#BA3DF5"/>
<stop offset="1" stop-color="#1A5BF3"/>
</linearGradient>
</defs>
</svg>
