<svg width="29" height="28" viewBox="0 0 29 28" fill="none" xmlns="http://www.w3.org/2000/svg">
<g id="fluent:alert-32-regular">
<path id="Vector" d="M14.5001 3.5C12.4115 3.5 10.4085 4.32968 8.93161 5.80653C7.45476 7.28338 6.62508 9.28642 6.62508 11.375V15.5776L4.9372 19.8004C4.88415 19.9332 4.86445 20.0769 4.87983 20.2191C4.8952 20.3612 4.94518 20.4975 5.02539 20.6158C5.1056 20.7342 5.2136 20.8311 5.33993 20.8981C5.46627 20.9651 5.60709 21.0001 5.75008 21H11.0001C11.0001 22.9399 12.5602 24.5 14.5001 24.5C16.44 24.5 18.0001 22.9399 18.0001 21H23.2501C23.3931 21.0001 23.5339 20.9651 23.6602 20.8981C23.7866 20.8311 23.8946 20.7342 23.9748 20.6158C24.055 20.4975 24.105 20.3612 24.1203 20.2191C24.1357 20.0769 24.116 19.9332 24.063 19.8004L22.3751 15.5776V11.375C22.3751 9.28642 21.5454 7.28338 20.0685 5.80653C18.5917 4.32968 16.5887 3.5 14.5001 3.5ZM16.2501 21C16.2501 21.973 15.4731 22.75 14.5001 22.75C13.5271 22.75 12.7501 21.973 12.7501 21H16.2501ZM8.37508 11.375C8.37508 9.75055 9.02039 8.19263 10.169 7.04397C11.3177 5.89531 12.8756 5.25 14.5001 5.25C16.1245 5.25 17.6824 5.89531 18.8311 7.04397C19.9798 8.19263 20.6251 9.75055 20.6251 11.375V15.7456C20.625 15.8568 20.6461 15.967 20.6872 16.0702L21.9577 19.25H7.04245L8.31295 16.0702C8.35399 15.9672 8.37507 15.8574 8.37508 15.7465V11.375Z" fill="#131418"/>
</g>
</svg>
