<svg width="28" height="28" viewBox="0 0 28 28" fill="none" xmlns="http://www.w3.org/2000/svg">
<path d="M18.6588 2.676C18.1125 2.72621 17.6047 2.97872 17.2349 3.38399C16.8652 3.78927 16.6602 4.31807 16.6601 4.86667V11.3333C16.6601 11.5986 16.5548 11.8529 16.3672 12.0404C16.1797 12.228 15.9254 12.3333 15.6601 12.3333C13.7361 12.3333 12.3841 13.1173 11.3841 14.3173C10.3548 15.5547 9.68413 17.2587 9.26413 19.06C8.8468 20.8507 8.6948 22.6547 8.64947 24.0227C8.63432 24.4594 8.62899 24.8964 8.63347 25.3333H17.9935V24.3333C17.9935 23.5379 17.6776 22.7751 17.1153 22.2125C16.5529 21.6499 15.7902 21.3337 14.9948 21.3333H13.3281C13.0629 21.3333 12.8086 21.228 12.621 21.0404C12.4335 20.8529 12.3281 20.5986 12.3281 20.3333C12.3281 20.0681 12.4335 19.8138 12.621 19.6262C12.8086 19.4387 13.0629 19.3333 13.3281 19.3333H14.9948C15.6512 19.3335 16.3012 19.463 16.9076 19.7143C17.514 19.9657 18.065 20.3341 18.529 20.7984C18.993 21.2626 19.3611 21.8138 19.6121 22.4203C19.8632 23.0269 19.9923 23.6769 19.9921 24.3333V25.3333H20.9921C21.2574 25.3333 21.5117 25.228 21.6992 25.0404C21.8868 24.8529 21.9921 24.5986 21.9921 24.3333V11C21.9921 10.7352 22.0971 10.4813 22.2841 10.2938C22.471 10.1064 22.7247 10.0007 22.9895 10H23.6641C23.9612 9.99996 24.2528 9.92055 24.5088 9.76997C24.7648 9.6194 24.976 9.40314 25.1204 9.14358C25.2648 8.88402 25.3372 8.59059 25.3301 8.29365C25.323 7.99672 25.2367 7.70706 25.0801 7.45467L24.2535 6.12134C24.1041 5.88057 23.8958 5.68186 23.6483 5.54398C23.4007 5.4061 23.1221 5.3336 22.8388 5.33334H19.6575C19.3923 5.33334 19.1379 5.22798 18.9504 5.04044C18.7628 4.85291 18.6575 4.59855 18.6575 4.33334V2.676H18.6588ZM6.6348 25.3333C6.6308 24.9547 6.63347 24.488 6.6508 23.956C6.6988 22.512 6.86013 20.5667 7.31747 18.6067C7.7708 16.6573 8.53747 14.612 9.84947 13.0373C11.0121 11.6413 12.5895 10.636 14.6628 10.3907V4.86667C14.6628 3.75369 15.1046 2.68621 15.8911 1.89871C16.6776 1.11121 17.7445 0.668085 18.8575 0.666672C19.8521 0.666672 20.6575 1.472 20.6575 2.46667V3.33334H22.8388C24.1055 3.33334 25.2841 3.98934 25.9521 5.06667L26.7788 6.4C28.2348 8.75067 26.6668 11.76 23.9881 11.9867V24.3333C23.9881 25.1283 23.6726 25.8908 23.1109 26.4532C22.5491 27.0157 21.7871 27.3323 20.9921 27.3333H5.72947C4.74253 27.3337 3.77702 27.0455 2.95169 26.5043C2.12636 25.9632 1.47721 25.1926 1.08408 24.2873C0.690955 23.382 0.570995 22.3816 0.738958 21.4091C0.90692 20.4365 1.35548 19.5343 2.02947 18.8133L3.5428 17.1907C4.26343 16.4179 4.65601 15.3955 4.63785 14.339C4.6197 13.2825 4.19222 12.2743 3.44547 11.5267L1.96147 10.04C1.78483 9.85044 1.68866 9.59971 1.69323 9.34064C1.6978 9.08157 1.80275 8.83439 1.98597 8.65118C2.16919 8.46796 2.41637 8.36301 2.67544 8.35844C2.93451 8.35387 3.18523 8.45003 3.3748 8.62667L4.86013 10.112C5.97397 11.2259 6.6118 12.7287 6.63917 14.3037C6.66653 15.8787 6.08128 17.4028 5.0068 18.5547L3.49213 20.1773C3.08556 20.6142 2.81527 21.1601 2.71439 21.7483C2.61352 22.3365 2.68645 22.9413 2.92424 23.4886C3.16202 24.036 3.55434 24.502 4.0531 24.8297C4.55185 25.1574 5.13537 25.3324 5.73213 25.3333H6.6348Z" fill="#001894"/>
</svg>
