<svg width="10" height="18" viewBox="0 0 10 18" fill="none" xmlns="http://www.w3.org/2000/svg">
<path d="M1.90808 8.99511L8.98474 16.2676C9.04301 16.3262 9.08907 16.3958 9.12026 16.4723C9.15146 16.5489 9.16717 16.6308 9.16648 16.7134C9.1658 16.7961 9.14873 16.8778 9.11627 16.9538C9.0838 17.0298 9.03659 17.0986 8.97736 17.1562C8.91813 17.2138 8.84806 17.2591 8.77121 17.2895C8.69435 17.3199 8.61223 17.3347 8.52961 17.3331C8.44698 17.3316 8.36549 17.3136 8.28984 17.2803C8.2142 17.2471 8.1459 17.1991 8.08891 17.1393L0.58891 9.43095C0.475392 9.31427 0.411878 9.1579 0.411878 8.99511C0.411878 8.83232 0.475392 8.67596 0.58891 8.55928L8.08891 0.850945C8.1459 0.791102 8.2142 0.743155 8.28984 0.709879C8.36549 0.676603 8.44698 0.658661 8.52961 0.657087C8.61223 0.655514 8.69435 0.670342 8.77121 0.700714C8.84806 0.731087 8.91813 0.7764 8.97736 0.83403C9.03659 0.891661 9.0838 0.960468 9.11626 1.03646C9.14873 1.11246 9.16579 1.19414 9.16648 1.27678C9.16717 1.35942 9.15146 1.44137 9.12026 1.5179C9.08907 1.59443 9.04301 1.66401 8.98474 1.72261L1.90724 8.99511L1.90808 8.99511Z" fill="#131418"/>
</svg>
