<svg width="50" height="50" viewBox="0 0 50 50" fill="none" xmlns="http://www.w3.org/2000/svg">
<g filter="url(#filter0_dd_303_24)">
<path d="M28.7104 25.0059L20.2184 16.2789C20.1484 16.2086 20.0932 16.1251 20.0557 16.0332C20.0183 15.9414 19.9994 15.8431 20.0003 15.7439C20.0011 15.6447 20.0216 15.5467 20.0605 15.4555C20.0995 15.3643 20.1561 15.2817 20.2272 15.2126C20.2983 15.1434 20.3824 15.0891 20.4746 15.0526C20.5668 15.0162 20.6654 14.9984 20.7645 15.0003C20.8637 15.0021 20.9615 15.0237 21.0522 15.0636C21.143 15.1035 21.225 15.1611 21.2934 15.2329L30.2934 24.4829C30.4296 24.6229 30.5058 24.8105 30.5058 25.0059C30.5058 25.2012 30.4296 25.3889 30.2934 25.5289L21.2934 34.7789C21.225 34.8507 21.143 34.9082 21.0522 34.9482C20.9615 34.9881 20.8637 35.0096 20.7645 35.0115C20.6654 35.0134 20.5668 34.9956 20.4746 34.9592C20.3824 34.9227 20.2983 34.8683 20.2272 34.7992C20.1561 34.73 20.0995 34.6475 20.0605 34.5563C20.0216 34.4651 20.0011 34.3671 20.0003 34.2679C19.9994 34.1687 20.0183 34.0704 20.0557 33.9785C20.0932 33.8867 20.1484 33.8032 20.2184 33.7329L28.7114 25.0059H28.7104Z" fill="#FAFAFD"/>
</g>
<defs>
<filter id="filter0_dd_303_24" x="-4" y="-3" width="58" height="61" filterUnits="userSpaceOnUse" color-interpolation-filters="sRGB">
<feFlood flood-opacity="0" result="BackgroundImageFix"/>
<feColorMatrix in="SourceAlpha" type="matrix" values="0 0 0 0 0 0 0 0 0 0 0 0 0 0 0 0 0 0 127 0" result="hardAlpha"/>
<feOffset dy="4"/>
<feGaussianBlur stdDeviation="2"/>
<feComposite in2="hardAlpha" operator="out"/>
<feColorMatrix type="matrix" values="0 0 0 0 0.054902 0 0 0 0 0.121569 0 0 0 0 0.207843 0 0 0 0.08 0"/>
<feBlend mode="normal" in2="BackgroundImageFix" result="effect1_dropShadow_303_24"/>
<feColorMatrix in="SourceAlpha" type="matrix" values="0 0 0 0 0 0 0 0 0 0 0 0 0 0 0 0 0 0 127 0" result="hardAlpha"/>
<feOffset dy="1"/>
<feGaussianBlur stdDeviation="2"/>
<feComposite in2="hardAlpha" operator="out"/>
<feColorMatrix type="matrix" values="0 0 0 0 0.054902 0 0 0 0 0.121569 0 0 0 0 0.207843 0 0 0 0.12 0"/>
<feBlend mode="normal" in2="effect1_dropShadow_303_24" result="effect2_dropShadow_303_24"/>
<feBlend mode="normal" in="SourceGraphic" in2="effect2_dropShadow_303_24" result="shape"/>
</filter>
</defs>
</svg>
