<svg width="24" height="24" viewBox="0 0 24 24" fill="none" xmlns="http://www.w3.org/2000/svg">
<path d="M5.5 5.75C5.5 5.41848 5.6317 5.10054 5.86612 4.86612C6.10054 4.6317 6.41848 4.5 6.75 4.5C7.08152 4.5 7.39946 4.6317 7.63388 4.86612C7.8683 5.10054 8 5.41848 8 5.75V12.036C8.477 12.081 8.978 12.169 9.5 12.31V11H16V14.5C16.5061 14.4918 17.0095 14.4247 17.5 14.3V5.75C17.5 5.02065 17.2103 4.32118 16.6945 3.80546C16.1788 3.28973 15.4793 3 14.75 3C14.0207 3 13.3212 3.28973 12.8055 3.80546C12.2897 4.32118 12 5.02065 12 5.75V6.25C12 6.44891 12.079 6.63968 12.2197 6.78033C12.3603 6.92098 12.5511 7 12.75 7C12.9489 7 13.1397 6.92098 13.2803 6.78033C13.421 6.63968 13.5 6.44891 13.5 6.25V5.75C13.5 5.41848 13.6317 5.10054 13.8661 4.86612C14.1005 4.6317 14.4185 4.5 14.75 4.5C15.0815 4.5 15.3995 4.6317 15.6339 4.86612C15.8683 5.10054 16 5.41848 16 5.75V9.5H9.5V5.75C9.5 5.02065 9.21027 4.32118 8.69454 3.80546C8.17882 3.28973 7.47935 3 6.75 3C6.02066 3 5.32118 3.28973 4.80546 3.80546C4.28973 4.32118 4 5.02065 4 5.75V6.25C4 6.44891 4.07902 6.63968 4.21967 6.78033C4.36032 6.92098 4.55109 7 4.75 7C4.94891 7 5.13968 6.92098 5.28033 6.78033C5.42098 6.63968 5.5 6.44891 5.5 6.25V5.75ZM4.28 15.526C4.13915 15.6633 3.94998 15.7398 3.75326 15.739C3.55654 15.7382 3.36802 15.6601 3.22832 15.5216C3.08863 15.3831 3.00895 15.1952 3.00646 14.9985C3.00397 14.8018 3.07886 14.612 3.215 14.47H3.216V14.469L3.219 14.467L3.223 14.462L3.235 14.451C3.28589 14.4004 3.33929 14.3523 3.395 14.307C3.53839 14.188 3.68865 14.0774 3.845 13.976C4.36604 13.6378 4.93701 13.3837 5.537 13.223C7.033 12.817 9.14 12.847 11.737 14.33C14.043 15.648 16.07 15.642 17.514 15.323C18.1075 15.1932 18.6831 14.9918 19.228 14.723C19.428 14.6234 19.622 14.5123 19.809 14.39L19.81 14.389L19.812 14.388C19.9734 14.2749 20.1728 14.2299 20.3671 14.2627C20.5614 14.2955 20.735 14.4035 20.8504 14.5632C20.9657 14.723 21.0136 14.9217 20.9836 15.1165C20.9535 15.3113 20.8481 15.4864 20.69 15.604H20.689L20.687 15.606L20.682 15.609L20.668 15.619C20.6024 15.6656 20.535 15.7097 20.466 15.751C20.2808 15.8645 20.0906 15.9696 19.896 16.066C19.2412 16.3895 18.5495 16.6319 17.836 16.788C16.084 17.174 13.668 17.161 10.993 15.633C8.724 14.337 7.023 14.373 5.929 14.67C5.48128 14.7894 5.05509 14.9784 4.666 15.23C4.53466 15.3159 4.40967 15.4112 4.292 15.515L4.28 15.526ZM3.224 19.531C3.36516 19.6699 3.55551 19.7473 3.75353 19.7463C3.95155 19.7454 4.14116 19.6662 4.281 19.526L4.292 19.516C4.305 19.504 4.327 19.483 4.359 19.456C4.424 19.402 4.527 19.322 4.666 19.23C4.946 19.047 5.37 18.822 5.929 18.67C7.024 18.374 8.724 18.337 10.993 19.633C13.668 21.161 16.083 21.174 17.837 20.788C18.5505 20.6319 19.2422 20.3895 19.897 20.066C20.1468 19.9415 20.3892 19.8026 20.623 19.65L20.668 19.62L20.682 19.61L20.687 19.606L20.689 19.605L20.69 19.604C20.8481 19.4864 20.9535 19.3113 20.9836 19.1165C21.0136 18.9217 20.9657 18.723 20.8504 18.5632C20.735 18.4035 20.5614 18.2955 20.3671 18.2627C20.1728 18.2299 19.9734 18.2749 19.812 18.388H19.81L19.809 18.39C19.622 18.5123 19.428 18.6234 19.228 18.723C18.828 18.922 18.242 19.163 17.514 19.323C16.07 19.642 14.044 19.648 11.737 18.331C9.14 16.847 7.033 16.817 5.537 17.223C4.8 17.423 4.232 17.722 3.845 17.976C3.64313 18.1079 3.45158 18.255 3.272 18.416C3.25953 18.4275 3.24719 18.4392 3.235 18.451L3.223 18.462L3.219 18.467L3.217 18.469L3.215 18.47C3.07574 18.6118 2.99846 18.8031 3.00015 19.0019C3.00184 19.2006 3.08235 19.3916 3.224 19.531Z" fill="#131312"/>
</svg>
