<svg width="20" height="17" viewBox="0 0 20 17" fill="none" xmlns="http://www.w3.org/2000/svg">
<path d="M4.75 3.38856e-09H15.25C15.9503 -3.47392e-05 16.6242 0.267092 17.1343 0.746893C17.6444 1.22669 17.9522 1.88302 17.995 2.582L18 2.75V6.104C18.5451 6.25874 19.0291 6.57796 19.386 7.01806C19.7429 7.45817 19.9552 7.99771 19.994 8.563L20 8.75V16.25C19.9999 16.44 19.9278 16.6229 19.798 16.7618C19.6683 16.9006 19.4907 16.9851 19.3011 16.998C19.1115 17.011 18.9241 16.9515 18.7767 16.8316C18.6293 16.7117 18.5329 16.5402 18.507 16.352L18.5 16.25V14H1.5V16.25C1.49999 16.4312 1.43436 16.6063 1.31523 16.7429C1.19611 16.8795 1.03155 16.9684 0.852 16.993L0.75 17C0.568762 17 0.393658 16.9344 0.257069 16.8152C0.120481 16.6961 0.0316483 16.5316 0.00699997 16.352L0 16.25V8.75C0 7.491 0.846 6.43 2 6.103V2.75C1.99997 2.04971 2.26709 1.37579 2.74689 0.865703C3.22669 0.355612 3.88302 0.0477813 4.582 0.00500012L4.75 3.38856e-09ZM17.25 7.5H2.75C2.44054 7.49986 2.14203 7.61451 1.91223 7.82177C1.68244 8.02903 1.53769 8.31417 1.506 8.622L1.5 8.75V12.5H18.5V8.75C18.4999 8.44071 18.3851 8.14245 18.1779 7.91286C17.9707 7.68328 17.6857 7.53867 17.378 7.507L17.25 7.5ZM15.25 1.5H4.75C4.44054 1.49986 4.14203 1.61451 3.91223 1.82177C3.68244 2.02903 3.53769 2.31417 3.506 2.622L3.5 2.75V6H5C5 5.73478 5.10536 5.48043 5.29289 5.29289C5.48043 5.10536 5.73478 5 6 5H8C8.24493 5.00003 8.48134 5.08996 8.66437 5.25272C8.84741 5.41547 8.96434 5.63975 8.993 5.883L9 6H11C11 5.73478 11.1054 5.48043 11.2929 5.29289C11.4804 5.10536 11.7348 5 12 5H14C14.2449 5.00003 14.4813 5.08996 14.6644 5.25272C14.8474 5.41547 14.9643 5.63975 14.993 5.883L15 6H16.5V2.75C16.5001 2.44054 16.3855 2.14203 16.1782 1.91223C15.971 1.68244 15.6858 1.53769 15.378 1.506L15.25 1.5Z" fill="#131418"/>
</svg>
