<svg width="16" height="16" viewBox="0 0 16 16" fill="none" xmlns="http://www.w3.org/2000/svg">
<path d="M5.64598 12.854C5.59941 12.8075 5.56247 12.7523 5.53727 12.6916C5.51206 12.6308 5.49908 12.5657 5.49908 12.5C5.49908 12.4342 5.51206 12.3691 5.53727 12.3083C5.56247 12.2476 5.59941 12.1924 5.64598 12.146L9.79298 7.99996L5.64598 3.85396C5.55209 3.76007 5.49935 3.63274 5.49935 3.49996C5.49935 3.36719 5.55209 3.23985 5.64598 3.14596C5.73986 3.05207 5.8672 2.99933 5.99998 2.99933C6.13275 2.99933 6.26009 3.05207 6.35398 3.14596L10.854 7.64596C10.9005 7.69241 10.9375 7.74758 10.9627 7.80833C10.9879 7.86907 11.0009 7.93419 11.0009 7.99996C11.0009 8.06573 10.9879 8.13085 10.9627 8.19159C10.9375 8.25234 10.9005 8.30751 10.854 8.35396L6.35398 12.854C6.30753 12.9005 6.25236 12.9375 6.19161 12.9627C6.13087 12.9879 6.06575 13.0009 5.99998 13.0009C5.93421 13.0009 5.86909 12.9879 5.80834 12.9627C5.7476 12.9375 5.69242 12.9005 5.64598 12.854Z" fill="#131418"/>
</svg>
