<svg width="22" height="28" viewBox="0 0 22 28" fill="none" xmlns="http://www.w3.org/2000/svg">
<path d="M9.30696 8.60299L6.72196 10.974C6.59447 11.0911 6.49947 11.2392 6.4462 11.404C6.39293 11.5687 6.3832 11.7444 6.41796 11.914M9.30696 8.60299L11.598 19.42C11.4333 19.472 11.2579 19.4804 11.0889 19.4445C10.92 19.4086 10.7633 19.3295 10.634 19.215L10.554 19.141M9.30696 8.60299C9.6006 8.33361 9.80707 7.98265 9.8999 7.59513M9.30696 8.60299L9.8999 7.59513M6.41796 11.914L6.44096 12.018M6.41796 11.914L6.61324 11.8708L6.61359 11.8724M6.41796 11.914L6.61389 11.8738C6.61379 11.8734 6.61369 11.8729 6.61359 11.8724M6.44096 12.018L6.50496 12.279M6.44096 12.018L6.6352 11.9704L6.63575 11.9726M6.44096 12.018L6.63624 11.9748L6.63575 11.9726M6.50496 12.279C6.56196 12.499 6.64796 12.809 6.76896 13.179C7.00896 13.914 7.39196 14.902 7.96196 15.889C8.53196 16.876 9.19596 17.702 9.71196 18.277M6.50496 12.279L6.69857 12.2288C6.69867 12.2292 6.69878 12.2297 6.69889 12.2301M6.50496 12.279L6.6992 12.2314L6.69889 12.2301M9.71196 18.277C9.9807 18.5764 10.2616 18.8646 10.554 19.141M9.71196 18.277L9.86079 18.1434M9.71196 18.277L9.86081 18.1434C9.8608 18.1434 9.8608 18.1434 9.86079 18.1434M10.554 19.141L10.6898 18.9942L10.6906 18.995C10.4025 18.7226 10.1257 18.4385 9.86079 18.1434M10.554 19.141L10.6913 18.9957L10.7681 19.0666C10.8712 19.1575 10.9961 19.2203 11.1305 19.2489C11.2657 19.2776 11.406 19.2709 11.5378 19.2293L11.5379 19.2292L14.8839 18.1762L14.884 18.1762C15.3022 18.0447 15.7501 18.0412 16.1703 18.1661C16.5905 18.2909 16.9638 18.5384 17.2424 18.8769L18.8252 20.7987C19.5527 21.6805 19.4666 22.9763 18.6303 23.7553C16.5048 25.7363 13.5408 26.1738 11.4586 24.4988L11.4584 24.4987C9.00755 22.522 6.94137 20.1111 5.36309 17.3866C3.77155 14.6633 2.70834 11.664 2.22928 8.54637L2.22696 8.53127V8.52992C1.83643 5.89945 3.70007 3.56854 6.47139 2.71976L6.47142 2.71975C7.0013 2.55757 7.57308 2.60366 8.07014 2.84861C8.5672 3.09356 8.95208 3.51891 9.14627 4.03791L10.0153 6.35784L10.0153 6.35787C10.169 6.76838 10.1965 7.21544 10.0944 7.64172C9.99228 8.06799 9.76516 8.45405 9.44216 8.75037L9.44215 8.75039L6.85727 11.1213C6.7552 11.215 6.67914 11.3336 6.63649 11.4655C6.59399 11.5969 6.58611 11.7371 6.61359 11.8724M6.61359 11.8724L6.63575 11.9726M6.63575 11.9726L6.69889 12.2301M6.69889 12.2301C6.75507 12.4468 6.83983 12.7523 6.95905 13.1168L6.95908 13.1169C7.19628 13.8433 7.57417 14.8176 8.13515 15.789C8.69616 16.7604 9.35083 17.5751 9.86079 18.1434M9.8999 7.59513C9.99272 7.2076 9.96767 6.80119 9.82796 6.428L9.8999 7.59513ZM8.37778 11.8976L8.28701 11.9808L8.32049 12.0994C8.36972 12.2736 8.4225 12.4469 8.47881 12.619C8.74461 13.4418 9.09347 14.2355 9.51998 14.9876L9.51996 14.9877L9.52155 14.9904C9.9597 15.7357 10.4726 16.4344 11.0523 17.0758C11.173 17.2105 11.2965 17.3427 11.4226 17.4724L11.5085 17.5608L11.626 17.5238L14.403 16.6498C14.403 16.6498 14.403 16.6498 14.403 16.6498C15.1254 16.4225 15.8993 16.4163 16.6253 16.632C17.3513 16.8476 17.9963 17.2753 18.4775 17.8601L18.4776 17.8601L20.0606 19.7821C20.6695 20.5215 20.9734 21.4653 20.9105 22.4211C20.8475 23.3769 20.4223 24.2726 19.7216 24.9257L19.7216 24.9257C17.1925 27.2842 13.3307 28.0561 10.4552 25.7461C7.85167 23.6465 5.65672 21.0857 3.98001 18.1917L3.97967 18.1911C2.2873 15.2932 1.15686 12.1019 0.647669 8.78482C0.0949805 5.14247 2.70291 2.20055 6.00343 1.19026C6.92266 0.909217 7.91447 0.989326 8.77668 1.41425C9.63889 1.83918 10.3066 2.57694 10.6437 3.47713L10.6437 3.47722L11.5137 5.79712C11.7791 6.50618 11.8267 7.27838 11.6503 8.01467C11.474 8.75095 11.0817 9.41777 10.5238 9.92959C10.5238 9.9296 10.5238 9.92961 10.5238 9.92962L8.37778 11.8976Z" fill="#FAFAFD" stroke="#5B5B5B" stroke-width="0.4"/>
</svg>
