<svg width="28" height="28" viewBox="0 0 28 28" fill="none" xmlns="http://www.w3.org/2000/svg">
<g id="fluent:chat-28-regular">
<path id="Vector" d="M9.06901 23.273C10.5867 24.0814 12.2804 24.5029 14 24.5C19.799 24.5 24.5 19.799 24.5 14C24.5 8.201 19.799 3.5 14 3.5C8.20101 3.5 3.50001 8.201 3.50001 14C3.50001 15.785 3.94501 17.464 4.72901 18.934C4.91193 19.2765 4.95495 19.6765 4.84901 20.05L3.61501 24.387L7.95301 23.154C8.3264 23.0478 8.72643 23.0904 9.06901 23.273ZM14 26C12.0341 26.0028 10.0979 25.5205 8.36301 24.596L3.59301 25.953C3.37889 26.0138 3.1524 26.0164 2.93697 25.9604C2.72153 25.9044 2.52495 25.7919 2.36755 25.6345C2.21015 25.4771 2.09764 25.2805 2.04164 25.065C1.98564 24.8496 1.98819 24.6231 2.04901 24.409L3.40501 19.639C2.4798 17.9036 1.9972 15.9666 2.00001 14C2.00001 7.373 7.37301 2 14 2C20.627 2 26 7.373 26 14C26 20.627 20.627 26 14 26ZM9.50001 11.75C9.50001 11.5511 9.57903 11.3603 9.71968 11.2197C9.86033 11.079 10.0511 11 10.25 11H17.75C17.9489 11 18.1397 11.079 18.2803 11.2197C18.421 11.3603 18.5 11.5511 18.5 11.75C18.5 11.9489 18.421 12.1397 18.2803 12.2803C18.1397 12.421 17.9489 12.5 17.75 12.5H10.25C10.0511 12.5 9.86033 12.421 9.71968 12.2803C9.57903 12.1397 9.50001 11.9489 9.50001 11.75ZM9.50001 16.25C9.50001 16.0511 9.57903 15.8603 9.71968 15.7197C9.86033 15.579 10.0511 15.5 10.25 15.5H14.75C14.9489 15.5 15.1397 15.579 15.2803 15.7197C15.421 15.8603 15.5 16.0511 15.5 16.25C15.5 16.4489 15.421 16.6397 15.2803 16.7803C15.1397 16.921 14.9489 17 14.75 17H10.25C10.0511 17 9.86033 16.921 9.71968 16.7803C9.57903 16.6397 9.50001 16.4489 9.50001 16.25Z" fill="#131418"/>
</g>
</svg>
