<svg width="32" height="32" viewBox="0 0 32 32" fill="none" xmlns="http://www.w3.org/2000/svg">
<path d="M4.80002 15.9978C4.79688 17.8534 5.25715 19.6804 6.13905 21.3131L6.13919 21.3133L6.30384 21.617L4.36429 27.4337L4.24322 27.7968L4.61043 27.6889L10.7331 25.889L11.0138 26.029L11.0139 26.029C12.5149 26.7765 14.2074 27.197 16 27.197C22.1865 27.197 27.2 22.1835 27.2 15.998C27.2 9.81352 22.1865 4.8 16 4.8C9.81466 4.8 4.80011 9.81342 4.80002 15.9978ZM4.80002 15.9978C4.80002 15.9978 4.80002 15.9977 4.80002 15.9977L5.00002 15.998H4.80002C4.80002 15.9979 4.80002 15.9979 4.80002 15.9978ZM4.54275 21.8413L4.56887 21.7629L4.53211 21.689C3.67954 19.974 3.20002 18.0414 3.20002 15.998C3.20002 8.93048 8.93046 3.2 16 3.2C23.0696 3.2 28.8 8.93048 28.8 15.998C28.8 23.0665 23.0696 28.797 16 28.797H15.9998C14.155 28.7991 12.3317 28.401 10.6556 27.6303L10.5875 27.599L10.5156 27.6201L5.06162 29.2231L5.06143 29.2232C3.66762 29.6344 2.38683 28.3071 2.84674 26.9283L2.84675 26.9283L4.54275 21.8413ZM11.2 13.999C11.2 13.7868 11.2843 13.5833 11.4343 13.4333C11.5844 13.2833 11.7878 13.199 12 13.199H20C20.2122 13.199 20.4157 13.2833 20.5657 13.4333C20.7157 13.5833 20.8 13.7868 20.8 13.999C20.8 14.2112 20.7157 14.4147 20.5657 14.5647C20.4157 14.7147 20.2122 14.799 20 14.799H12C11.7878 14.799 11.5844 14.7147 11.4343 14.5647C11.2843 14.4147 11.2 14.2112 11.2 13.999ZM11.2 17.998C11.2 17.7858 11.2843 17.5823 11.4343 17.4323C11.5844 17.2823 11.7878 17.198 12 17.198H18C18.2122 17.198 18.4157 17.2823 18.5657 17.4323C18.7157 17.5823 18.8 17.7858 18.8 17.998C18.8 18.2102 18.7157 18.4137 18.5657 18.5637C18.4157 18.7137 18.2122 18.798 18 18.798H12C11.7878 18.798 11.5844 18.7137 11.4343 18.5637C11.2843 18.4137 11.2 18.2102 11.2 17.998Z" fill="#FAFAFD" stroke="#5B5B5B" stroke-width="0.4"/>
</svg>
