<svg width="16" height="16" viewBox="0 0 16 16" fill="none" xmlns="http://www.w3.org/2000/svg">
<g id="Group 293">
<path id="Star 1" d="M7.34162 0.0545546C7.77979 0.0182471 8.22021 0.0182471 8.65838 0.0545546C9.09655 0.0908622 9.53096 0.163353 9.95718 0.271286C10.3834 0.379219 10.7999 0.522223 11.2026 0.698836C11.6052 0.875449 11.9926 1.08507 12.3606 1.32554C12.7287 1.56602 13.0763 1.83653 13.3997 2.13431C13.7232 2.43209 14.0215 2.75612 14.2916 3.10308C14.5616 3.45004 14.8025 3.81875 15.0118 4.20543C15.221 4.5921 15.3979 4.99543 15.5407 5.41128C15.6835 5.82712 15.7916 6.25407 15.8639 6.68774C15.9363 7.12141 15.9727 7.56033 15.9727 8C15.9727 8.43967 15.9363 8.87859 15.8639 9.31226C15.7916 9.74593 15.6835 10.1729 15.5407 10.5887C15.3979 11.0046 15.221 11.4079 15.0118 11.7946C14.8025 12.1813 14.5616 12.55 14.2916 12.8969C14.0215 13.2439 13.7232 13.5679 13.3997 13.8657C13.0763 14.1635 12.7287 14.434 12.3606 14.6745C11.9926 14.9149 11.6052 15.1246 11.2026 15.3012C10.7999 15.4778 10.3834 15.6208 9.95718 15.7287C9.53096 15.8366 9.09655 15.9091 8.65838 15.9454C8.22021 15.9818 7.77979 15.9818 7.34162 15.9454C6.90345 15.9091 6.46904 15.8366 6.04283 15.7287C5.61661 15.6208 5.20005 15.4778 4.79741 15.3012C4.39477 15.1245 4.00744 14.9149 3.63936 14.6745C3.27128 14.434 2.92373 14.1635 2.60025 13.8657C2.27678 13.5679 1.97849 13.2439 1.70844 12.8969C1.43839 12.55 1.1975 12.1813 0.988241 11.7946C0.778981 11.4079 0.602066 11.0046 0.459306 10.5887C0.316545 10.1729 0.208428 9.74593 0.136061 9.31226C0.0636937 8.87859 0.0273242 8.43967 0.0273242 8C0.0273242 7.56033 0.0636937 7.12141 0.136061 6.68774C0.208428 6.25407 0.316545 5.82712 0.459306 5.41128C0.602066 4.99543 0.778981 4.5921 0.988241 4.20543C1.1975 3.81875 1.43839 3.45004 1.70844 3.10308C1.97849 2.75612 2.27678 2.43209 2.60025 2.13431C2.92373 1.83653 3.27128 1.56602 3.63936 1.32554C4.00744 1.08507 4.39478 0.875449 4.79741 0.698836C5.20005 0.522223 5.61661 0.379218 6.04282 0.271286C6.46904 0.163353 6.90345 0.0908622 7.34162 0.0545546Z" fill="url(#paint0_linear_864_1327)"/>
<path id="Vector 183" d="M3.5 8.5L6 11L12 5" stroke="#FAFAFD" stroke-width="1.5" stroke-linecap="round" stroke-linejoin="round"/>
</g>
<defs>
<linearGradient id="paint0_linear_864_1327" x1="16" y1="-1.47059" x2="-0.923513" y2="17.3777" gradientUnits="userSpaceOnUse">
<stop stop-color="#125EF3"/>
<stop offset="1" stop-color="#C024E7"/>
</linearGradient>
</defs>
</svg>
