<svg width="26" height="24" viewBox="0 0 26 24" fill="none" xmlns="http://www.w3.org/2000/svg">
<path d="M20.3319 0.49994C21.4537 0.499999 22.5487 0.84312 23.47 1.48328C24.3913 2.12343 25.0948 3.03001 25.4861 4.0814C25.8774 5.13278 25.9379 6.2787 25.6594 7.36543C25.3808 8.45216 24.7767 9.42773 23.9279 10.1613C24.2985 11.1599 24.4985 12.2253 24.4985 13.3333C24.4985 16.5199 22.8412 19.3586 20.2585 21.2186C19.8812 21.4906 19.4852 21.7399 19.0719 21.9679L19.0225 21.9946C17.1718 22.9916 15.1007 23.5092 12.9985 23.4999C10.8963 23.5091 8.8253 22.9916 6.97452 21.9946C6.56833 21.7737 6.17563 21.5288 5.79852 21.2613L5.73852 21.2186C3.15585 19.3586 1.49852 16.5199 1.49852 13.3333C1.49852 12.2266 1.69852 11.1599 2.06918 10.1613C1.45905 9.63323 0.972583 8.97741 0.644274 8.24032C0.315964 7.50324 0.153858 6.70294 0.169454 5.89619C0.18505 5.08944 0.377965 4.29601 0.734516 3.57216C1.09107 2.84831 1.60252 2.21178 2.2326 1.70771C2.86269 1.20365 3.59596 0.844395 4.38042 0.655433C5.16488 0.466471 5.98131 0.452431 6.77181 0.614306C7.5623 0.776182 8.3075 1.11001 8.95454 1.59211C9.60158 2.07421 10.1346 2.69278 10.5159 3.40394C11.3339 3.24545 12.1653 3.16597 12.9985 3.16661C13.8519 3.16661 14.6812 3.24794 15.4812 3.40394C15.951 2.52607 16.6504 1.79225 17.5047 1.28079C18.359 0.769342 19.3362 0.499456 20.3319 0.49994ZM15.0292 17.1959C14.8825 17.4679 14.6292 17.6946 14.3185 17.8586C13.9505 18.0533 13.4919 18.1666 12.9985 18.1666C12.5052 18.1666 12.0465 18.0533 11.6785 17.8599C11.3819 17.7132 11.1351 17.4823 10.9692 17.1959C10.2157 17.4766 9.52816 17.9095 8.94939 18.4677C8.37062 19.0258 7.91304 19.6972 7.60518 20.4399C9.25182 21.364 11.1104 21.8441 12.9985 21.8333C14.8867 21.8441 16.7452 21.364 18.3919 20.4399C18.0849 19.6966 17.6276 19.0248 17.0487 18.4665C16.4698 17.9083 15.7818 17.4757 15.0279 17.1959H15.0292ZM12.9985 4.83327C7.51052 4.83327 3.16518 8.69994 3.16518 13.3333C3.16518 15.7319 4.32518 17.9199 6.20785 19.4773C6.81317 18.1875 7.77329 17.0968 8.97587 16.3327C10.1785 15.5687 11.5738 15.1629 12.9985 15.1629C14.4233 15.1629 15.8186 15.5687 17.0212 16.3327C18.2237 17.0968 19.1839 18.1875 19.7892 19.4773C21.6719 17.9199 22.8319 15.7306 22.8319 13.3333C22.8319 8.69994 18.4852 4.83327 12.9985 4.83327ZM5.66518 2.16661C4.92231 2.16644 4.1954 2.38213 3.57284 2.78744C2.95029 3.19276 2.45891 3.77023 2.15848 4.44964C1.85804 5.12905 1.76149 5.88111 1.88056 6.61438C1.99963 7.34764 2.3292 8.03051 2.82918 8.57994C4.11985 6.42794 6.25585 4.73727 8.84118 3.85061C8.48971 3.33176 8.01642 2.90696 7.46274 2.61338C6.90907 2.31981 6.29188 2.16641 5.66518 2.16661ZM20.3319 2.16661C19.0319 2.16661 17.8545 2.81994 17.1559 3.85061C19.7425 4.73727 21.8772 6.42794 23.1679 8.57994C23.6678 8.03051 23.9974 7.34764 24.1165 6.61438C24.2355 5.88111 24.139 5.12905 23.8386 4.44964C23.5381 3.77023 23.0467 3.19276 22.4242 2.78744C21.8016 2.38213 21.0747 2.16644 20.3319 2.16661Z" fill="#001894"/>
</svg>
