<svg width="22" height="21" viewBox="0 0 22 21" fill="none" xmlns="http://www.w3.org/2000/svg">
<path d="M17 5H18M1 9L1.79 11.584C1.91507 11.9936 2.16834 12.3523 2.51254 12.6072C2.85674 12.8621 3.27369 12.9998 3.702 13H5M21 9L20.21 11.584C20.0849 11.9936 19.8317 12.3523 19.4875 12.6072C19.1433 12.8621 18.7263 12.9998 18.298 13H17M8.5 12.5C8.5 12.5 8.5 19.5 5 19.5M13.5 12.5C13.5 12.5 13.5 19.5 17 19.5M11 12.5V19.5M21 1.6V9H1V1.6C1 1.44087 1.06321 1.28826 1.17574 1.17574C1.28826 1.06321 1.44087 1 1.6 1H20.4C20.5591 1 20.7117 1.06321 20.8243 1.17574C20.9368 1.28826 21 1.44087 21 1.6V1.6Z" stroke="#131418" stroke-width="1.5" stroke-linecap="round" stroke-linejoin="round"/>
</svg>
