<svg width="15" height="20" viewBox="0 0 15 20" fill="none" xmlns="http://www.w3.org/2000/svg">
<path d="M8.80778 0.555255C8.05674 -0.0938362 6.94326 -0.0938379 6.19222 0.555253L0.692224 5.30866C0.252648 5.68857 0 6.24085 0 6.82184V6.875C0 7.97957 0.895431 8.875 2 8.875H13C14.1046 8.875 15 7.97957 15 6.875V6.82184C15 6.24085 14.7474 5.68857 14.3078 5.30866L8.80778 0.555255ZM13.5 6.83851C13.5 7.1348 13.2598 7.375 12.9635 7.375H2.03649C1.74019 7.375 1.5 7.1348 1.5 6.83851C1.5 6.68266 1.56778 6.5345 1.6857 6.4326L6.19226 2.53797C6.94329 1.88893 8.05671 1.88893 8.80774 2.53797L13.3143 6.4326C13.4322 6.53451 13.5 6.68266 13.5 6.83851ZM0 13.1782C0 13.7591 0.252647 14.3114 0.692223 14.6913L6.19222 19.4447C6.94326 20.0938 8.05674 20.0938 8.80778 19.4447L14.3078 14.6913C14.7474 14.3114 15 13.7591 15 13.1782V13.125C15 12.0204 14.1046 11.125 13 11.125H2C0.89543 11.125 0 12.0204 0 13.125V13.1782ZM1.5 13.1615C1.5 12.8652 1.74019 12.625 2.03649 12.625H12.9635C13.2598 12.625 13.5 12.8652 13.5 13.1615C13.5 13.3173 13.4322 13.4655 13.3143 13.5674L8.80774 17.462C8.05671 18.1111 6.94329 18.1111 6.19226 17.462L1.6857 13.5674C1.56778 13.4655 1.5 13.3173 1.5 13.1615Z" fill="#131418"/>
</svg>
