<svg width="24" height="24" viewBox="0 0 24 24" fill="none" xmlns="http://www.w3.org/2000/svg">
<g clip-path="url(#clip0_1735_1831)">
<path fill-rule="evenodd" clip-rule="evenodd" d="M9.65139 1.22282C10.2743 0.599935 11.1191 0.25 12 0.25C12.8809 0.25 13.7257 0.599935 14.3486 1.22282C14.9715 1.84571 15.3214 2.69053 15.3214 3.57143V4.42857C15.3214 4.68432 15.423 4.92959 15.6039 5.11042C15.7847 5.29126 16.03 5.39286 16.2857 5.39286C16.9393 5.39286 17.5661 5.65249 18.0282 6.11463C18.4904 6.57677 18.75 7.20357 18.75 7.85714V10.5357H19.7143C20.1285 10.5357 20.4643 10.8715 20.4643 11.2857C20.4643 11.6999 20.1285 12.0357 19.7143 12.0357H18.75V21.5714C18.75 22.225 18.4904 22.8518 18.0282 23.3139C17.5661 23.7761 16.9393 24.0357 16.2857 24.0357H7.71428C7.06071 24.0357 6.43391 23.7761 5.97176 23.3139C5.50962 22.8518 5.24999 22.225 5.24999 21.5714V12.0357H4.28571C3.87149 12.0357 3.53571 11.6999 3.53571 11.2857C3.53571 10.8715 3.87149 10.5357 4.28571 10.5357H5.24999V7.85714C5.24999 7.20357 5.50962 6.57677 5.97176 6.11463C6.43391 5.65249 7.06071 5.39286 7.71428 5.39286C7.97002 5.39286 8.21529 5.29126 8.39613 5.11042C8.57697 4.92959 8.67856 4.68432 8.67856 4.42857V3.57143C8.67856 2.69053 9.0285 1.84571 9.65139 1.22282ZM6.74999 12.0357V21.5714C6.74999 21.8272 6.85159 22.0724 7.03242 22.2533C7.21326 22.4341 7.45853 22.5357 7.71428 22.5357H16.2857C16.5414 22.5357 16.7867 22.4341 16.9676 22.2533C17.1484 22.0724 17.25 21.8272 17.25 21.5714V17.1786H12.8571C12.4429 17.1786 12.1071 16.8428 12.1071 16.4286C12.1071 16.0144 12.4429 15.6786 12.8571 15.6786H17.25V12.0357H6.74999ZM17.25 10.5357H6.74999V7.85714C6.74999 7.6014 6.85159 7.35613 7.03242 7.17529C7.21326 6.99445 7.45853 6.89286 7.71428 6.89286C8.36785 6.89286 8.99465 6.63323 9.45679 6.17108C9.91893 5.70894 10.1786 5.08214 10.1786 4.42857V3.57143C10.1786 3.08836 10.3705 2.62507 10.712 2.28348C11.0536 1.9419 11.5169 1.75 12 1.75C12.4831 1.75 12.9464 1.9419 13.2879 2.28348C13.6295 2.62507 13.8214 3.08836 13.8214 3.57143V4.42857C13.8214 5.08214 14.081 5.70894 14.5432 6.17108C15.0053 6.63323 15.6321 6.89286 16.2857 6.89286C16.5415 6.89286 16.7867 6.99445 16.9676 7.17529C17.1484 7.35613 17.25 7.6014 17.25 7.85714V10.5357Z" fill="#131312"/>
</g>
<defs>
<clipPath id="clip0_1735_1831">
<rect width="24" height="24" fill="white"/>
</clipPath>
</defs>
</svg>
