<svg width="24" height="24" viewBox="0 0 24 24" fill="none" xmlns="http://www.w3.org/2000/svg">
<path d="M10.733 19.7895C10.878 19.9208 11.0686 19.9902 11.2641 19.9829C11.4596 19.9756 11.6445 19.8922 11.7794 19.7506C11.9143 19.6089 11.9885 19.4201 11.9862 19.2245C11.9838 19.0289 11.9052 18.842 11.767 18.7035L5.51599 12.7495H20.25C20.4489 12.7495 20.6397 12.6705 20.7803 12.5299C20.921 12.3892 21 12.1984 21 11.9995C21 11.8006 20.921 11.6099 20.7803 11.4692C20.6397 11.3285 20.4489 11.2495 20.25 11.2495H5.51599L11.767 5.29453C11.9052 5.15609 11.9838 4.96913 11.9862 4.77353C11.9885 4.57792 11.9143 4.38916 11.7794 4.24748C11.6445 4.10581 11.4596 4.02245 11.2641 4.01517C11.0686 4.00789 10.878 4.07728 10.733 4.20853L3.31299 11.2755C3.15059 11.4296 3.0449 11.634 3.01299 11.8555C2.99469 11.951 2.99503 12.0492 3.01399 12.1445C3.04611 12.3657 3.15179 12.5697 3.31399 12.7235L10.733 19.7895Z" fill="black"/>
</svg>

