<svg width="355" height="826" viewBox="0 0 355 826" fill="none" xmlns="http://www.w3.org/2000/svg">
<rect x="176.5" y="102.5" width="178" height="73" rx="15.5" fill="#F6F6F6"/>
<path d="M195.536 125H193.232V113.8H195.536V117.992H200.592V113.8H202.88V125H200.592V120.088H195.536V125ZM209.133 125.208C207.885 125.208 206.834 124.824 205.981 124.056C205.128 123.288 204.701 122.269 204.701 121C204.701 119.816 205.085 118.824 205.853 118.024C206.621 117.213 207.624 116.808 208.861 116.808C210.013 116.808 210.936 117.219 211.629 118.04C212.322 118.861 212.669 119.859 212.669 121.032V121.624H206.941C207.058 122.157 207.352 122.568 207.821 122.856C208.301 123.144 208.898 123.288 209.613 123.288C210.498 123.288 211.352 123.053 212.173 122.584V124.392C211.458 124.936 210.445 125.208 209.133 125.208ZM206.941 120.184H210.445C210.424 119.725 210.258 119.347 209.949 119.048C209.65 118.739 209.256 118.584 208.765 118.584C208.264 118.584 207.848 118.733 207.517 119.032C207.186 119.32 206.994 119.704 206.941 120.184ZM216.513 125H214.401V117.016H216.625V121.72L220.241 117.016H222.353V125H220.129V120.296L216.513 125ZM218.369 116.136C217.516 116.136 216.822 115.891 216.289 115.4C215.756 114.899 215.484 114.232 215.473 113.4H217.169C217.169 113.752 217.276 114.035 217.489 114.248C217.702 114.461 217.99 114.568 218.353 114.568C218.716 114.568 218.998 114.461 219.201 114.248C219.414 114.035 219.526 113.752 219.537 113.4H221.249C221.238 114.243 220.961 114.909 220.417 115.4C219.884 115.891 219.201 116.136 218.369 116.136ZM229.437 116.808C230.525 116.808 231.421 117.213 232.125 118.024C232.84 118.813 233.197 119.811 233.197 121.016C233.197 122.2 232.84 123.197 232.125 124.008C231.421 124.808 230.525 125.208 229.437 125.208C228.317 125.208 227.442 124.813 226.813 124.024V128.2H224.557V117.016H226.813V117.992C227.41 117.203 228.285 116.808 229.437 116.808ZM228.797 118.776C228.37 118.776 227.981 118.888 227.629 119.112C227.277 119.336 227.005 119.624 226.813 119.976V122.056C227.005 122.408 227.277 122.696 227.629 122.92C227.981 123.133 228.37 123.24 228.797 123.24C229.437 123.24 229.954 123.027 230.349 122.6C230.754 122.163 230.957 121.635 230.957 121.016C230.957 120.387 230.754 119.853 230.349 119.416C229.954 118.989 229.437 118.776 228.797 118.776ZM236.55 121C236.55 121.64 236.758 122.173 237.174 122.6C237.59 123.027 238.118 123.24 238.758 123.24C239.398 123.24 239.926 123.027 240.342 122.6C240.758 122.163 240.966 121.629 240.966 121C240.966 120.36 240.758 119.832 240.342 119.416C239.926 118.989 239.398 118.776 238.758 118.776C238.118 118.776 237.59 118.989 237.174 119.416C236.758 119.832 236.55 120.36 236.55 121ZM234.326 121C234.326 119.816 234.742 118.824 235.574 118.024C236.395 117.213 237.457 116.808 238.758 116.808C240.059 116.808 241.121 117.213 241.942 118.024C242.774 118.835 243.19 119.827 243.19 121C243.19 122.195 242.774 123.197 241.942 124.008C241.11 124.808 240.049 125.208 238.758 125.208C237.467 125.208 236.406 124.808 235.574 124.008C234.742 123.197 234.326 122.195 234.326 121ZM248.662 125.208C247.478 125.208 246.459 124.824 245.606 124.056C244.753 123.267 244.326 122.243 244.326 120.984C244.326 119.725 244.753 118.717 245.606 117.96C246.47 117.192 247.499 116.808 248.694 116.808C249.569 116.808 250.358 116.984 251.062 117.336V119.256C250.369 118.936 249.691 118.776 249.03 118.776C248.326 118.776 247.734 118.984 247.254 119.4C246.785 119.805 246.55 120.339 246.55 121C246.55 121.661 246.79 122.2 247.27 122.616C247.75 123.032 248.337 123.24 249.03 123.24C249.851 123.24 250.571 123.059 251.19 122.696V124.616C250.443 125.011 249.601 125.208 248.662 125.208ZM256.852 125.208C255.604 125.208 254.553 124.824 253.7 124.056C252.846 123.288 252.42 122.269 252.42 121C252.42 119.816 252.804 118.824 253.572 118.024C254.34 117.213 255.342 116.808 256.58 116.808C257.732 116.808 258.654 117.219 259.348 118.04C260.041 118.861 260.388 119.859 260.388 121.032V121.624H254.66C254.777 122.157 255.07 122.568 255.54 122.856C256.02 123.144 256.617 123.288 257.332 123.288C258.217 123.288 259.07 123.053 259.892 122.584V124.392C259.177 124.936 258.164 125.208 256.852 125.208ZM254.66 120.184H258.164C258.142 119.725 257.977 119.347 257.668 119.048C257.369 118.739 256.974 118.584 256.484 118.584C255.982 118.584 255.566 118.733 255.236 119.032C254.905 119.32 254.713 119.704 254.66 120.184ZM266.008 125H263.752V118.904H261.256V117.016H268.536V118.904H266.008V125ZM274.158 125H269.87V117.016H272.126V119.352H274.046C275.048 119.352 275.848 119.608 276.446 120.12C277.043 120.632 277.342 121.315 277.342 122.168C277.342 122.979 277.064 123.656 276.51 124.2C275.944 124.733 275.16 125 274.158 125ZM272.126 121.032V123.256H273.694C274.131 123.256 274.472 123.16 274.718 122.968C274.963 122.776 275.086 122.504 275.086 122.152C275.086 121.8 274.963 121.528 274.718 121.336C274.472 121.133 274.131 121.032 273.694 121.032H272.126ZM284.464 127.032H282.304V123.112H283.328C283.936 122.163 284.256 120.648 284.288 118.568L284.32 117.016H291.04V123.112H292.352V127.032H290.224V125H284.464V127.032ZM285.632 123.112H288.832V118.904H286.336C286.336 120.557 286.102 121.96 285.632 123.112ZM299.565 118.904H297.101L297.069 120.024C297.016 121.208 296.893 122.141 296.701 122.824C296.498 123.539 296.178 124.088 295.741 124.472C295.314 124.845 294.722 125.043 293.965 125.064C293.57 125.064 293.288 125.016 293.117 124.92V123.08C293.234 123.123 293.389 123.144 293.581 123.144C294.104 123.144 294.45 122.803 294.621 122.12C294.781 121.512 294.866 120.595 294.877 119.368L294.925 117.016H301.821V125H299.565V118.904ZM305.85 125H303.322L305.466 121.96C304.41 121.576 303.882 120.792 303.882 119.608C303.882 118.829 304.149 118.205 304.682 117.736C305.226 117.256 306.005 117.016 307.018 117.016H311.306V125H309.05V122.36H307.69L305.85 125ZM307.386 120.728H309.05V118.776H307.386C307.013 118.776 306.719 118.861 306.506 119.032C306.293 119.203 306.186 119.443 306.186 119.752C306.186 120.061 306.293 120.301 306.506 120.472C306.719 120.643 307.013 120.728 307.386 120.728ZM195.36 143H193.104V135.016H200.8V143H198.544V136.904H195.36V143ZM207.89 134.808C208.978 134.808 209.874 135.213 210.578 136.024C211.293 136.813 211.65 137.811 211.65 139.016C211.65 140.2 211.293 141.197 210.578 142.008C209.874 142.808 208.978 143.208 207.89 143.208C206.77 143.208 205.896 142.813 205.266 142.024V146.2H203.01V135.016H205.266V135.992C205.864 135.203 206.738 134.808 207.89 134.808ZM207.25 136.776C206.824 136.776 206.434 136.888 206.082 137.112C205.73 137.336 205.458 137.624 205.266 137.976V140.056C205.458 140.408 205.73 140.696 206.082 140.92C206.434 141.133 206.824 141.24 207.25 141.24C207.89 141.24 208.408 141.027 208.802 140.6C209.208 140.163 209.41 139.635 209.41 139.016C209.41 138.387 209.208 137.853 208.802 137.416C208.408 136.989 207.89 136.776 207.25 136.776ZM217.211 143.208C215.963 143.208 214.912 142.824 214.059 142.056C213.206 141.288 212.779 140.269 212.779 139C212.779 137.816 213.163 136.824 213.931 136.024C214.699 135.213 215.702 134.808 216.939 134.808C218.091 134.808 219.014 135.219 219.707 136.04C220.4 136.861 220.747 137.859 220.747 139.032V139.624H215.019C215.136 140.157 215.43 140.568 215.899 140.856C216.379 141.144 216.976 141.288 217.691 141.288C218.576 141.288 219.43 141.053 220.251 140.584V142.392C219.536 142.936 218.523 143.208 217.211 143.208ZM215.019 138.184H218.523C218.502 137.725 218.336 137.347 218.027 137.048C217.728 136.739 217.334 136.584 216.843 136.584C216.342 136.584 215.926 136.733 215.595 137.032C215.264 137.32 215.072 137.704 215.019 138.184ZM223.855 145.032H221.695V141.112H222.719C223.327 140.163 223.647 138.648 223.679 136.568L223.711 135.016H230.431V141.112H231.743V145.032H229.615V143H223.855V145.032ZM225.023 141.112H228.223V136.904H225.727C225.727 138.557 225.492 139.96 225.023 141.112ZM237.1 143.208C235.916 143.208 234.897 142.824 234.044 142.056C233.19 141.267 232.764 140.243 232.764 138.984C232.764 137.725 233.19 136.717 234.044 135.96C234.908 135.192 235.937 134.808 237.132 134.808C238.006 134.808 238.796 134.984 239.5 135.336V137.256C238.806 136.936 238.129 136.776 237.468 136.776C236.764 136.776 236.172 136.984 235.692 137.4C235.222 137.805 234.988 138.339 234.988 139C234.988 139.661 235.228 140.2 235.708 140.616C236.188 141.032 236.774 141.24 237.468 141.24C238.289 141.24 239.009 141.059 239.628 140.696V142.616C238.881 143.011 238.038 143.208 237.1 143.208ZM243.798 143H241.542V135.016H243.798V137.928L246.55 135.016H249.318L245.846 138.616L249.862 143H246.95L243.798 139.56V143ZM258.563 141.256C258.755 141.256 258.91 141.224 259.027 141.16V142.808C258.739 143.032 258.334 143.144 257.811 143.144C256.905 143.144 256.302 142.803 256.003 142.12C255.299 142.845 254.382 143.208 253.251 143.208C252.377 143.208 251.667 142.963 251.123 142.472C250.579 141.981 250.307 141.336 250.307 140.536C250.307 139.683 250.617 139.032 251.235 138.584C251.854 138.136 252.595 137.912 253.459 137.912C254.366 137.912 255.134 138.077 255.763 138.408V138.168C255.763 137.165 255.059 136.664 253.651 136.664C252.787 136.664 251.982 136.888 251.235 137.336V135.448C252.046 135.021 253.033 134.808 254.195 134.808C255.347 134.808 256.265 135.085 256.947 135.64C257.651 136.195 258.003 136.963 258.003 137.944V140.648C258.003 141.053 258.19 141.256 258.563 141.256ZM255.763 140.648V139.848C255.294 139.539 254.739 139.384 254.099 139.384C253.619 139.384 253.235 139.475 252.947 139.656C252.67 139.837 252.531 140.093 252.531 140.424C252.531 140.765 252.659 141.027 252.915 141.208C253.171 141.379 253.518 141.464 253.955 141.464C254.745 141.464 255.347 141.192 255.763 140.648ZM263.388 143.208C262.151 143.208 261.116 143.005 260.284 142.6V140.776C261.106 141.203 262.034 141.416 263.068 141.416C263.676 141.416 264.146 141.336 264.476 141.176C264.818 141.016 264.988 140.787 264.988 140.488C264.988 139.965 264.519 139.704 263.58 139.704H262.012V138.072H263.58C264.348 138.072 264.732 137.837 264.732 137.368C264.732 136.856 264.188 136.6 263.1 136.6C262.108 136.6 261.244 136.781 260.508 137.144V135.384C261.33 135 262.359 134.808 263.596 134.808C264.567 134.808 265.383 135.016 266.044 135.432C266.706 135.848 267.036 136.371 267.036 137C267.036 137.885 266.652 138.456 265.884 138.712C266.322 138.851 266.674 139.085 266.94 139.416C267.218 139.736 267.356 140.136 267.356 140.616C267.356 141.373 266.988 141.997 266.252 142.488C265.538 142.968 264.583 143.208 263.388 143.208ZM276.704 141.256C276.896 141.256 277.051 141.224 277.168 141.16V142.808C276.88 143.032 276.475 143.144 275.952 143.144C275.045 143.144 274.443 142.803 274.144 142.12C273.44 142.845 272.523 143.208 271.392 143.208C270.517 143.208 269.808 142.963 269.264 142.472C268.72 141.981 268.448 141.336 268.448 140.536C268.448 139.683 268.757 139.032 269.376 138.584C269.995 138.136 270.736 137.912 271.6 137.912C272.507 137.912 273.275 138.077 273.904 138.408V138.168C273.904 137.165 273.2 136.664 271.792 136.664C270.928 136.664 270.123 136.888 269.376 137.336V135.448C270.187 135.021 271.173 134.808 272.336 134.808C273.488 134.808 274.405 135.085 275.088 135.64C275.792 136.195 276.144 136.963 276.144 137.944V140.648C276.144 141.053 276.331 141.256 276.704 141.256ZM273.904 140.648V139.848C273.435 139.539 272.88 139.384 272.24 139.384C271.76 139.384 271.376 139.475 271.088 139.656C270.811 139.837 270.672 140.093 270.672 140.424C270.672 140.765 270.8 141.027 271.056 141.208C271.312 141.379 271.659 141.464 272.096 141.464C272.885 141.464 273.488 141.192 273.904 140.648ZM280.985 143H278.729V135.016H280.985V137.976H284.265V135.016H286.521V143H284.265V139.864H280.985V143ZM290.841 143H288.729V135.016H290.953V139.72L294.569 135.016H296.681V143H294.457V138.296L290.841 143ZM300.709 143H298.181L300.325 139.96C299.269 139.576 298.741 138.792 298.741 137.608C298.741 136.829 299.008 136.205 299.541 135.736C300.085 135.256 300.864 135.016 301.877 135.016H306.165V143H303.909V140.36H302.549L300.709 143ZM302.245 138.728H303.909V136.776H302.245C301.872 136.776 301.579 136.861 301.365 137.032C301.152 137.203 301.045 137.443 301.045 137.752C301.045 138.061 301.152 138.301 301.365 138.472C301.579 138.643 301.872 138.728 302.245 138.728ZM202.144 163.032H199.968V161H193.104V153.016H195.36V159.112H198.576V153.016H200.832V159.112H202.144V163.032ZM207.602 161.208C206.354 161.208 205.303 160.824 204.45 160.056C203.596 159.288 203.17 158.269 203.17 157C203.17 155.816 203.554 154.824 204.322 154.024C205.09 153.213 206.092 152.808 207.33 152.808C208.482 152.808 209.404 153.219 210.098 154.04C210.791 154.861 211.138 155.859 211.138 157.032V157.624H205.41C205.527 158.157 205.82 158.568 206.29 158.856C206.77 159.144 207.367 159.288 208.082 159.288C208.967 159.288 209.82 159.053 210.642 158.584V160.392C209.927 160.936 208.914 161.208 207.602 161.208ZM205.41 156.184H208.914C208.892 155.725 208.727 155.347 208.418 155.048C208.119 154.739 207.724 154.584 207.234 154.584C206.732 154.584 206.316 154.733 205.986 155.032C205.655 155.32 205.463 155.704 205.41 156.184ZM215.126 161H212.87V153.016H215.126V155.976H218.406V153.016H220.662V161H218.406V157.864H215.126V161ZM224.566 157C224.566 157.64 224.774 158.173 225.19 158.6C225.606 159.027 226.134 159.24 226.774 159.24C227.414 159.24 227.942 159.027 228.358 158.6C228.774 158.163 228.982 157.629 228.982 157C228.982 156.36 228.774 155.832 228.358 155.416C227.942 154.989 227.414 154.776 226.774 154.776C226.134 154.776 225.606 154.989 225.19 155.416C224.774 155.832 224.566 156.36 224.566 157ZM222.342 157C222.342 155.816 222.758 154.824 223.59 154.024C224.411 153.213 225.472 152.808 226.774 152.808C228.075 152.808 229.136 153.213 229.958 154.024C230.79 154.835 231.206 155.827 231.206 157C231.206 158.195 230.79 159.197 229.958 160.008C229.126 160.808 228.064 161.208 226.774 161.208C225.483 161.208 224.422 160.808 223.59 160.008C222.758 159.197 222.342 158.195 222.342 157ZM234.566 157C234.566 157.64 234.774 158.173 235.19 158.6C235.606 159.027 236.134 159.24 236.774 159.24C237.414 159.24 237.942 159.027 238.358 158.6C238.774 158.163 238.982 157.629 238.982 157C238.982 156.36 238.774 155.832 238.358 155.416C237.942 154.989 237.414 154.776 236.774 154.776C236.134 154.776 235.606 154.989 235.19 155.416C234.774 155.832 234.566 156.36 234.566 157ZM232.342 157C232.342 155.816 232.758 154.824 233.59 154.024C234.411 153.213 235.472 152.808 236.774 152.808C238.075 152.808 239.136 153.213 239.958 154.024C240.79 154.835 241.206 155.827 241.206 157C241.206 158.195 240.79 159.197 239.958 160.008C239.126 160.808 238.064 161.208 236.774 161.208C235.483 161.208 234.422 160.808 233.59 160.008C232.758 159.197 232.342 158.195 232.342 157ZM247.414 153.528C248.459 153.528 249.307 153.853 249.958 154.504C250.619 155.165 250.95 156.029 250.95 157.096C250.95 158.301 250.55 159.288 249.75 160.056C248.971 160.824 247.979 161.208 246.774 161.208C245.355 161.208 244.272 160.739 243.526 159.8C242.768 158.851 242.39 157.587 242.39 156.008C242.39 154.931 242.539 154.029 242.838 153.304C243.136 152.568 243.616 151.96 244.278 151.48C244.96 150.979 245.739 150.584 246.614 150.296C247.478 149.997 248.614 149.736 250.022 149.512V151.608L249.174 151.752L248.342 151.896C248.118 151.939 247.867 151.992 247.59 152.056C247.174 152.141 246.72 152.275 246.23 152.456C245.888 152.584 245.542 152.808 245.19 153.128C244.752 153.512 244.502 154.099 244.438 154.888C245.152 153.981 246.144 153.528 247.414 153.528ZM246.758 159.304C247.334 159.304 247.803 159.112 248.166 158.728C248.539 158.344 248.726 157.853 248.726 157.256C248.726 156.691 248.55 156.243 248.198 155.912C247.846 155.571 247.392 155.4 246.838 155.4C246.4 155.4 245.974 155.517 245.558 155.752C245.142 155.976 244.822 156.264 244.598 156.616C244.608 157.48 244.8 158.147 245.174 158.616C245.558 159.075 246.086 159.304 246.758 159.304ZM257.5 152.808C258.588 152.808 259.484 153.213 260.188 154.024C260.902 154.813 261.26 155.811 261.26 157.016C261.26 158.2 260.902 159.197 260.188 160.008C259.484 160.808 258.588 161.208 257.5 161.208C256.38 161.208 255.505 160.813 254.876 160.024V164.2H252.62V153.016H254.876V153.992C255.473 153.203 256.348 152.808 257.5 152.808ZM256.86 154.776C256.433 154.776 256.044 154.888 255.692 155.112C255.34 155.336 255.068 155.624 254.876 155.976V158.056C255.068 158.408 255.34 158.696 255.692 158.92C256.044 159.133 256.433 159.24 256.86 159.24C257.5 159.24 258.017 159.027 258.412 158.6C258.817 158.163 259.02 157.635 259.02 157.016C259.02 156.387 258.817 155.853 258.412 155.416C258.017 154.989 257.5 154.776 256.86 154.776ZM270.517 159.256C270.709 159.256 270.863 159.224 270.981 159.16V160.808C270.693 161.032 270.287 161.144 269.765 161.144C268.858 161.144 268.255 160.803 267.957 160.12C267.253 160.845 266.335 161.208 265.205 161.208C264.33 161.208 263.621 160.963 263.077 160.472C262.533 159.981 262.261 159.336 262.261 158.536C262.261 157.683 262.57 157.032 263.189 156.584C263.807 156.136 264.549 155.912 265.413 155.912C266.319 155.912 267.087 156.077 267.717 156.408V156.168C267.717 155.165 267.013 154.664 265.605 154.664C264.741 154.664 263.935 154.888 263.189 155.336V153.448C263.999 153.021 264.986 152.808 266.149 152.808C267.301 152.808 268.218 153.085 268.901 153.64C269.605 154.195 269.957 154.963 269.957 155.944V158.648C269.957 159.053 270.143 159.256 270.517 159.256ZM267.717 158.648V157.848C267.247 157.539 266.693 157.384 266.053 157.384C265.573 157.384 265.189 157.475 264.901 157.656C264.623 157.837 264.485 158.093 264.485 158.424C264.485 158.765 264.613 159.027 264.869 159.208C265.125 159.379 265.471 159.464 265.909 159.464C266.698 159.464 267.301 159.192 267.717 158.648ZM275.342 161.208C274.104 161.208 273.07 161.005 272.238 160.6V158.776C273.059 159.203 273.987 159.416 275.022 159.416C275.63 159.416 276.099 159.336 276.43 159.176C276.771 159.016 276.942 158.787 276.942 158.488C276.942 157.965 276.472 157.704 275.534 157.704H273.966V156.072H275.534C276.302 156.072 276.686 155.837 276.686 155.368C276.686 154.856 276.142 154.6 275.054 154.6C274.062 154.6 273.198 154.781 272.462 155.144V153.384C273.283 153 274.312 152.808 275.549 152.808C276.52 152.808 277.336 153.016 277.998 153.432C278.659 153.848 278.99 154.371 278.99 155C278.99 155.885 278.606 156.456 277.838 156.712C278.275 156.851 278.627 157.085 278.894 157.416C279.171 157.736 279.31 158.136 279.31 158.616C279.31 159.373 278.942 159.997 278.206 160.488C277.491 160.968 276.536 161.208 275.342 161.208ZM282.753 157C282.753 157.64 282.961 158.173 283.377 158.6C283.793 159.027 284.321 159.24 284.961 159.24C285.601 159.24 286.129 159.027 286.545 158.6C286.961 158.163 287.169 157.629 287.169 157C287.169 156.36 286.961 155.832 286.545 155.416C286.129 154.989 285.601 154.776 284.961 154.776C284.321 154.776 283.793 154.989 283.377 155.416C282.961 155.832 282.753 156.36 282.753 157ZM280.529 157C280.529 155.816 280.945 154.824 281.777 154.024C282.598 153.213 283.66 152.808 284.961 152.808C286.262 152.808 287.324 153.213 288.145 154.024C288.977 154.835 289.393 155.827 289.393 157C289.393 158.195 288.977 159.197 288.145 160.008C287.313 160.808 286.252 161.208 284.961 161.208C283.67 161.208 282.609 160.808 281.777 160.008C280.945 159.197 280.529 158.195 280.529 157ZM295.761 161H291.057V153.016H295.569C296.38 153.016 297.009 153.208 297.457 153.592C297.905 153.965 298.129 154.456 298.129 155.064C298.129 155.864 297.804 156.429 297.153 156.76C298.166 157.112 298.673 157.795 298.673 158.808C298.673 159.491 298.417 160.029 297.905 160.424C297.393 160.808 296.678 161 295.761 161ZM293.281 157.624V159.416H295.201C295.98 159.416 296.369 159.117 296.369 158.52C296.369 157.923 295.98 157.624 295.201 157.624H293.281ZM293.281 154.568V156.2H294.849C295.564 156.2 295.921 155.928 295.921 155.384C295.921 154.84 295.564 154.568 294.849 154.568H293.281ZM308.017 159.256C308.209 159.256 308.363 159.224 308.481 159.16V160.808C308.193 161.032 307.787 161.144 307.265 161.144C306.358 161.144 305.755 160.803 305.457 160.12C304.753 160.845 303.835 161.208 302.705 161.208C301.83 161.208 301.121 160.963 300.577 160.472C300.033 159.981 299.761 159.336 299.761 158.536C299.761 157.683 300.07 157.032 300.689 156.584C301.307 156.136 302.049 155.912 302.913 155.912C303.819 155.912 304.587 156.077 305.217 156.408V156.168C305.217 155.165 304.513 154.664 303.105 154.664C302.241 154.664 301.435 154.888 300.689 155.336V153.448C301.499 153.021 302.486 152.808 303.649 152.808C304.801 152.808 305.718 153.085 306.401 153.64C307.105 154.195 307.457 154.963 307.457 155.944V158.648C307.457 159.053 307.643 159.256 308.017 159.256ZM305.217 158.648V157.848C304.747 157.539 304.193 157.384 303.553 157.384C303.073 157.384 302.689 157.475 302.401 157.656C302.123 157.837 301.985 158.093 301.985 158.424C301.985 158.765 302.113 159.027 302.369 159.208C302.625 159.379 302.971 159.464 303.409 159.464C304.198 159.464 304.801 159.192 305.217 158.648ZM312.298 161H310.042V153.016H312.298V155.976H315.578V153.016H317.834V161H315.578V157.864H312.298V161ZM322.154 161H320.042V153.016H322.266V157.72L325.882 153.016H327.994V161H325.77V156.296L322.154 161ZM332.022 161H329.494L331.638 157.96C330.582 157.576 330.054 156.792 330.054 155.608C330.054 154.829 330.32 154.205 330.854 153.736C331.398 153.256 332.176 153.016 333.19 153.016H337.478V161H335.222V158.36H333.862L332.022 161ZM333.558 156.728H335.222V154.776H333.558C333.184 154.776 332.891 154.861 332.678 155.032C332.464 155.203 332.358 155.443 332.358 155.752C332.358 156.061 332.464 156.301 332.678 156.472C332.891 156.643 333.184 156.728 333.558 156.728Z" fill="#232324"/>
<rect x="176.5" y="102.5" width="178" height="73" rx="15.5" stroke="url(#paint0_linear_1522_591)"/>
<rect x="0.5" y="0.5" width="191" height="73" rx="15.5" fill="#F6F6F6"/>
<path d="M19.536 23H17.232V11.8H19.536V15.992H24.592V11.8H26.88V23H24.592V18.088H19.536V23ZM33.133 23.208C31.885 23.208 30.8343 22.824 29.981 22.056C29.1277 21.288 28.701 20.2693 28.701 19C28.701 17.816 29.085 16.824 29.853 16.024C30.621 15.2133 31.6237 14.808 32.861 14.808C34.013 14.808 34.9357 15.2187 35.629 16.04C36.3223 16.8613 36.669 17.8587 36.669 19.032V19.624H30.941C31.0583 20.1573 31.3517 20.568 31.821 20.856C32.301 21.144 32.8983 21.288 33.613 21.288C34.4983 21.288 35.3517 21.0533 36.173 20.584V22.392C35.4583 22.936 34.445 23.208 33.133 23.208ZM30.941 18.184H34.445C34.4237 17.7253 34.2583 17.3467 33.949 17.048C33.6503 16.7387 33.2557 16.584 32.765 16.584C32.2637 16.584 31.8477 16.7333 31.517 17.032C31.1863 17.32 30.9943 17.704 30.941 18.184ZM40.5129 23H38.4009V15.016H40.6249V19.72L44.2409 15.016H46.3529V23H44.1289V18.296L40.5129 23ZM42.3689 14.136C41.5155 14.136 40.8222 13.8907 40.2889 13.4C39.7555 12.8987 39.4835 12.232 39.4729 11.4H41.1689C41.1689 11.752 41.2755 12.0347 41.4889 12.248C41.7022 12.4613 41.9902 12.568 42.3529 12.568C42.7155 12.568 42.9982 12.4613 43.2009 12.248C43.4142 12.0347 43.5262 11.752 43.5369 11.4H45.2489C45.2382 12.2427 44.9609 12.9093 44.4169 13.4C43.8835 13.8907 43.2009 14.136 42.3689 14.136ZM53.4371 14.808C54.5251 14.808 55.4211 15.2133 56.1251 16.024C56.8398 16.8133 57.1971 17.8107 57.1971 19.016C57.1971 20.2 56.8398 21.1973 56.1251 22.008C55.4211 22.808 54.5251 23.208 53.4371 23.208C52.3171 23.208 51.4425 22.8133 50.8131 22.024V26.2H48.5571V15.016H50.8131V15.992C51.4105 15.2027 52.2851 14.808 53.4371 14.808ZM52.7971 16.776C52.3705 16.776 51.9811 16.888 51.6291 17.112C51.2771 17.336 51.0051 17.624 50.8131 17.976V20.056C51.0051 20.408 51.2771 20.696 51.6291 20.92C51.9811 21.1333 52.3705 21.24 52.7971 21.24C53.4371 21.24 53.9545 21.0267 54.3491 20.6C54.7545 20.1627 54.9571 19.6347 54.9571 19.016C54.9571 18.3867 54.7545 17.8533 54.3491 17.416C53.9545 16.9893 53.4371 16.776 52.7971 16.776ZM60.55 19C60.55 19.64 60.758 20.1733 61.174 20.6C61.59 21.0267 62.118 21.24 62.758 21.24C63.398 21.24 63.926 21.0267 64.342 20.6C64.758 20.1627 64.966 19.6293 64.966 19C64.966 18.36 64.758 17.832 64.342 17.416C63.926 16.9893 63.398 16.776 62.758 16.776C62.118 16.776 61.59 16.9893 61.174 17.416C60.758 17.832 60.55 18.36 60.55 19ZM58.326 19C58.326 17.816 58.742 16.824 59.574 16.024C60.3953 15.2133 61.4567 14.808 62.758 14.808C64.0593 14.808 65.1207 15.2133 65.942 16.024C66.774 16.8347 67.19 17.8267 67.19 19C67.19 20.1947 66.774 21.1973 65.942 22.008C65.11 22.808 64.0487 23.208 62.758 23.208C61.4673 23.208 60.406 22.808 59.574 22.008C58.742 21.1973 58.326 20.1947 58.326 19ZM72.662 23.208C71.478 23.208 70.4593 22.824 69.606 22.056C68.7527 21.2667 68.326 20.2427 68.326 18.984C68.326 17.7253 68.7527 16.7173 69.606 15.96C70.47 15.192 71.4993 14.808 72.694 14.808C73.5687 14.808 74.358 14.984 75.062 15.336V17.256C74.3687 16.936 73.6913 16.776 73.03 16.776C72.326 16.776 71.734 16.984 71.254 17.4C70.7847 17.8053 70.55 18.3387 70.55 19C70.55 19.6613 70.79 20.2 71.27 20.616C71.75 21.032 72.3367 21.24 73.03 21.24C73.8513 21.24 74.5713 21.0587 75.19 20.696V22.616C74.4433 23.0107 73.6007 23.208 72.662 23.208ZM80.8518 23.208C79.6038 23.208 78.5531 22.824 77.6998 22.056C76.8464 21.288 76.4198 20.2693 76.4198 19C76.4198 17.816 76.8038 16.824 77.5718 16.024C78.3398 15.2133 79.3424 14.808 80.5798 14.808C81.7318 14.808 82.6544 15.2187 83.3478 16.04C84.0411 16.8613 84.3878 17.8587 84.3878 19.032V19.624H78.6598C78.7771 20.1573 79.0704 20.568 79.5398 20.856C80.0198 21.144 80.6171 21.288 81.3318 21.288C82.2171 21.288 83.0704 21.0533 83.8918 20.584V22.392C83.1771 22.936 82.1638 23.208 80.8518 23.208ZM78.6598 18.184H82.1638C82.1424 17.7253 81.9771 17.3467 81.6678 17.048C81.3691 16.7387 80.9744 16.584 80.4838 16.584C79.9824 16.584 79.5664 16.7333 79.2358 17.032C78.9051 17.32 78.7131 17.704 78.6598 18.184ZM90.0076 23H87.7516V16.904H85.2556V15.016H92.5356V16.904H90.0076V23ZM98.1576 23H93.8696V15.016H96.1256V17.352H98.0456C99.0483 17.352 99.8483 17.608 100.446 18.12C101.043 18.632 101.342 19.3147 101.342 20.168C101.342 20.9787 101.064 21.656 100.51 22.2C99.9443 22.7333 99.1603 23 98.1576 23ZM96.1256 19.032V21.256H97.6936C98.131 21.256 98.4723 21.16 98.7176 20.968C98.963 20.776 99.0856 20.504 99.0856 20.152C99.0856 19.8 98.963 19.528 98.7176 19.336C98.4723 19.1333 98.131 19.032 97.6936 19.032H96.1256ZM108.464 25.032H106.304V21.112H107.328C107.936 20.1627 108.256 18.648 108.288 16.568L108.32 15.016H115.04V21.112H116.352V25.032H114.224V23H108.464V25.032ZM109.632 21.112H112.832V16.904H110.336C110.336 18.5573 110.102 19.96 109.632 21.112ZM123.565 16.904H121.101L121.069 18.024C121.016 19.208 120.893 20.1413 120.701 20.824C120.498 21.5387 120.178 22.088 119.741 22.472C119.314 22.8453 118.722 23.0427 117.965 23.064C117.57 23.064 117.288 23.016 117.117 22.92V21.08C117.234 21.1227 117.389 21.144 117.581 21.144C118.104 21.144 118.45 20.8027 118.621 20.12C118.781 19.512 118.866 18.5947 118.877 17.368L118.925 15.016H125.821V23H123.565V16.904ZM129.85 23H127.322L129.466 19.96C128.41 19.576 127.882 18.792 127.882 17.608C127.882 16.8293 128.149 16.2053 128.682 15.736C129.226 15.256 130.005 15.016 131.018 15.016H135.306V23H133.05V20.36H131.69L129.85 23ZM131.386 18.728H133.05V16.776H131.386C131.013 16.776 130.719 16.8613 130.506 17.032C130.293 17.2027 130.186 17.4427 130.186 17.752C130.186 18.0613 130.293 18.3013 130.506 18.472C130.719 18.6427 131.013 18.728 131.386 18.728ZM19.36 41H17.104V33.016H24.8V41H22.544V34.904H19.36V41ZM28.7063 37C28.7063 37.64 28.9143 38.1733 29.3303 38.6C29.7463 39.0267 30.2743 39.24 30.9143 39.24C31.5543 39.24 32.0823 39.0267 32.4983 38.6C32.9143 38.1627 33.1223 37.6293 33.1223 37C33.1223 36.36 32.9143 35.832 32.4983 35.416C32.0823 34.9893 31.5543 34.776 30.9143 34.776C30.2743 34.776 29.7463 34.9893 29.3303 35.416C28.9143 35.832 28.7063 36.36 28.7063 37ZM26.4823 37C26.4823 35.816 26.8983 34.824 27.7303 34.024C28.5516 33.2133 29.6129 32.808 30.9143 32.808C32.2156 32.808 33.2769 33.2133 34.0983 34.024C34.9303 34.8347 35.3463 35.8267 35.3463 37C35.3463 38.1947 34.9303 39.1973 34.0983 40.008C33.2663 40.808 32.2049 41.208 30.9143 41.208C29.6236 41.208 28.5623 40.808 27.7303 40.008C26.8983 39.1973 26.4823 38.1947 26.4823 37ZM38.1988 43.032H36.0388V39.112H37.0628C37.6708 38.1627 37.9908 36.648 38.0228 34.568L38.0548 33.016H44.7748V39.112H46.0868V43.032H43.9588V41H38.1988V43.032ZM39.3668 39.112H42.5668V34.904H40.0708C40.0708 36.5573 39.8361 37.96 39.3668 39.112ZM52.1793 33.528C53.2246 33.528 54.0726 33.8533 54.7233 34.504C55.3846 35.1653 55.7153 36.0293 55.7153 37.096C55.7153 38.3013 55.3153 39.288 54.5153 40.056C53.7366 40.824 52.7446 41.208 51.5393 41.208C50.1206 41.208 49.0379 40.7387 48.2913 39.8C47.5339 38.8507 47.1553 37.5867 47.1553 36.008C47.1553 34.9307 47.3046 34.0293 47.6033 33.304C47.9019 32.568 48.3819 31.96 49.0433 31.48C49.7259 30.9787 50.5046 30.584 51.3793 30.296C52.2433 29.9973 53.3793 29.736 54.7873 29.512V31.608L53.9393 31.752L53.1073 31.896C52.8833 31.9387 52.6326 31.992 52.3553 32.056C51.9393 32.1413 51.4859 32.2747 50.9953 32.456C50.6539 32.584 50.3073 32.808 49.9553 33.128C49.5179 33.512 49.2673 34.0987 49.2033 34.888C49.9179 33.9813 50.9099 33.528 52.1793 33.528ZM51.5233 39.304C52.0993 39.304 52.5686 39.112 52.9313 38.728C53.3046 38.344 53.4913 37.8533 53.4913 37.256C53.4913 36.6907 53.3153 36.2427 52.9633 35.912C52.6113 35.5707 52.1579 35.4 51.6033 35.4C51.1659 35.4 50.7393 35.5173 50.3233 35.752C49.9073 35.976 49.5873 36.264 49.3633 36.616C49.3739 37.48 49.5659 38.1467 49.9393 38.616C50.3233 39.0747 50.8513 39.304 51.5233 39.304ZM59.0813 37C59.0813 37.64 59.2893 38.1733 59.7053 38.6C60.1213 39.0267 60.6493 39.24 61.2893 39.24C61.9293 39.24 62.4573 39.0267 62.8733 38.6C63.2893 38.1627 63.4973 37.6293 63.4973 37C63.4973 36.36 63.2893 35.832 62.8733 35.416C62.4573 34.9893 61.9293 34.776 61.2893 34.776C60.6493 34.776 60.1213 34.9893 59.7053 35.416C59.2893 35.832 59.0813 36.36 59.0813 37ZM56.8573 37C56.8573 35.816 57.2733 34.824 58.1053 34.024C58.9266 33.2133 59.9879 32.808 61.2893 32.808C62.5906 32.808 63.6519 33.2133 64.4733 34.024C65.3053 34.8347 65.7213 35.8267 65.7213 37C65.7213 38.1947 65.3053 39.1973 64.4733 40.008C63.6413 40.808 62.5799 41.208 61.2893 41.208C59.9986 41.208 58.9373 40.808 58.1053 40.008C57.2733 39.1973 56.8573 38.1947 56.8573 37ZM72.2653 32.808C73.3533 32.808 74.2493 33.2133 74.9533 34.024C75.6679 34.8133 76.0253 35.8107 76.0253 37.016C76.0253 38.2 75.6679 39.1973 74.9533 40.008C74.2493 40.808 73.3533 41.208 72.2653 41.208C71.1453 41.208 70.2706 40.8133 69.6413 40.024V44.2H67.3853V33.016H69.6413V33.992C70.2386 33.2027 71.1133 32.808 72.2653 32.808ZM71.6253 34.776C71.1986 34.776 70.8093 34.888 70.4573 35.112C70.1053 35.336 69.8333 35.624 69.6413 35.976V38.056C69.8333 38.408 70.1053 38.696 70.4573 38.92C70.8093 39.1333 71.1986 39.24 71.6253 39.24C72.2653 39.24 72.7826 39.0267 73.1773 38.6C73.5826 38.1627 73.7853 37.6347 73.7853 37.016C73.7853 36.3867 73.5826 35.8533 73.1773 35.416C72.7826 34.9893 72.2653 34.776 71.6253 34.776ZM85.2821 39.256C85.4741 39.256 85.6288 39.224 85.7461 39.16V40.808C85.4581 41.032 85.0528 41.144 84.5301 41.144C83.6235 41.144 83.0208 40.8027 82.7221 40.12C82.0181 40.8453 81.1008 41.208 79.9701 41.208C79.0955 41.208 78.3861 40.9627 77.8421 40.472C77.2981 39.9813 77.0261 39.336 77.0261 38.536C77.0261 37.6827 77.3355 37.032 77.9541 36.584C78.5728 36.136 79.3141 35.912 80.1781 35.912C81.0848 35.912 81.8528 36.0773 82.4821 36.408V36.168C82.4821 35.1653 81.7781 34.664 80.3701 34.664C79.5061 34.664 78.7008 34.888 77.9541 35.336V33.448C78.7648 33.0213 79.7515 32.808 80.9141 32.808C82.0661 32.808 82.9835 33.0853 83.6661 33.64C84.3701 34.1947 84.7221 34.9627 84.7221 35.944V38.648C84.7221 39.0533 84.9088 39.256 85.2821 39.256ZM82.4821 38.648V37.848C82.0128 37.5387 81.4581 37.384 80.8181 37.384C80.3381 37.384 79.9541 37.4747 79.6661 37.656C79.3888 37.8373 79.2501 38.0933 79.2501 38.424C79.2501 38.7653 79.3781 39.0267 79.6341 39.208C79.8901 39.3787 80.2368 39.464 80.6741 39.464C81.4635 39.464 82.0661 39.192 82.4821 38.648ZM96.1049 41H91.4009V33.016H95.9129C96.7235 33.016 97.3529 33.208 97.8009 33.592C98.2489 33.9653 98.4729 34.456 98.4729 35.064C98.4729 35.864 98.1475 36.4293 97.4969 36.76C98.5102 37.112 99.0169 37.7947 99.0169 38.808C99.0169 39.4907 98.7609 40.0293 98.2489 40.424C97.7369 40.808 97.0222 41 96.1049 41ZM93.6249 37.624V39.416H95.5449C96.3235 39.416 96.7129 39.1173 96.7129 38.52C96.7129 37.9227 96.3235 37.624 95.5449 37.624H93.6249ZM93.6249 34.568V36.2H95.1929C95.9075 36.2 96.2649 35.928 96.2649 35.384C96.2649 34.84 95.9075 34.568 95.1929 34.568H93.6249ZM111.128 41H108.904V33.016H111.128V41ZM104.76 41H100.76V33.016H103.016V35.352H104.648C105.651 35.352 106.451 35.608 107.048 36.12C107.646 36.632 107.944 37.3147 107.944 38.168C107.944 38.9787 107.667 39.656 107.112 40.2C106.547 40.7333 105.763 41 104.76 41ZM103.016 37.032V39.256H104.296C104.734 39.256 105.075 39.16 105.32 38.968C105.566 38.776 105.688 38.504 105.688 38.152C105.688 37.8 105.566 37.528 105.32 37.336C105.075 37.1333 104.734 37.032 104.296 37.032H103.016ZM115.594 41H113.338V33.016H119.674V34.904H115.594V41ZM122.675 37C122.675 37.64 122.883 38.1733 123.299 38.6C123.715 39.0267 124.243 39.24 124.883 39.24C125.523 39.24 126.051 39.0267 126.467 38.6C126.883 38.1627 127.091 37.6293 127.091 37C127.091 36.36 126.883 35.832 126.467 35.416C126.051 34.9893 125.523 34.776 124.883 34.776C124.243 34.776 123.715 34.9893 123.299 35.416C122.883 35.832 122.675 36.36 122.675 37ZM120.451 37C120.451 35.816 120.867 34.824 121.699 34.024C122.52 33.2133 123.582 32.808 124.883 32.808C126.184 32.808 127.246 33.2133 128.067 34.024C128.899 34.8347 129.315 35.8267 129.315 37C129.315 38.1947 128.899 39.1973 128.067 40.008C127.235 40.808 126.174 41.208 124.883 41.208C123.592 41.208 122.531 40.808 121.699 40.008C120.867 39.1973 120.451 38.1947 120.451 37ZM132.168 43.032H130.008V39.112H131.032C131.64 38.1627 131.96 36.648 131.992 34.568L132.024 33.016H138.744V39.112H140.056V43.032H137.928V41H132.168V43.032ZM133.336 39.112H136.536V34.904H134.04C134.04 36.5573 133.805 37.96 133.336 39.112ZM143.86 41H141.604V33.016H143.86V35.976H147.14V33.016H149.396V41H147.14V37.864H143.86V41ZM161.972 41H159.748V33.016H161.972V41ZM155.604 41H151.604V33.016H153.86V35.352H155.492C156.495 35.352 157.295 35.608 157.892 36.12C158.489 36.632 158.788 37.3147 158.788 38.168C158.788 38.9787 158.511 39.656 157.956 40.2C157.391 40.7333 156.607 41 155.604 41ZM153.86 37.032V39.256H155.14C155.577 39.256 155.919 39.16 156.164 38.968C156.409 38.776 156.532 38.504 156.532 38.152C156.532 37.8 156.409 37.528 156.164 37.336C155.919 37.1333 155.577 37.032 155.14 37.032H153.86ZM163.622 33.016H166.15L167.75 35.256L169.366 33.016H171.862L169.062 36.824L172.102 41H169.574L167.718 38.44L165.846 41H163.35L166.406 36.84L163.622 33.016ZM19.36 59H17.104V51.016H24.8V59H22.544V52.904H19.36V59ZM31.8903 50.808C32.9783 50.808 33.8743 51.2133 34.5783 52.024C35.2929 52.8133 35.6503 53.8107 35.6503 55.016C35.6503 56.2 35.2929 57.1973 34.5783 58.008C33.8743 58.808 32.9783 59.208 31.8903 59.208C30.7703 59.208 29.8956 58.8133 29.2663 58.024V62.2H27.0103V51.016H29.2663V51.992C29.8636 51.2027 30.7383 50.808 31.8903 50.808ZM31.2503 52.776C30.8236 52.776 30.4343 52.888 30.0823 53.112C29.7303 53.336 29.4583 53.624 29.2663 53.976V56.056C29.4583 56.408 29.7303 56.696 30.0823 56.92C30.4343 57.1333 30.8236 57.24 31.2503 57.24C31.8903 57.24 32.4076 57.0267 32.8023 56.6C33.2076 56.1627 33.4103 55.6347 33.4103 55.016C33.4103 54.3867 33.2076 53.8533 32.8023 53.416C32.4076 52.9893 31.8903 52.776 31.2503 52.776ZM41.2111 59.208C39.9631 59.208 38.9125 58.824 38.0591 58.056C37.2058 57.288 36.7791 56.2693 36.7791 55C36.7791 53.816 37.1631 52.824 37.9311 52.024C38.6991 51.2133 39.7018 50.808 40.9391 50.808C42.0911 50.808 43.0138 51.2187 43.7071 52.04C44.4005 52.8613 44.7471 53.8587 44.7471 55.032V55.624H39.0191C39.1365 56.1573 39.4298 56.568 39.8991 56.856C40.3791 57.144 40.9765 57.288 41.6911 57.288C42.5765 57.288 43.4298 57.0533 44.2511 56.584V58.392C43.5365 58.936 42.5231 59.208 41.2111 59.208ZM39.0191 54.184H42.5231C42.5018 53.7253 42.3365 53.3467 42.0271 53.048C41.7285 52.7387 41.3338 52.584 40.8431 52.584C40.3418 52.584 39.9258 52.7333 39.5951 53.032C39.2645 53.32 39.0725 53.704 39.0191 54.184ZM47.855 61.032H45.695V57.112H46.719C47.327 56.1627 47.647 54.648 47.679 52.568L47.711 51.016H54.431V57.112H55.743V61.032H53.615V59H47.855V61.032ZM49.023 57.112H52.223V52.904H49.727C49.727 54.5573 49.4923 55.96 49.023 57.112ZM62.9555 52.904H60.4915L60.4595 54.024C60.4062 55.208 60.2835 56.1413 60.0915 56.824C59.8888 57.5387 59.5688 58.088 59.1315 58.472C58.7048 58.8453 58.1128 59.0427 57.3555 59.064C56.9608 59.064 56.6782 59.016 56.5075 58.92V57.08C56.6248 57.1227 56.7795 57.144 56.9715 57.144C57.4942 57.144 57.8408 56.8027 58.0115 56.12C58.1715 55.512 58.2568 54.5947 58.2675 53.368L58.3155 51.016H65.2115V59H62.9555V52.904ZM69.1125 55C69.1125 55.64 69.3205 56.1733 69.7365 56.6C70.1525 57.0267 70.6805 57.24 71.3205 57.24C71.9605 57.24 72.4885 57.0267 72.9045 56.6C73.3205 56.1627 73.5285 55.6293 73.5285 55C73.5285 54.36 73.3205 53.832 72.9045 53.416C72.4885 52.9893 71.9605 52.776 71.3205 52.776C70.6805 52.776 70.1525 52.9893 69.7365 53.416C69.3205 53.832 69.1125 54.36 69.1125 55ZM66.8885 55C66.8885 53.816 67.3045 52.824 68.1365 52.024C68.9578 51.2133 70.0192 50.808 71.3205 50.808C72.6218 50.808 73.6832 51.2133 74.5045 52.024C75.3365 52.8347 75.7525 53.8267 75.7525 55C75.7525 56.1947 75.3365 57.1973 74.5045 58.008C73.6725 58.808 72.6112 59.208 71.3205 59.208C70.0298 59.208 68.9685 58.808 68.1365 58.008C67.3045 57.1973 66.8885 56.1947 66.8885 55ZM78.5519 59H75.8799L79.3199 54.744L76.2319 51.016H78.7759L81.2079 54.024V51.016H83.4319V54.024L85.8479 51.016H88.3919L85.3039 54.744L88.7599 59H86.0719L83.4319 55.592V59H81.2079V55.592L78.5519 59ZM93.3361 59.208C92.0881 59.208 91.0375 58.824 90.1841 58.056C89.3308 57.288 88.9041 56.2693 88.9041 55C88.9041 53.816 89.2881 52.824 90.0561 52.024C90.8241 51.2133 91.8268 50.808 93.0641 50.808C94.2161 50.808 95.1388 51.2187 95.8321 52.04C96.5255 52.8613 96.8721 53.8587 96.8721 55.032V55.624H91.1441C91.2615 56.1573 91.5548 56.568 92.0241 56.856C92.5041 57.144 93.1015 57.288 93.8161 57.288C94.7015 57.288 95.5548 57.0533 96.3761 56.584V58.392C95.6615 58.936 94.6481 59.208 93.3361 59.208ZM91.1441 54.184H94.6481C94.6268 53.7253 94.4615 53.3467 94.1521 53.048C93.8535 52.7387 93.4588 52.584 92.9681 52.584C92.4668 52.584 92.0508 52.7333 91.7201 53.032C91.3895 53.32 91.1975 53.704 91.1441 54.184ZM100.86 59H98.604V51.016H100.86V53.976H104.14V51.016H106.396V59H104.14V55.864H100.86V59ZM110.716 59H108.604V51.016H110.828V55.72L114.444 51.016H116.556V59H114.332V54.296L110.716 59ZM120.872 59H118.76V51.016H120.984V55.72L124.6 51.016H126.712V59H124.488V54.296L120.872 59ZM122.728 50.136C121.875 50.136 121.182 49.8907 120.648 49.4C120.115 48.8987 119.843 48.232 119.832 47.4H121.528C121.528 47.752 121.635 48.0347 121.848 48.248C122.062 48.4613 122.35 48.568 122.712 48.568C123.075 48.568 123.358 48.4613 123.56 48.248C123.774 48.0347 123.886 47.752 123.896 47.4H125.608C125.598 48.2427 125.32 48.9093 124.776 49.4C124.243 49.8907 123.56 50.136 122.728 50.136Z" fill="#232324"/>
<rect x="0.5" y="0.5" width="191" height="73" rx="15.5" stroke="url(#paint1_linear_1522_591)"/>
<rect x="0.5" y="224.5" width="191" height="73" rx="15.5" fill="#F6F6F6"/>
<path d="M18.672 247H16.256L21.056 235.736H23.264L28.064 247H25.616L24.512 244.408H19.776L18.672 247ZM22.144 238.616L20.496 242.504H23.776L22.144 238.616ZM34.1205 247H29.4165V239.016H33.9285C34.7392 239.016 35.3685 239.208 35.8165 239.592C36.2645 239.965 36.4885 240.456 36.4885 241.064C36.4885 241.864 36.1632 242.429 35.5125 242.76C36.5258 243.112 37.0325 243.795 37.0325 244.808C37.0325 245.491 36.7765 246.029 36.2645 246.424C35.7525 246.808 35.0378 247 34.1205 247ZM31.6405 243.624V245.416H33.5605C34.3392 245.416 34.7285 245.117 34.7285 244.52C34.7285 243.923 34.3392 243.624 33.5605 243.624H31.6405ZM31.6405 240.568V242.2H33.2085C33.9232 242.2 34.2805 241.928 34.2805 241.384C34.2805 240.84 33.9232 240.568 33.2085 240.568H31.6405ZM42.3983 247H40.1423V240.904H37.6463V239.016H44.9263V240.904H42.3983V247ZM47.9563 243C47.9563 243.64 48.1643 244.173 48.5803 244.6C48.9963 245.027 49.5243 245.24 50.1643 245.24C50.8043 245.24 51.3323 245.027 51.7483 244.6C52.1643 244.163 52.3723 243.629 52.3723 243C52.3723 242.36 52.1643 241.832 51.7483 241.416C51.3323 240.989 50.8043 240.776 50.1643 240.776C49.5243 240.776 48.9963 240.989 48.5803 241.416C48.1643 241.832 47.9563 242.36 47.9563 243ZM45.7323 243C45.7323 241.816 46.1483 240.824 46.9803 240.024C47.8016 239.213 48.8629 238.808 50.1643 238.808C51.4656 238.808 52.5269 239.213 53.3483 240.024C54.1803 240.835 54.5963 241.827 54.5963 243C54.5963 244.195 54.1803 245.197 53.3483 246.008C52.5163 246.808 51.4549 247.208 50.1643 247.208C48.8736 247.208 47.8123 246.808 46.9803 246.008C46.1483 245.197 45.7323 244.195 45.7323 243ZM58.3883 247H56.2603V239.016H58.4843L60.8043 241.992L63.1403 239.016H65.3643V247H63.2362V242.072L61.2523 244.552H60.3563L58.3883 242.072V247ZM75.1728 245.256C75.3648 245.256 75.5194 245.224 75.6368 245.16V246.808C75.3488 247.032 74.9434 247.144 74.4208 247.144C73.5141 247.144 72.9114 246.803 72.6128 246.12C71.9088 246.845 70.9914 247.208 69.8608 247.208C68.9861 247.208 68.2768 246.963 67.7328 246.472C67.1888 245.981 66.9168 245.336 66.9168 244.536C66.9168 243.683 67.2261 243.032 67.8448 242.584C68.4634 242.136 69.2048 241.912 70.0688 241.912C70.9754 241.912 71.7434 242.077 72.3728 242.408V242.168C72.3728 241.165 71.6688 240.664 70.2608 240.664C69.3968 240.664 68.5914 240.888 67.8448 241.336V239.448C68.6554 239.021 69.6421 238.808 70.8048 238.808C71.9568 238.808 72.8741 239.085 73.5568 239.64C74.2608 240.195 74.6128 240.963 74.6128 241.944V244.648C74.6128 245.053 74.7994 245.256 75.1728 245.256ZM72.3728 244.648V243.848C71.9034 243.539 71.3488 243.384 70.7088 243.384C70.2288 243.384 69.8448 243.475 69.5568 243.656C69.2794 243.837 69.1408 244.093 69.1408 244.424C69.1408 244.765 69.2688 245.027 69.5248 245.208C69.7808 245.379 70.1274 245.464 70.5648 245.464C71.3541 245.464 71.9568 245.192 72.3728 244.648ZM80.742 247H78.486V240.904H75.99V239.016H83.27V240.904H80.742V247ZM86.716 247H84.604V239.016H86.828V243.72L90.444 239.016H92.556V247H90.332V242.296L86.716 247ZM97.5603 247.208C96.3229 247.208 95.2883 247.005 94.4563 246.6V244.776C95.2776 245.203 96.2056 245.416 97.2403 245.416C97.8483 245.416 98.3176 245.336 98.6483 245.176C98.9896 245.016 99.1603 244.787 99.1603 244.488C99.1603 243.965 98.6909 243.704 97.7523 243.704H96.1843V242.072H97.7523C98.5203 242.072 98.9043 241.837 98.9043 241.368C98.9043 240.856 98.3603 240.6 97.2723 240.6C96.2803 240.6 95.4163 240.781 94.6803 241.144V239.384C95.5016 239 96.5309 238.808 97.7682 238.808C98.7389 238.808 99.5549 239.016 100.216 239.432C100.878 239.848 101.208 240.371 101.208 241C101.208 241.885 100.824 242.456 100.056 242.712C100.494 242.851 100.846 243.085 101.112 243.416C101.39 243.736 101.528 244.136 101.528 244.616C101.528 245.373 101.16 245.997 100.424 246.488C99.7096 246.968 98.7549 247.208 97.5603 247.208ZM110.876 245.256C111.068 245.256 111.223 245.224 111.34 245.16V246.808C111.052 247.032 110.647 247.144 110.124 247.144C109.217 247.144 108.615 246.803 108.316 246.12C107.612 246.845 106.695 247.208 105.564 247.208C104.689 247.208 103.98 246.963 103.436 246.472C102.892 245.981 102.62 245.336 102.62 244.536C102.62 243.683 102.929 243.032 103.548 242.584C104.167 242.136 104.908 241.912 105.772 241.912C106.679 241.912 107.447 242.077 108.076 242.408V242.168C108.076 241.165 107.372 240.664 105.964 240.664C105.1 240.664 104.295 240.888 103.548 241.336V239.448C104.359 239.021 105.345 238.808 106.508 238.808C107.66 238.808 108.577 239.085 109.26 239.64C109.964 240.195 110.316 240.963 110.316 241.944V244.648C110.316 245.053 110.503 245.256 110.876 245.256ZM108.076 244.648V243.848C107.607 243.539 107.052 243.384 106.412 243.384C105.932 243.384 105.548 243.475 105.26 243.656C104.983 243.837 104.844 244.093 104.844 244.424C104.844 244.765 104.972 245.027 105.228 245.208C105.484 245.379 105.831 245.464 106.268 245.464C107.057 245.464 107.66 245.192 108.076 244.648ZM121.941 249.032H119.765V247H112.901V239.016H115.157V245.112H118.373V239.016H120.629V245.112H121.941V249.032ZM125.607 247H123.495V239.016H125.719V243.72L129.335 239.016H131.447V247H129.223V242.296L125.607 247ZM135.475 247H132.947L135.091 243.96C134.035 243.576 133.507 242.792 133.507 241.608C133.507 240.829 133.774 240.205 134.307 239.736C134.851 239.256 135.63 239.016 136.643 239.016H140.931V247H138.675V244.36H137.315L135.475 247ZM137.011 242.728H138.675V240.776H137.011C136.638 240.776 136.344 240.861 136.131 241.032C135.918 241.203 135.811 241.443 135.811 241.752C135.811 242.061 135.918 242.301 136.131 242.472C136.344 242.643 136.638 242.728 137.011 242.728ZM19.36 265H17.104V257.016H24.8V265H22.544V258.904H19.36V265ZM31.8903 256.808C32.9783 256.808 33.8743 257.213 34.5783 258.024C35.2929 258.813 35.6503 259.811 35.6503 261.016C35.6503 262.2 35.2929 263.197 34.5783 264.008C33.8743 264.808 32.9783 265.208 31.8903 265.208C30.7703 265.208 29.8956 264.813 29.2663 264.024V268.2H27.0103V257.016H29.2663V257.992C29.8636 257.203 30.7383 256.808 31.8903 256.808ZM31.2503 258.776C30.8236 258.776 30.4343 258.888 30.0823 259.112C29.7303 259.336 29.4583 259.624 29.2663 259.976V262.056C29.4583 262.408 29.7303 262.696 30.0823 262.92C30.4343 263.133 30.8236 263.24 31.2503 263.24C31.8903 263.24 32.4076 263.027 32.8023 262.6C33.2076 262.163 33.4103 261.635 33.4103 261.016C33.4103 260.387 33.2076 259.853 32.8023 259.416C32.4076 258.989 31.8903 258.776 31.2503 258.776ZM39.0031 261C39.0031 261.64 39.2111 262.173 39.6271 262.6C40.0431 263.027 40.5711 263.24 41.2111 263.24C41.8511 263.24 42.3791 263.027 42.7951 262.6C43.2111 262.163 43.4191 261.629 43.4191 261C43.4191 260.36 43.2111 259.832 42.7951 259.416C42.3791 258.989 41.8511 258.776 41.2111 258.776C40.5711 258.776 40.0431 258.989 39.6271 259.416C39.2111 259.832 39.0031 260.36 39.0031 261ZM36.7791 261C36.7791 259.816 37.1951 258.824 38.0271 258.024C38.8485 257.213 39.9098 256.808 41.2111 256.808C42.5125 256.808 43.5738 257.213 44.3951 258.024C45.2271 258.835 45.6431 259.827 45.6431 261C45.6431 262.195 45.2271 263.197 44.3951 264.008C43.5631 264.808 42.5018 265.208 41.2111 265.208C39.9205 265.208 38.8591 264.808 38.0271 264.008C37.1951 263.197 36.7791 262.195 36.7791 261ZM56.3471 267.032H54.1711V265H47.3071V257.016H49.5631V263.112H52.7791V257.016H55.0351V263.112H56.3471V267.032ZM61.8049 265.208C60.5569 265.208 59.5062 264.824 58.6529 264.056C57.7995 263.288 57.3729 262.269 57.3729 261C57.3729 259.816 57.7569 258.824 58.5249 258.024C59.2929 257.213 60.2955 256.808 61.5329 256.808C62.6849 256.808 63.6075 257.219 64.3009 258.04C64.9942 258.861 65.3409 259.859 65.3409 261.032V261.624H59.6129C59.7302 262.157 60.0235 262.568 60.4929 262.856C60.9729 263.144 61.5702 263.288 62.2849 263.288C63.1702 263.288 64.0235 263.053 64.8449 262.584V264.392C64.1302 264.936 63.1169 265.208 61.8049 265.208ZM59.6129 260.184H63.1169C63.0955 259.725 62.9302 259.347 62.6209 259.048C62.3222 258.739 61.9275 258.584 61.4369 258.584C60.9355 258.584 60.5195 258.733 60.1889 259.032C59.8582 259.32 59.6662 259.704 59.6129 260.184ZM70.8808 265.208C69.6968 265.208 68.6781 264.824 67.8248 264.056C66.9714 263.267 66.5448 262.243 66.5448 260.984C66.5448 259.725 66.9714 258.717 67.8248 257.96C68.6888 257.192 69.7181 256.808 70.9128 256.808C71.7874 256.808 72.5768 256.984 73.2808 257.336V259.256C72.5874 258.936 71.9101 258.776 71.2488 258.776C70.5448 258.776 69.9528 258.984 69.4728 259.4C69.0034 259.805 68.7688 260.339 68.7688 261C68.7688 261.661 69.0088 262.2 69.4888 262.616C69.9688 263.032 70.5554 263.24 71.2488 263.24C72.0701 263.24 72.7901 263.059 73.4088 262.696V264.616C72.6621 265.011 71.8194 265.208 70.8808 265.208ZM78.9745 265.208C77.7905 265.208 76.7718 264.824 75.9185 264.056C75.0652 263.267 74.6385 262.243 74.6385 260.984C74.6385 259.725 75.0652 258.717 75.9185 257.96C76.7825 257.192 77.8118 256.808 79.0065 256.808C79.8812 256.808 80.6705 256.984 81.3745 257.336V259.256C80.6812 258.936 80.0038 258.776 79.3425 258.776C78.6385 258.776 78.0465 258.984 77.5665 259.4C77.0972 259.805 76.8625 260.339 76.8625 261C76.8625 261.661 77.1025 262.2 77.5825 262.616C78.0625 263.032 78.6492 263.24 79.3425 263.24C80.1638 263.24 80.8838 263.059 81.5025 262.696V264.616C80.7558 265.011 79.9132 265.208 78.9745 265.208ZM91.0165 263.256C91.2085 263.256 91.3632 263.224 91.4805 263.16V264.808C91.1925 265.032 90.7872 265.144 90.2645 265.144C89.3578 265.144 88.7552 264.803 88.4565 264.12C87.7525 264.845 86.8352 265.208 85.7045 265.208C84.8298 265.208 84.1205 264.963 83.5765 264.472C83.0325 263.981 82.7605 263.336 82.7605 262.536C82.7605 261.683 83.0698 261.032 83.6885 260.584C84.3072 260.136 85.0485 259.912 85.9125 259.912C86.8192 259.912 87.5872 260.077 88.2165 260.408V260.168C88.2165 259.165 87.5125 258.664 86.1045 258.664C85.2405 258.664 84.4352 258.888 83.6885 259.336V257.448C84.4992 257.021 85.4858 256.808 86.6485 256.808C87.8005 256.808 88.7178 257.085 89.4005 257.64C90.1045 258.195 90.4565 258.963 90.4565 259.944V262.648C90.4565 263.053 90.6432 263.256 91.0165 263.256ZM88.2165 262.648V261.848C87.7472 261.539 87.1925 261.384 86.5525 261.384C86.0725 261.384 85.6885 261.475 85.4005 261.656C85.1232 261.837 84.9845 262.093 84.9845 262.424C84.9845 262.765 85.1125 263.027 85.3685 263.208C85.6245 263.379 85.9712 263.464 86.4085 263.464C87.1978 263.464 87.8005 263.192 88.2165 262.648ZM104.735 263.256C104.927 263.256 105.082 263.224 105.199 263.16V264.808C104.911 265.032 104.506 265.144 103.983 265.144C103.077 265.144 102.474 264.803 102.175 264.12C101.471 264.845 100.554 265.208 99.4233 265.208C98.5486 265.208 97.8393 264.963 97.2953 264.472C96.7513 263.981 96.4793 263.336 96.4793 262.536C96.4793 261.683 96.7886 261.032 97.4073 260.584C98.0259 260.136 98.7673 259.912 99.6313 259.912C100.538 259.912 101.306 260.077 101.935 260.408V260.168C101.935 259.165 101.231 258.664 99.8233 258.664C98.9593 258.664 98.1539 258.888 97.4073 259.336V257.448C98.2179 257.021 99.2046 256.808 100.367 256.808C101.519 256.808 102.437 257.085 103.119 257.64C103.823 258.195 104.175 258.963 104.175 259.944V262.648C104.175 263.053 104.362 263.256 104.735 263.256ZM101.935 262.648V261.848C101.466 261.539 100.911 261.384 100.271 261.384C99.7913 261.384 99.4073 261.475 99.1193 261.656C98.8419 261.837 98.7033 262.093 98.7033 262.424C98.7033 262.765 98.8313 263.027 99.0873 263.208C99.3433 263.379 99.6899 263.464 100.127 263.464C100.917 263.464 101.519 263.192 101.935 262.648ZM111.64 256.808C112.728 256.808 113.624 257.213 114.328 258.024C115.043 258.813 115.4 259.811 115.4 261.016C115.4 262.2 115.043 263.197 114.328 264.008C113.624 264.808 112.728 265.208 111.64 265.208C110.52 265.208 109.646 264.813 109.016 264.024V268.2H106.76V257.016H109.016V257.992C109.614 257.203 110.488 256.808 111.64 256.808ZM111 258.776C110.574 258.776 110.184 258.888 109.832 259.112C109.48 259.336 109.208 259.624 109.016 259.976V262.056C109.208 262.408 109.48 262.696 109.832 262.92C110.184 263.133 110.574 263.24 111 263.24C111.64 263.24 112.158 263.027 112.552 262.6C112.958 262.163 113.16 261.635 113.16 261.016C113.16 260.387 112.958 259.853 112.552 259.416C112.158 258.989 111.64 258.776 111 258.776ZM120.961 265.208C119.713 265.208 118.662 264.824 117.809 264.056C116.956 263.288 116.529 262.269 116.529 261C116.529 259.816 116.913 258.824 117.681 258.024C118.449 257.213 119.452 256.808 120.689 256.808C121.841 256.808 122.764 257.219 123.457 258.04C124.15 258.861 124.497 259.859 124.497 261.032V261.624H118.769C118.886 262.157 119.18 262.568 119.649 262.856C120.129 263.144 120.726 263.288 121.441 263.288C122.326 263.288 123.18 263.053 124.001 262.584V264.392C123.286 264.936 122.273 265.208 120.961 265.208ZM118.769 260.184H122.273C122.252 259.725 122.086 259.347 121.777 259.048C121.478 258.739 121.084 258.584 120.593 258.584C120.092 258.584 119.676 258.733 119.345 259.032C119.014 259.32 118.822 259.704 118.769 260.184ZM128.485 265H126.229V257.016H128.485V259.976H131.765V257.016H134.021V265H131.765V261.864H128.485V265ZM137.605 267.032H135.445V263.112H136.469C137.077 262.163 137.397 260.648 137.429 258.568L137.461 257.016H144.181V263.112H145.493V267.032H143.365V265H137.605V267.032ZM138.773 263.112H141.973V258.904H139.477C139.477 260.557 139.242 261.96 138.773 263.112ZM157.41 265H155.186V257.016H157.41V265ZM151.042 265H147.042V257.016H149.298V259.352H150.93C151.932 259.352 152.732 259.608 153.33 260.12C153.927 260.632 154.226 261.315 154.226 262.168C154.226 262.979 153.948 263.656 153.394 264.2C152.828 264.733 152.044 265 151.042 265ZM149.298 261.032V263.256H150.578C151.015 263.256 151.356 263.16 151.602 262.968C151.847 262.776 151.97 262.504 151.97 262.152C151.97 261.8 151.847 261.528 151.602 261.336C151.356 261.133 151.015 261.032 150.578 261.032H149.298ZM160.468 267.432H158.612L159.988 262.584H162.404L160.468 267.432ZM20.912 283.208C19.728 283.208 18.7093 282.824 17.856 282.056C17.0027 281.267 16.576 280.243 16.576 278.984C16.576 277.725 17.0027 276.717 17.856 275.96C18.72 275.192 19.7493 274.808 20.944 274.808C21.8187 274.808 22.608 274.984 23.312 275.336V277.256C22.6187 276.936 21.9413 276.776 21.28 276.776C20.576 276.776 19.984 276.984 19.504 277.4C19.0347 277.805 18.8 278.339 18.8 279C18.8 279.661 19.04 280.2 19.52 280.616C20 281.032 20.5867 281.24 21.28 281.24C22.1013 281.24 22.8213 281.059 23.44 280.696V282.616C22.6933 283.011 21.8507 283.208 20.912 283.208ZM26.73 285.032H24.57V281.112H25.594C26.202 280.163 26.522 278.648 26.554 276.568L26.586 275.016H33.306V281.112H34.618V285.032H32.49V283H26.73V285.032ZM27.898 281.112H31.098V276.904H28.602C28.602 278.557 28.3673 279.96 27.898 281.112ZM43.7665 281.256C43.9585 281.256 44.1132 281.224 44.2305 281.16V282.808C43.9425 283.032 43.5372 283.144 43.0145 283.144C42.1078 283.144 41.5052 282.803 41.2065 282.12C40.5025 282.845 39.5852 283.208 38.4545 283.208C37.5798 283.208 36.8705 282.963 36.3265 282.472C35.7825 281.981 35.5105 281.336 35.5105 280.536C35.5105 279.683 35.8198 279.032 36.4385 278.584C37.0572 278.136 37.7985 277.912 38.6625 277.912C39.5692 277.912 40.3372 278.077 40.9665 278.408V278.168C40.9665 277.165 40.2625 276.664 38.8545 276.664C37.9905 276.664 37.1852 276.888 36.4385 277.336V275.448C37.2492 275.021 38.2358 274.808 39.3985 274.808C40.5505 274.808 41.4678 275.085 42.1505 275.64C42.8545 276.195 43.2065 276.963 43.2065 277.944V280.648C43.2065 281.053 43.3932 281.256 43.7665 281.256ZM40.9665 280.648V279.848C40.4972 279.539 39.9425 279.384 39.3025 279.384C38.8225 279.384 38.4385 279.475 38.1505 279.656C37.8732 279.837 37.7345 280.093 37.7345 280.424C37.7345 280.765 37.8625 281.027 38.1185 281.208C38.3745 281.379 38.7212 281.464 39.1585 281.464C39.9478 281.464 40.5505 281.192 40.9665 280.648ZM52.6124 283H50.3564V280.376C49.8337 280.557 49.2524 280.648 48.6124 280.648C46.3404 280.648 45.2044 279.56 45.2044 277.384V275.016H47.4604V277.16C47.4604 277.736 47.5724 278.147 47.7964 278.392C48.031 278.627 48.4204 278.744 48.9644 278.744C49.5297 278.744 49.9937 278.643 50.3564 278.44V275.016H52.6124V283ZM56.9348 283H54.8228V275.016H57.0468V279.72L60.6628 275.016H62.7748V283H60.5508V278.296L56.9348 283ZM65.827 285.432H63.971L65.347 280.584H67.763L65.827 285.432ZM75.8131 283H73.5571V275.016H81.2531V283H78.9971V276.904H75.8131V283ZM85.1594 279C85.1594 279.64 85.3674 280.173 85.7834 280.6C86.1994 281.027 86.7274 281.24 87.3674 281.24C88.0074 281.24 88.5354 281.027 88.9514 280.6C89.3674 280.163 89.5754 279.629 89.5754 279C89.5754 278.36 89.3674 277.832 88.9514 277.416C88.5354 276.989 88.0074 276.776 87.3674 276.776C86.7274 276.776 86.1994 276.989 85.7834 277.416C85.3674 277.832 85.1594 278.36 85.1594 279ZM82.9354 279C82.9354 277.816 83.3514 276.824 84.1834 276.024C85.0047 275.213 86.066 274.808 87.3674 274.808C88.6687 274.808 89.73 275.213 90.5514 276.024C91.3834 276.835 91.7994 277.827 91.7994 279C91.7994 280.195 91.3834 281.197 90.5514 282.008C89.7194 282.808 88.658 283.208 87.3674 283.208C86.0767 283.208 85.0154 282.808 84.1834 282.008C83.3514 281.197 82.9354 280.195 82.9354 279ZM95.7194 283H93.4634V275.016H95.7194V277.928L98.4714 275.016H101.239L97.7674 278.616L101.783 283H98.8714L95.7194 279.56V283ZM103.925 286.296C103.264 286.296 102.731 286.189 102.325 285.976V284.008C102.699 284.221 103.104 284.328 103.541 284.328C103.947 284.328 104.283 284.2 104.549 283.944C104.827 283.699 105.083 283.293 105.317 282.728L101.877 275.016H104.309L106.421 280.264L108.421 275.016H110.805L107.109 283.832C106.405 285.475 105.344 286.296 103.925 286.296ZM114.407 283H112.151V275.016H119.847V283H117.591V276.904H114.407V283ZM124.313 283H122.057V275.016H124.313V277.928L127.065 275.016H129.833L126.361 278.616L130.377 283H127.465L124.313 279.56V283ZM133.747 283H131.635V275.016H133.859V279.72L137.475 275.016H139.587V283H137.363V278.296L133.747 283Z" fill="#232324"/>
<rect x="0.5" y="224.5" width="191" height="73" rx="15.5" stroke="url(#paint2_linear_1522_591)"/>
<rect x="153.5" y="346.5" width="191" height="91" rx="15.5" fill="#F6F6F6"/>
<path d="M171.672 369H169.256L174.056 357.736H176.264L181.064 369H178.616L177.512 366.408H172.776L171.672 369ZM175.144 360.616L173.496 364.504H176.776L175.144 360.616ZM187.121 369H182.417V361.016H186.929C187.739 361.016 188.369 361.208 188.817 361.592C189.265 361.965 189.489 362.456 189.489 363.064C189.489 363.864 189.163 364.429 188.513 364.76C189.526 365.112 190.033 365.795 190.033 366.808C190.033 367.491 189.777 368.029 189.265 368.424C188.753 368.808 188.038 369 187.121 369ZM184.641 365.624V367.416H186.561C187.339 367.416 187.729 367.117 187.729 366.52C187.729 365.923 187.339 365.624 186.561 365.624H184.641ZM184.641 362.568V364.2H186.209C186.923 364.2 187.281 363.928 187.281 363.384C187.281 362.84 186.923 362.568 186.209 362.568H184.641ZM195.398 369H193.142V362.904H190.646V361.016H197.926V362.904H195.398V369ZM200.956 365C200.956 365.64 201.164 366.173 201.58 366.6C201.996 367.027 202.524 367.24 203.164 367.24C203.804 367.24 204.332 367.027 204.748 366.6C205.164 366.163 205.372 365.629 205.372 365C205.372 364.36 205.164 363.832 204.748 363.416C204.332 362.989 203.804 362.776 203.164 362.776C202.524 362.776 201.996 362.989 201.58 363.416C201.164 363.832 200.956 364.36 200.956 365ZM198.732 365C198.732 363.816 199.148 362.824 199.98 362.024C200.802 361.213 201.863 360.808 203.164 360.808C204.466 360.808 205.527 361.213 206.348 362.024C207.18 362.835 207.596 363.827 207.596 365C207.596 366.195 207.18 367.197 206.348 368.008C205.516 368.808 204.455 369.208 203.164 369.208C201.874 369.208 200.812 368.808 199.98 368.008C199.148 367.197 198.732 366.195 198.732 365ZM211.388 369H209.26V361.016H211.484L213.804 363.992L216.14 361.016H218.364V369H216.236V364.072L214.252 366.552H213.356L211.388 364.072V369ZM228.173 367.256C228.365 367.256 228.519 367.224 228.637 367.16V368.808C228.349 369.032 227.943 369.144 227.421 369.144C226.514 369.144 225.911 368.803 225.613 368.12C224.909 368.845 223.991 369.208 222.861 369.208C221.986 369.208 221.277 368.963 220.733 368.472C220.189 367.981 219.917 367.336 219.917 366.536C219.917 365.683 220.226 365.032 220.845 364.584C221.463 364.136 222.205 363.912 223.069 363.912C223.975 363.912 224.743 364.077 225.373 364.408V364.168C225.373 363.165 224.669 362.664 223.261 362.664C222.397 362.664 221.591 362.888 220.845 363.336V361.448C221.655 361.021 222.642 360.808 223.805 360.808C224.957 360.808 225.874 361.085 226.557 361.64C227.261 362.195 227.613 362.963 227.613 363.944V366.648C227.613 367.053 227.799 367.256 228.173 367.256ZM225.373 366.648V365.848C224.903 365.539 224.349 365.384 223.709 365.384C223.229 365.384 222.845 365.475 222.557 365.656C222.279 365.837 222.141 366.093 222.141 366.424C222.141 366.765 222.269 367.027 222.525 367.208C222.781 367.379 223.127 367.464 223.565 367.464C224.354 367.464 224.957 367.192 225.373 366.648ZM233.742 369H231.486V362.904H228.99V361.016H236.27V362.904H233.742V369ZM239.716 369H237.604V361.016H239.828V365.72L243.444 361.016H245.556V369H243.332V364.296L239.716 369ZM250.56 369.208C249.323 369.208 248.288 369.005 247.456 368.6V366.776C248.278 367.203 249.206 367.416 250.24 367.416C250.848 367.416 251.318 367.336 251.648 367.176C251.99 367.016 252.16 366.787 252.16 366.488C252.16 365.965 251.691 365.704 250.752 365.704H249.184V364.072H250.752C251.52 364.072 251.904 363.837 251.904 363.368C251.904 362.856 251.36 362.6 250.272 362.6C249.28 362.6 248.416 362.781 247.68 363.144V361.384C248.502 361 249.531 360.808 250.768 360.808C251.739 360.808 252.555 361.016 253.216 361.432C253.878 361.848 254.208 362.371 254.208 363C254.208 363.885 253.824 364.456 253.056 364.712C253.494 364.851 253.846 365.085 254.112 365.416C254.39 365.736 254.528 366.136 254.528 366.616C254.528 367.373 254.16 367.997 253.424 368.488C252.71 368.968 251.755 369.208 250.56 369.208ZM263.876 367.256C264.068 367.256 264.223 367.224 264.34 367.16V368.808C264.052 369.032 263.647 369.144 263.124 369.144C262.217 369.144 261.615 368.803 261.316 368.12C260.612 368.845 259.695 369.208 258.564 369.208C257.689 369.208 256.98 368.963 256.436 368.472C255.892 367.981 255.62 367.336 255.62 366.536C255.62 365.683 255.929 365.032 256.548 364.584C257.167 364.136 257.908 363.912 258.772 363.912C259.679 363.912 260.447 364.077 261.076 364.408V364.168C261.076 363.165 260.372 362.664 258.964 362.664C258.1 362.664 257.295 362.888 256.548 363.336V361.448C257.359 361.021 258.345 360.808 259.508 360.808C260.66 360.808 261.577 361.085 262.26 361.64C262.964 362.195 263.316 362.963 263.316 363.944V366.648C263.316 367.053 263.503 367.256 263.876 367.256ZM261.076 366.648V365.848C260.607 365.539 260.052 365.384 259.412 365.384C258.932 365.384 258.548 365.475 258.26 365.656C257.983 365.837 257.844 366.093 257.844 366.424C257.844 366.765 257.972 367.027 258.228 367.208C258.484 367.379 258.831 367.464 259.268 367.464C260.057 367.464 260.66 367.192 261.076 366.648ZM274.941 371.032H272.765V369H265.901V361.016H268.157V367.112H271.373V361.016H273.629V367.112H274.941V371.032ZM278.607 369H276.495V361.016H278.719V365.72L282.335 361.016H284.447V369H282.223V364.296L278.607 369ZM288.475 369H285.947L288.091 365.96C287.035 365.576 286.507 364.792 286.507 363.608C286.507 362.829 286.774 362.205 287.307 361.736C287.851 361.256 288.63 361.016 289.643 361.016H293.931V369H291.675V366.36H290.315L288.475 369ZM290.011 364.728H291.675V362.776H290.011C289.638 362.776 289.344 362.861 289.131 363.032C288.918 363.203 288.811 363.443 288.811 363.752C288.811 364.061 288.918 364.301 289.131 364.472C289.344 364.643 289.638 364.728 290.011 364.728ZM174.808 387H170.104V379.016H174.616C175.427 379.016 176.056 379.208 176.504 379.592C176.952 379.965 177.176 380.456 177.176 381.064C177.176 381.864 176.851 382.429 176.2 382.76C177.213 383.112 177.72 383.795 177.72 384.808C177.72 385.491 177.464 386.029 176.952 386.424C176.44 386.808 175.725 387 174.808 387ZM172.328 383.624V385.416H174.248C175.027 385.416 175.416 385.117 175.416 384.52C175.416 383.923 175.027 383.624 174.248 383.624H172.328ZM172.328 380.568V382.2H173.896C174.611 382.2 174.968 381.928 174.968 381.384C174.968 380.84 174.611 380.568 173.896 380.568H172.328ZM183.086 387H180.83V380.904H178.334V379.016H185.614V380.904H183.086V387ZM188.644 383C188.644 383.64 188.852 384.173 189.268 384.6C189.684 385.027 190.212 385.24 190.852 385.24C191.492 385.24 192.02 385.027 192.436 384.6C192.852 384.163 193.06 383.629 193.06 383C193.06 382.36 192.852 381.832 192.436 381.416C192.02 380.989 191.492 380.776 190.852 380.776C190.212 380.776 189.684 380.989 189.268 381.416C188.852 381.832 188.644 382.36 188.644 383ZM186.42 383C186.42 381.816 186.836 380.824 187.668 380.024C188.489 379.213 189.55 378.808 190.852 378.808C192.153 378.808 193.214 379.213 194.036 380.024C194.868 380.835 195.284 381.827 195.284 383C195.284 384.195 194.868 385.197 194.036 386.008C193.204 386.808 192.142 387.208 190.852 387.208C189.561 387.208 188.5 386.808 187.668 386.008C186.836 385.197 186.42 384.195 186.42 383ZM201.828 378.808C202.916 378.808 203.812 379.213 204.516 380.024C205.23 380.813 205.588 381.811 205.588 383.016C205.588 384.2 205.23 385.197 204.516 386.008C203.812 386.808 202.916 387.208 201.828 387.208C200.708 387.208 199.833 386.813 199.204 386.024V390.2H196.948V379.016H199.204V379.992C199.801 379.203 200.676 378.808 201.828 378.808ZM201.188 380.776C200.761 380.776 200.372 380.888 200.02 381.112C199.668 381.336 199.396 381.624 199.204 381.976V384.056C199.396 384.408 199.668 384.696 200.02 384.92C200.372 385.133 200.761 385.24 201.188 385.24C201.828 385.24 202.345 385.027 202.74 384.6C203.145 384.163 203.348 383.635 203.348 383.016C203.348 382.387 203.145 381.853 202.74 381.416C202.345 380.989 201.828 380.776 201.188 380.776ZM208.941 383C208.941 383.64 209.149 384.173 209.565 384.6C209.981 385.027 210.509 385.24 211.149 385.24C211.789 385.24 212.317 385.027 212.733 384.6C213.149 384.163 213.357 383.629 213.357 383C213.357 382.36 213.149 381.832 212.733 381.416C212.317 380.989 211.789 380.776 211.149 380.776C210.509 380.776 209.981 380.989 209.565 381.416C209.149 381.832 208.941 382.36 208.941 383ZM206.717 383C206.717 381.816 207.133 380.824 207.965 380.024C208.786 379.213 209.847 378.808 211.149 378.808C212.45 378.808 213.511 379.213 214.333 380.024C215.165 380.835 215.581 381.827 215.581 383C215.581 384.195 215.165 385.197 214.333 386.008C213.501 386.808 212.439 387.208 211.149 387.208C209.858 387.208 208.797 386.808 207.965 386.008C207.133 385.197 206.717 384.195 206.717 383ZM221.053 387.208C219.869 387.208 218.85 386.824 217.997 386.056C217.143 385.267 216.717 384.243 216.717 382.984C216.717 381.725 217.143 380.717 217.997 379.96C218.861 379.192 219.89 378.808 221.085 378.808C221.959 378.808 222.749 378.984 223.453 379.336V381.256C222.759 380.936 222.082 380.776 221.421 380.776C220.717 380.776 220.125 380.984 219.645 381.4C219.175 381.805 218.941 382.339 218.941 383C218.941 383.661 219.181 384.2 219.661 384.616C220.141 385.032 220.727 385.24 221.421 385.24C222.242 385.24 222.962 385.059 223.581 384.696V386.616C222.834 387.011 221.991 387.208 221.053 387.208ZM229.383 387H227.127V380.904H224.631V379.016H231.911V380.904H229.383V387ZM237.149 387.208C235.901 387.208 234.85 386.824 233.997 386.056C233.143 385.288 232.717 384.269 232.717 383C232.717 381.816 233.101 380.824 233.869 380.024C234.637 379.213 235.639 378.808 236.877 378.808C238.029 378.808 238.951 379.219 239.645 380.04C240.338 380.861 240.685 381.859 240.685 383.032V383.624H234.957C235.074 384.157 235.367 384.568 235.837 384.856C236.317 385.144 236.914 385.288 237.629 385.288C238.514 385.288 239.367 385.053 240.189 384.584V386.392C239.474 386.936 238.461 387.208 237.149 387.208ZM234.957 382.184H238.461C238.439 381.725 238.274 381.347 237.965 381.048C237.666 380.739 237.271 380.584 236.781 380.584C236.279 380.584 235.863 380.733 235.533 381.032C235.202 381.32 235.01 381.704 234.957 382.184ZM244.673 387H242.417V379.016H250.113V387H247.857V380.904H244.673V387ZM256.227 387.208C254.979 387.208 253.928 386.824 253.075 386.056C252.221 385.288 251.795 384.269 251.795 383C251.795 381.816 252.179 380.824 252.947 380.024C253.715 379.213 254.717 378.808 255.955 378.808C257.107 378.808 258.029 379.219 258.723 380.04C259.416 380.861 259.763 381.859 259.763 383.032V383.624H254.035C254.152 384.157 254.445 384.568 254.915 384.856C255.395 385.144 255.992 385.288 256.707 385.288C257.592 385.288 258.445 385.053 259.267 384.584V386.392C258.552 386.936 257.539 387.208 256.227 387.208ZM254.035 382.184H257.539C257.517 381.725 257.352 381.347 257.043 381.048C256.744 380.739 256.349 380.584 255.859 380.584C255.357 380.584 254.941 380.733 254.611 381.032C254.28 381.32 254.088 381.704 254.035 382.184ZM263.751 387H261.495V379.016H263.751V381.976H267.031V379.016H269.287V387H267.031V383.864H263.751V387ZM273.751 387H271.495V379.016H273.751V381.976H277.031V379.016H279.287V387H277.031V383.864H273.751V387ZM291.863 387H289.639V379.016H291.863V387ZM285.495 387H281.495V379.016H283.751V381.352H285.383C286.385 381.352 287.185 381.608 287.783 382.12C288.38 382.632 288.679 383.315 288.679 384.168C288.679 384.979 288.401 385.656 287.847 386.2C287.281 386.733 286.497 387 285.495 387ZM283.751 383.032V385.256H285.031C285.468 385.256 285.809 385.16 286.055 384.968C286.3 384.776 286.423 384.504 286.423 384.152C286.423 383.8 286.3 383.528 286.055 383.336C285.809 383.133 285.468 383.032 285.031 383.032H283.751ZM293.513 379.016H296.041L297.641 381.256L299.257 379.016H301.753L298.953 382.824L301.993 387H299.465L297.609 384.44L295.737 387H293.241L296.297 382.84L293.513 379.016ZM171.8 401C171.8 401.64 172.008 402.173 172.424 402.6C172.84 403.027 173.368 403.24 174.008 403.24C174.648 403.24 175.176 403.027 175.592 402.6C176.008 402.163 176.216 401.629 176.216 401C176.216 400.36 176.008 399.832 175.592 399.416C175.176 398.989 174.648 398.776 174.008 398.776C173.368 398.776 172.84 398.989 172.424 399.416C172.008 399.832 171.8 400.36 171.8 401ZM169.576 401C169.576 399.816 169.992 398.824 170.824 398.024C171.645 397.213 172.707 396.808 174.008 396.808C175.309 396.808 176.371 397.213 177.192 398.024C178.024 398.835 178.44 399.827 178.44 401C178.44 402.195 178.024 403.197 177.192 404.008C176.36 404.808 175.299 405.208 174.008 405.208C172.717 405.208 171.656 404.808 170.824 404.008C169.992 403.197 169.576 402.195 169.576 401ZM182.36 405H180.104V397.016H187.8V405H185.544V398.904H182.36V405ZM193.914 405.208C192.666 405.208 191.616 404.824 190.762 404.056C189.909 403.288 189.482 402.269 189.482 401C189.482 399.816 189.866 398.824 190.634 398.024C191.402 397.213 192.405 396.808 193.642 396.808C194.794 396.808 195.717 397.219 196.41 398.04C197.104 398.861 197.45 399.859 197.45 401.032V401.624H191.722C191.84 402.157 192.133 402.568 192.602 402.856C193.082 403.144 193.68 403.288 194.394 403.288C195.28 403.288 196.133 403.053 196.954 402.584V404.392C196.24 404.936 195.226 405.208 193.914 405.208ZM191.722 400.184H195.226C195.205 399.725 195.04 399.347 194.73 399.048C194.432 398.739 194.037 398.584 193.546 398.584C193.045 398.584 192.629 398.733 192.298 399.032C191.968 399.32 191.776 399.704 191.722 400.184ZM204.062 396.808C205.15 396.808 206.046 397.213 206.75 398.024C207.465 398.813 207.822 399.811 207.822 401.016C207.822 402.2 207.465 403.197 206.75 404.008C206.046 404.808 205.15 405.208 204.062 405.208C202.942 405.208 202.067 404.813 201.438 404.024V408.2H199.182V397.016H201.438V397.992C202.035 397.203 202.91 396.808 204.062 396.808ZM203.422 398.776C202.995 398.776 202.606 398.888 202.254 399.112C201.902 399.336 201.63 399.624 201.438 399.976V402.056C201.63 402.408 201.902 402.696 202.254 402.92C202.606 403.133 202.995 403.24 203.422 403.24C204.062 403.24 204.579 403.027 204.974 402.6C205.379 402.163 205.582 401.635 205.582 401.016C205.582 400.387 205.379 399.853 204.974 399.416C204.579 398.989 204.062 398.776 203.422 398.776ZM217.079 403.256C217.271 403.256 217.426 403.224 217.543 403.16V404.808C217.255 405.032 216.85 405.144 216.327 405.144C215.42 405.144 214.818 404.803 214.519 404.12C213.815 404.845 212.898 405.208 211.767 405.208C210.892 405.208 210.183 404.963 209.639 404.472C209.095 403.981 208.823 403.336 208.823 402.536C208.823 401.683 209.132 401.032 209.751 400.584C210.37 400.136 211.111 399.912 211.975 399.912C212.882 399.912 213.65 400.077 214.279 400.408V400.168C214.279 399.165 213.575 398.664 212.167 398.664C211.303 398.664 210.498 398.888 209.751 399.336V397.448C210.562 397.021 211.548 396.808 212.711 396.808C213.863 396.808 214.78 397.085 215.463 397.64C216.167 398.195 216.519 398.963 216.519 399.944V402.648C216.519 403.053 216.706 403.256 217.079 403.256ZM214.279 402.648V401.848C213.81 401.539 213.255 401.384 212.615 401.384C212.135 401.384 211.751 401.475 211.463 401.656C211.186 401.837 211.047 402.093 211.047 402.424C211.047 402.765 211.175 403.027 211.431 403.208C211.687 403.379 212.034 403.464 212.471 403.464C213.26 403.464 213.863 403.192 214.279 402.648ZM228.144 407.032H225.968V405H219.104V397.016H221.36V403.112H224.576V397.016H226.832V403.112H228.144V407.032ZM231.81 405H229.698V397.016H231.922V401.72L235.538 397.016H237.65V405H235.426V400.296L231.81 405ZM241.55 401C241.55 401.64 241.758 402.173 242.174 402.6C242.59 403.027 243.118 403.24 243.758 403.24C244.398 403.24 244.926 403.027 245.342 402.6C245.758 402.163 245.966 401.629 245.966 401C245.966 400.36 245.758 399.832 245.342 399.416C244.926 398.989 244.398 398.776 243.758 398.776C243.118 398.776 242.59 398.989 242.174 399.416C241.758 399.832 241.55 400.36 241.55 401ZM239.326 401C239.326 399.816 239.742 398.824 240.574 398.024C241.395 397.213 242.457 396.808 243.758 396.808C245.059 396.808 246.121 397.213 246.942 398.024C247.774 398.835 248.19 399.827 248.19 401C248.19 402.195 247.774 403.197 246.942 404.008C246.11 404.808 245.049 405.208 243.758 405.208C242.467 405.208 241.406 404.808 240.574 404.008C239.742 403.197 239.326 402.195 239.326 401ZM252.11 405H249.854V397.016H252.11V399.976H255.39V397.016H257.646V405H255.39V401.864H252.11V405ZM262.11 405H259.854V397.016H262.11V399.976H265.39V397.016H267.646V405H265.39V401.864H262.11V405ZM280.222 405H277.998V397.016H280.222V405ZM273.854 405H269.854V397.016H272.11V399.352H273.742C274.745 399.352 275.545 399.608 276.142 400.12C276.739 400.632 277.038 401.315 277.038 402.168C277.038 402.979 276.761 403.656 276.206 404.2C275.641 404.733 274.857 405 273.854 405ZM272.11 401.032V403.256H273.39C273.827 403.256 274.169 403.16 274.414 402.968C274.659 402.776 274.782 402.504 274.782 402.152C274.782 401.8 274.659 401.528 274.414 401.336C274.169 401.133 273.827 401.032 273.39 401.032H272.11ZM281.872 397.016H284.4L286 399.256L287.616 397.016H290.112L287.312 400.824L290.352 405H287.824L285.968 402.44L284.096 405H281.6L284.656 400.84L281.872 397.016ZM172.36 423H170.104V415.016H177.8V423H175.544V416.904H172.36V423ZM184.89 414.808C185.978 414.808 186.874 415.213 187.578 416.024C188.293 416.813 188.65 417.811 188.65 419.016C188.65 420.2 188.293 421.197 187.578 422.008C186.874 422.808 185.978 423.208 184.89 423.208C183.77 423.208 182.896 422.813 182.266 422.024V426.2H180.01V415.016H182.266V415.992C182.864 415.203 183.738 414.808 184.89 414.808ZM184.25 416.776C183.824 416.776 183.434 416.888 183.082 417.112C182.73 417.336 182.458 417.624 182.266 417.976V420.056C182.458 420.408 182.73 420.696 183.082 420.92C183.434 421.133 183.824 421.24 184.25 421.24C184.89 421.24 185.408 421.027 185.802 420.6C186.208 420.163 186.41 419.635 186.41 419.016C186.41 418.387 186.208 417.853 185.802 417.416C185.408 416.989 184.89 416.776 184.25 416.776ZM192.003 419C192.003 419.64 192.211 420.173 192.627 420.6C193.043 421.027 193.571 421.24 194.211 421.24C194.851 421.24 195.379 421.027 195.795 420.6C196.211 420.163 196.419 419.629 196.419 419C196.419 418.36 196.211 417.832 195.795 417.416C195.379 416.989 194.851 416.776 194.211 416.776C193.571 416.776 193.043 416.989 192.627 417.416C192.211 417.832 192.003 418.36 192.003 419ZM189.779 419C189.779 417.816 190.195 416.824 191.027 416.024C191.848 415.213 192.91 414.808 194.211 414.808C195.512 414.808 196.574 415.213 197.395 416.024C198.227 416.835 198.643 417.827 198.643 419C198.643 420.195 198.227 421.197 197.395 422.008C196.563 422.808 195.502 423.208 194.211 423.208C192.92 423.208 191.859 422.808 191.027 422.008C190.195 421.197 189.779 420.195 189.779 419ZM209.347 425.032H207.171V423H200.307V415.016H202.563V421.112H205.779V415.016H208.035V421.112H209.347V425.032ZM214.805 423.208C213.557 423.208 212.506 422.824 211.653 422.056C210.8 421.288 210.373 420.269 210.373 419C210.373 417.816 210.757 416.824 211.525 416.024C212.293 415.213 213.296 414.808 214.533 414.808C215.685 414.808 216.608 415.219 217.301 416.04C217.994 416.861 218.341 417.859 218.341 419.032V419.624H212.613C212.73 420.157 213.024 420.568 213.493 420.856C213.973 421.144 214.57 421.288 215.285 421.288C216.17 421.288 217.024 421.053 217.845 420.584V422.392C217.13 422.936 216.117 423.208 214.805 423.208ZM212.613 418.184H216.117C216.096 417.725 215.93 417.347 215.621 417.048C215.322 416.739 214.928 416.584 214.437 416.584C213.936 416.584 213.52 416.733 213.189 417.032C212.858 417.32 212.666 417.704 212.613 418.184ZM223.881 423.208C222.697 423.208 221.678 422.824 220.825 422.056C219.971 421.267 219.545 420.243 219.545 418.984C219.545 417.725 219.971 416.717 220.825 415.96C221.689 415.192 222.718 414.808 223.913 414.808C224.787 414.808 225.577 414.984 226.281 415.336V417.256C225.587 416.936 224.91 416.776 224.249 416.776C223.545 416.776 222.953 416.984 222.473 417.4C222.003 417.805 221.769 418.339 221.769 419C221.769 419.661 222.009 420.2 222.489 420.616C222.969 421.032 223.555 421.24 224.249 421.24C225.07 421.24 225.79 421.059 226.409 420.696V422.616C225.662 423.011 224.819 423.208 223.881 423.208ZM231.975 423.208C230.791 423.208 229.772 422.824 228.919 422.056C228.065 421.267 227.639 420.243 227.639 418.984C227.639 417.725 228.065 416.717 228.919 415.96C229.783 415.192 230.812 414.808 232.007 414.808C232.881 414.808 233.671 414.984 234.375 415.336V417.256C233.681 416.936 233.004 416.776 232.343 416.776C231.639 416.776 231.047 416.984 230.567 417.4C230.097 417.805 229.863 418.339 229.863 419C229.863 419.661 230.103 420.2 230.583 420.616C231.063 421.032 231.649 421.24 232.343 421.24C233.164 421.24 233.884 421.059 234.503 420.696V422.616C233.756 423.011 232.913 423.208 231.975 423.208ZM237.956 419C237.956 419.64 238.164 420.173 238.58 420.6C238.996 421.027 239.524 421.24 240.164 421.24C240.804 421.24 241.332 421.027 241.748 420.6C242.164 420.163 242.372 419.629 242.372 419C242.372 418.36 242.164 417.832 241.748 417.416C241.332 416.989 240.804 416.776 240.164 416.776C239.524 416.776 238.996 416.989 238.58 417.416C238.164 417.832 237.956 418.36 237.956 419ZM235.732 419C235.732 417.816 236.148 416.824 236.98 416.024C237.802 415.213 238.863 414.808 240.164 414.808C241.466 414.808 242.527 415.213 243.348 416.024C244.18 416.835 244.596 417.827 244.596 419C244.596 420.195 244.18 421.197 243.348 422.008C242.516 422.808 241.455 423.208 240.164 423.208C238.874 423.208 237.812 422.808 236.98 422.008C236.148 421.197 235.732 420.195 235.732 419ZM250.964 423H246.26V415.016H250.772C251.583 415.016 252.212 415.208 252.66 415.592C253.108 415.965 253.332 416.456 253.332 417.064C253.332 417.864 253.007 418.429 252.356 418.76C253.37 419.112 253.876 419.795 253.876 420.808C253.876 421.491 253.62 422.029 253.108 422.424C252.596 422.808 251.882 423 250.964 423ZM248.484 419.624V421.416H250.404C251.183 421.416 251.572 421.117 251.572 420.52C251.572 419.923 251.183 419.624 250.404 419.624H248.484ZM248.484 416.568V418.2H250.052C250.767 418.2 251.124 417.928 251.124 417.384C251.124 416.84 250.767 416.568 250.052 416.568H248.484Z" fill="#232324"/>
<rect x="153.5" y="346.5" width="191" height="91" rx="15.5" stroke="url(#paint3_linear_1522_591)"/>
<rect x="0.5" y="496.5" width="145" height="55" rx="15.5" fill="#F6F6F6"/>
<path d="M18.832 519.224C18.064 519.224 17.4987 519.117 17.136 518.904V516.872C17.4987 517.075 17.9307 517.176 18.432 517.176C18.9013 517.176 19.2747 517.069 19.552 516.856C19.8187 516.653 20.1067 516.243 20.416 515.624L16.176 507.8H18.72L21.552 513.304L24.032 507.8H26.48L22.352 516.568C21.52 518.339 20.3467 519.224 18.832 519.224ZM27.3863 521.032H25.2263V517.112H26.2503C26.8583 516.163 27.1783 514.648 27.2103 512.568L27.2423 511.016H33.9623V517.112H35.2743V521.032H33.1463V519H27.3863V521.032ZM28.5543 517.112H31.7543V512.904H29.2583C29.2583 514.557 29.0236 515.96 28.5543 517.112ZM38.5188 515C38.5188 515.64 38.7268 516.173 39.1428 516.6C39.5588 517.027 40.0868 517.24 40.7268 517.24C41.3668 517.24 41.8948 517.027 42.3108 516.6C42.7268 516.163 42.9348 515.629 42.9348 515C42.9348 514.36 42.7268 513.832 42.3108 513.416C41.8948 512.989 41.3668 512.776 40.7268 512.776C40.0868 512.776 39.5588 512.989 39.1428 513.416C38.7268 513.832 38.5188 514.36 38.5188 515ZM36.2948 515C36.2948 513.816 36.7108 512.824 37.5428 512.024C38.3641 511.213 39.4254 510.808 40.7268 510.808C42.0281 510.808 43.0894 511.213 43.9108 512.024C44.7428 512.835 45.1588 513.827 45.1588 515C45.1588 516.195 44.7428 517.197 43.9108 518.008C43.0788 518.808 42.0174 519.208 40.7268 519.208C39.4361 519.208 38.3748 518.808 37.5428 518.008C36.7108 517.197 36.2948 516.195 36.2948 515ZM51.3668 511.528C52.4121 511.528 53.2601 511.853 53.9108 512.504C54.5721 513.165 54.9028 514.029 54.9028 515.096C54.9028 516.301 54.5028 517.288 53.7028 518.056C52.9241 518.824 51.9321 519.208 50.7268 519.208C49.3081 519.208 48.2254 518.739 47.4788 517.8C46.7214 516.851 46.3428 515.587 46.3428 514.008C46.3428 512.931 46.4921 512.029 46.7908 511.304C47.0894 510.568 47.5694 509.96 48.2308 509.48C48.9134 508.979 49.6921 508.584 50.5668 508.296C51.4308 507.997 52.5668 507.736 53.9748 507.512V509.608L53.1268 509.752L52.2948 509.896C52.0708 509.939 51.8201 509.992 51.5428 510.056C51.1268 510.141 50.6734 510.275 50.1828 510.456C49.8414 510.584 49.4948 510.808 49.1428 511.128C48.7054 511.512 48.4548 512.099 48.3908 512.888C49.1054 511.981 50.0974 511.528 51.3668 511.528ZM50.7108 517.304C51.2868 517.304 51.7561 517.112 52.1188 516.728C52.4921 516.344 52.6788 515.853 52.6788 515.256C52.6788 514.691 52.5028 514.243 52.1508 513.912C51.7988 513.571 51.3454 513.4 50.7908 513.4C50.3534 513.4 49.9268 513.517 49.5108 513.752C49.0948 513.976 48.7748 514.264 48.5508 514.616C48.5614 515.48 48.7534 516.147 49.1268 516.616C49.5108 517.075 50.0388 517.304 50.7108 517.304ZM58.8288 519H56.5728V511.016H58.8288V513.976H62.1088V511.016H64.3648V519H62.1088V515.864H58.8288V519ZM76.9408 519H74.7168V511.016H76.9408V519ZM70.5728 519H66.5728V511.016H68.8288V513.352H70.4608C71.4634 513.352 72.2634 513.608 72.8608 514.12C73.4581 514.632 73.7568 515.315 73.7568 516.168C73.7568 516.979 73.4794 517.656 72.9248 518.2C72.3594 518.733 71.5754 519 70.5728 519ZM68.8288 515.032V517.256H70.1088C70.5461 517.256 70.8874 517.16 71.1328 516.968C71.3781 516.776 71.5008 516.504 71.5008 516.152C71.5008 515.8 71.3781 515.528 71.1328 515.336C70.8874 515.133 70.5461 515.032 70.1088 515.032H68.8288ZM81.2629 519H79.1509V511.016H81.3749V515.72L84.9909 511.016H87.1029V519H84.8789V514.296L81.2629 519ZM83.1189 510.136C82.2655 510.136 81.5722 509.891 81.0389 509.4C80.5055 508.899 80.2335 508.232 80.2229 507.4H81.9189C81.9189 507.752 82.0255 508.035 82.2389 508.248C82.4522 508.461 82.7402 508.568 83.1029 508.568C83.4655 508.568 83.7482 508.461 83.9509 508.248C84.1642 508.035 84.2762 507.752 84.2869 507.4H85.9989C85.9882 508.243 85.7109 508.909 85.1669 509.4C84.6335 509.891 83.9509 510.136 83.1189 510.136ZM19.216 537H17.104V529.016H19.328V533.72L22.944 529.016H25.056V537H22.832V532.296L19.216 537ZM29.5163 537H27.2603V529.016H29.5163V531.976H32.7963V529.016H35.0523V537H32.7963V533.864H29.5163V537ZM41.1483 537H38.8923V530.904H36.3963V529.016H43.6763V530.904H41.1483V537ZM48.9143 537.208C47.6663 537.208 46.6156 536.824 45.7623 536.056C44.9089 535.288 44.4823 534.269 44.4823 533C44.4823 531.816 44.8663 530.824 45.6343 530.024C46.4023 529.213 47.4049 528.808 48.6423 528.808C49.7943 528.808 50.7169 529.219 51.4103 530.04C52.1036 530.861 52.4503 531.859 52.4503 533.032V533.624H46.7223C46.8396 534.157 47.1329 534.568 47.6023 534.856C48.0823 535.144 48.6796 535.288 49.3943 535.288C50.2796 535.288 51.1329 535.053 51.9543 534.584V536.392C51.2396 536.936 50.2263 537.208 48.9143 537.208ZM46.7223 532.184H50.2263C50.2049 531.725 50.0396 531.347 49.7303 531.048C49.4316 530.739 49.0369 530.584 48.5463 530.584C48.0449 530.584 47.6289 530.733 47.2983 531.032C46.9676 531.32 46.7756 531.704 46.7223 532.184ZM59.0621 528.808C60.1501 528.808 61.0461 529.213 61.7501 530.024C62.4648 530.813 62.8221 531.811 62.8221 533.016C62.8221 534.2 62.4648 535.197 61.7501 536.008C61.0461 536.808 60.1501 537.208 59.0621 537.208C57.9421 537.208 57.0675 536.813 56.4381 536.024V540.2H54.1821V529.016H56.4381V529.992C57.0355 529.203 57.9101 528.808 59.0621 528.808ZM58.4221 530.776C57.9955 530.776 57.6061 530.888 57.2541 531.112C56.9021 531.336 56.6301 531.624 56.4381 531.976V534.056C56.6301 534.408 56.9021 534.696 57.2541 534.92C57.6061 535.133 57.9955 535.24 58.4221 535.24C59.0621 535.24 59.5795 535.027 59.9741 534.6C60.3795 534.163 60.5821 533.635 60.5821 533.016C60.5821 532.387 60.3795 531.853 59.9741 531.416C59.5795 530.989 59.0621 530.776 58.4221 530.776ZM68.351 528.92V525.8H70.575V528.92C71.9403 528.984 73.0123 529.395 73.791 530.152C74.5697 530.899 74.959 531.848 74.959 533C74.959 534.173 74.575 535.123 73.807 535.848C73.0497 536.563 71.9723 536.973 70.575 537.08V540.2H68.351V537.08C66.9857 537.037 65.903 536.632 65.103 535.864C64.335 535.096 63.951 534.141 63.951 533C63.951 531.837 64.335 530.893 65.103 530.168C65.8817 529.443 66.9643 529.027 68.351 528.92ZM68.351 535.272V530.744C67.6683 530.787 67.1243 531.011 66.719 531.416C66.3243 531.811 66.127 532.339 66.127 533C66.127 533.661 66.3243 534.2 66.719 534.616C67.1243 535.021 67.6683 535.24 68.351 535.272ZM70.575 530.744V535.272C71.2577 535.24 71.7963 535.021 72.191 534.616C72.5963 534.2 72.799 533.661 72.799 533C72.799 532.339 72.5963 531.811 72.191 531.416C71.7963 531.011 71.2577 530.787 70.575 530.744ZM80.5236 537.208C79.2756 537.208 78.225 536.824 77.3716 536.056C76.5183 535.288 76.0916 534.269 76.0916 533C76.0916 531.816 76.4756 530.824 77.2436 530.024C78.0116 529.213 79.0143 528.808 80.2516 528.808C81.4036 528.808 82.3263 529.219 83.0196 530.04C83.713 530.861 84.0596 531.859 84.0596 533.032V533.624H78.3316C78.449 534.157 78.7423 534.568 79.2116 534.856C79.6916 535.144 80.289 535.288 81.0036 535.288C81.889 535.288 82.7423 535.053 83.5636 534.584V536.392C82.849 536.936 81.8356 537.208 80.5236 537.208ZM78.3316 532.184H81.8356C81.8143 531.725 81.649 531.347 81.3396 531.048C81.041 530.739 80.6463 530.584 80.1556 530.584C79.6543 530.584 79.2383 530.733 78.9076 531.032C78.577 531.32 78.385 531.704 78.3316 532.184ZM87.9035 537H85.7915V529.016H88.0155V533.72L91.6315 529.016H93.7435V537H91.5195V532.296L87.9035 537ZM89.7595 528.136C88.9062 528.136 88.2128 527.891 87.6795 527.4C87.1462 526.899 86.8742 526.232 86.8635 525.4H88.5595C88.5595 525.752 88.6662 526.035 88.8795 526.248C89.0928 526.461 89.3808 526.568 89.7435 526.568C90.1062 526.568 90.3888 526.461 90.5915 526.248C90.8048 526.035 90.9168 525.752 90.9275 525.4H92.6395C92.6288 526.243 92.3515 526.909 91.8075 527.4C91.2742 527.891 90.5915 528.136 89.7595 528.136ZM99.7558 537.208C98.5718 537.208 97.5531 536.824 96.6998 536.056C95.8464 535.267 95.4198 534.243 95.4198 532.984C95.4198 531.725 95.8464 530.717 96.6998 529.96C97.5638 529.192 98.5931 528.808 99.7878 528.808C100.662 528.808 101.452 528.984 102.156 529.336V531.256C101.462 530.936 100.785 530.776 100.124 530.776C99.4198 530.776 98.8278 530.984 98.3478 531.4C97.8784 531.805 97.6438 532.339 97.6438 533C97.6438 533.661 97.8838 534.2 98.3638 534.616C98.8438 535.032 99.4304 535.24 100.124 535.24C100.945 535.24 101.665 535.059 102.284 534.696V536.616C101.537 537.011 100.694 537.208 99.7558 537.208Z" fill="#232324"/>
<rect x="0.5" y="496.5" width="145" height="55" rx="15.5" stroke="url(#paint4_linear_1522_591)"/>
<rect x="106" y="688" width="138" height="138" rx="24" fill="url(#paint5_linear_1522_591)"/>
<path d="M139.515 742.629H143.75L139.963 764.506H135.812L139.515 742.629Z" fill="white"/>
<path fill-rule="evenodd" clip-rule="evenodd" d="M163.103 751.604H160.925L160.308 755.11H162.504L160.897 764.506H164.908L166.545 755.11H168.751L169.368 751.604H167.156L167.937 747.117H163.87L163.103 751.604ZM163.103 751.604H167.156L166.545 755.11H162.504L163.103 751.604Z" fill="white"/>
<path fill-rule="evenodd" clip-rule="evenodd" d="M159.168 751.604H154.989L154.589 753.965C154.5 753.76 154.4 753.562 154.288 753.371C153.932 752.736 153.446 752.24 152.829 751.885C152.231 751.511 151.502 751.324 150.642 751.324C149.482 751.324 148.398 751.614 147.388 752.193C146.397 752.773 145.565 753.577 144.892 754.606C144.219 755.615 143.798 756.756 143.63 758.027C143.48 759.261 143.583 760.393 143.938 761.421C144.312 762.431 144.892 763.244 145.677 763.861C146.481 764.46 147.453 764.759 148.594 764.759C149.454 764.759 150.249 764.591 150.978 764.254C151.726 763.899 152.381 763.413 152.941 762.795C153.005 762.726 153.067 762.655 153.127 762.583L152.801 764.506H156.952L159.168 751.604ZM153.127 762.583C153.134 762.575 153.14 762.568 153.147 762.56C153.615 761.999 154.005 761.367 154.316 760.664C154.69 759.841 154.933 758.972 155.045 758.055C155.157 757.177 155.148 756.335 155.017 755.531C154.938 754.968 154.796 754.446 154.589 753.965L153.127 762.583ZM148.089 759.654C147.958 759.149 147.93 758.616 148.005 758.055C148.099 757.457 148.323 756.905 148.678 756.401C149.034 755.877 149.473 755.466 149.996 755.167C150.539 754.867 151.1 754.727 151.679 754.746C152.072 754.764 152.409 754.867 152.689 755.054C152.988 755.223 153.231 755.466 153.418 755.784C153.624 756.083 153.764 756.429 153.839 756.821C153.914 757.195 153.923 757.597 153.867 758.027C153.792 758.476 153.643 758.906 153.418 759.318C153.194 759.729 152.913 760.094 152.577 760.411C152.259 760.711 151.904 760.944 151.511 761.113C151.118 761.281 150.716 761.356 150.305 761.337C149.744 761.337 149.267 761.187 148.875 760.888C148.501 760.57 148.239 760.159 148.089 759.654Z" fill="white"/>
<path fill-rule="evenodd" clip-rule="evenodd" d="M127.423 744.873L126.694 748.94H128.15L127.481 752.81H134.379L133.706 756.625H126.822L125.46 764.506H121L124.338 744.873H127.423ZM128.853 744.873H136.006L135.276 748.94H128.15L128.853 744.873Z" fill="white"/>
<path d="M127.423 744.873L126.694 748.94H128.15L128.853 744.873H127.423Z" fill="white"/>
<path fill-rule="evenodd" clip-rule="evenodd" d="M222.983 732C219.237 732 216.2 735.037 216.2 738.782C216.2 742.528 219.237 745.565 222.983 745.565C226.729 745.565 229.765 742.528 229.765 738.782C229.765 735.037 226.729 732 222.983 732ZM220.678 741.515H219.605L221.558 735.969H222.798L224.753 741.515H223.681L223.221 740.147H221.136L220.678 741.515ZM222.156 737.106L221.407 739.34H222.95L222.2 737.106H222.156ZM226.374 735.969V741.515H225.369V735.969H226.374Z" fill="white"/>
<path fill-rule="evenodd" clip-rule="evenodd" d="M196.653 782.772C209.917 782.772 220.669 772.02 220.669 758.756C220.669 745.492 209.917 734.739 196.653 734.739C183.389 734.739 172.636 745.492 172.636 758.756C172.636 772.02 183.389 782.772 196.653 782.772ZM199.323 755.531C199.379 755.868 199.379 756.242 199.323 756.653L197.949 764.506H202.296L203.727 756.204C203.858 755.269 203.811 754.437 203.587 753.708C203.381 752.96 202.979 752.371 202.38 751.941C201.782 751.511 200.959 751.296 199.912 751.296C199.015 751.296 198.239 751.492 197.584 751.885C196.949 752.259 196.406 752.764 195.958 753.399L196.238 751.604H192.031L189.815 764.506H194.022L195.397 756.597C195.471 756.129 195.621 755.727 195.845 755.391C196.07 755.036 196.36 754.764 196.715 754.577C197.07 754.391 197.472 754.297 197.921 754.297C198.388 754.297 198.725 754.419 198.931 754.662C199.155 754.886 199.286 755.176 199.323 755.531ZM176.261 758.027C176.448 756.718 176.924 755.559 177.691 754.549C178.458 753.54 179.421 752.745 180.58 752.165C181.758 751.586 183.02 751.296 184.366 751.296C185.713 751.296 186.881 751.595 187.872 752.193C188.882 752.773 189.639 753.577 190.144 754.606C190.649 755.615 190.817 756.765 190.649 758.055C190.481 759.364 190.013 760.524 189.247 761.533C188.48 762.543 187.517 763.338 186.358 763.917C185.198 764.497 183.927 764.787 182.543 764.787C181.216 764.787 180.047 764.497 179.037 763.917C178.046 763.319 177.298 762.515 176.794 761.505C176.289 760.477 176.111 759.318 176.261 758.027ZM180.664 759.626C180.496 759.14 180.458 758.616 180.552 758.055C180.645 757.457 180.86 756.915 181.197 756.429C181.534 755.924 181.954 755.522 182.459 755.223C182.964 754.923 183.497 754.783 184.058 754.802C184.619 754.821 185.086 754.989 185.46 755.307C185.834 755.606 186.096 755.999 186.246 756.485C186.414 756.952 186.461 757.466 186.386 758.027C186.292 758.626 186.068 759.177 185.713 759.682C185.376 760.168 184.955 760.561 184.451 760.86C183.964 761.141 183.431 761.272 182.852 761.253C182.291 761.253 181.823 761.103 181.449 760.804C181.094 760.505 180.832 760.112 180.664 759.626ZM210.364 764.787C209.055 764.787 207.914 764.553 206.942 764.086C205.989 763.599 205.241 762.917 204.698 762.038C204.175 761.159 203.913 760.112 203.913 758.897C203.913 757.831 204.109 756.84 204.502 755.924C204.895 755.008 205.446 754.213 206.157 753.54C206.886 752.848 207.746 752.306 208.737 751.913C209.728 751.52 210.822 751.324 212.019 751.324C213.328 751.324 214.422 751.558 215.3 752.025C216.198 752.474 216.871 753.128 217.32 753.988C217.787 754.83 218.021 755.849 218.021 757.046C218.021 757.345 217.993 757.672 217.937 758.027C217.881 758.383 217.806 758.691 217.712 758.953H208.067C208.059 759.37 208.104 759.753 208.204 760.103C208.373 760.626 208.653 761.028 209.046 761.309C209.438 761.589 209.943 761.73 210.56 761.73C211.271 761.73 211.888 761.58 212.411 761.281C212.935 760.982 213.384 760.57 213.758 760.047L217.404 760.972C216.731 762.206 215.796 763.151 214.599 763.805C213.421 764.46 212.009 764.787 210.364 764.787ZM213.757 756.597H208.513C208.7 756.073 208.934 755.634 209.214 755.279C209.513 754.923 209.859 754.652 210.252 754.465C210.663 754.26 211.121 754.157 211.626 754.157C212.112 754.157 212.505 754.26 212.804 754.465C213.122 754.671 213.356 754.961 213.505 755.335C213.662 755.683 213.746 756.103 213.757 756.597Z" fill="white"/>
<path d="M167.156 751.604H163.103L162.504 755.11H166.545L167.156 751.604Z" fill="white"/>
<path d="M155.045 758.055C155.157 757.177 155.148 756.335 155.017 755.531C154.938 754.968 154.796 754.446 154.589 753.965L153.127 762.583L153.147 762.56C153.615 761.999 154.005 761.367 154.316 760.664C154.69 759.841 154.933 758.972 155.045 758.055Z" fill="white"/>
<path d="M266 180C266 179.724 265.776 179.5 265.5 179.5C265.224 179.5 265 179.724 265 180H266ZM174.646 684.354C174.842 684.549 175.158 684.549 175.354 684.354L178.536 681.172C178.731 680.976 178.731 680.66 178.536 680.464C178.34 680.269 178.024 680.269 177.828 680.464L175 683.293L172.172 680.464C171.976 680.269 171.66 680.269 171.464 680.464C171.269 680.66 171.269 680.976 171.464 681.172L174.646 684.354ZM265 180V301H266V180H265ZM241.5 324.5H132V325.5H241.5V324.5ZM107.5 349V436H108.5V349H107.5ZM132 460.5H205V459.5H132V460.5ZM228.5 484V620H229.5V484H228.5ZM205 643.5H199V644.5H205V643.5ZM174.5 668V684H175.5V668H174.5ZM199 643.5C185.469 643.5 174.5 654.469 174.5 668H175.5C175.5 655.021 186.021 644.5 199 644.5V643.5ZM228.5 620C228.5 632.979 217.979 643.5 205 643.5V644.5C218.531 644.5 229.5 633.531 229.5 620H228.5ZM205 460.5C217.979 460.5 228.5 471.021 228.5 484H229.5C229.5 470.469 218.531 459.5 205 459.5V460.5ZM107.5 436C107.5 449.531 118.469 460.5 132 460.5V459.5C119.021 459.5 108.5 448.979 108.5 436H107.5ZM132 324.5C118.469 324.5 107.5 335.469 107.5 349H108.5C108.5 336.021 119.021 325.5 132 325.5V324.5ZM265 301C265 313.979 254.479 324.5 241.5 324.5V325.5C255.031 325.5 266 314.531 266 301H265Z" fill="#C4C4C4"/>
<path d="M96.5 78C96.5 77.7239 96.2761 77.5 96 77.5C95.7239 77.5 95.5 77.7239 95.5 78H96.5ZM174.646 684.354C174.842 684.549 175.158 684.549 175.354 684.354L178.536 681.172C178.731 680.976 178.731 680.66 178.536 680.464C178.34 680.269 178.024 680.269 177.828 680.464L175 683.293L172.172 680.464C171.976 680.269 171.66 680.269 171.464 680.464C171.269 680.66 171.269 680.976 171.464 681.172L174.646 684.354ZM95.5 78V177H96.5V78H95.5ZM120 201.5H235V200.5H120V201.5ZM258.5 225V301H259.5V225H258.5ZM235 324.5H126V325.5H235V324.5ZM101.5 349V436H102.5V349H101.5ZM126 460.5H212V459.5H126V460.5ZM235.5 484V620H236.5V484H235.5ZM212 643.5H199V644.5H212V643.5ZM174.5 668V684H175.5V668H174.5ZM199 643.5C185.469 643.5 174.5 654.469 174.5 668H175.5C175.5 655.021 186.021 644.5 199 644.5V643.5ZM235.5 620C235.5 632.979 224.979 643.5 212 643.5V644.5C225.531 644.5 236.5 633.531 236.5 620H235.5ZM212 460.5C224.979 460.5 235.5 471.021 235.5 484H236.5C236.5 470.469 225.531 459.5 212 459.5V460.5ZM101.5 436C101.5 449.531 112.469 460.5 126 460.5V459.5C113.021 459.5 102.5 448.979 102.5 436H101.5ZM126 324.5C112.469 324.5 101.5 335.469 101.5 349H102.5C102.5 336.021 113.021 325.5 126 325.5V324.5ZM258.5 301C258.5 313.979 247.979 324.5 235 324.5V325.5C248.531 325.5 259.5 314.531 259.5 301H258.5ZM235 201.5C247.979 201.5 258.5 212.021 258.5 225H259.5C259.5 211.469 248.531 200.5 235 200.5V201.5ZM95.5 177C95.5 190.531 106.469 201.5 120 201.5V200.5C107.021 200.5 96.5 189.979 96.5 177H95.5Z" fill="#C4C4C4"/>
<path d="M96.5 302C96.5 301.724 96.2761 301.5 96 301.5C95.7239 301.5 95.5 301.724 95.5 302H96.5ZM174.646 684.354C174.842 684.549 175.158 684.549 175.354 684.354L178.536 681.172C178.731 680.976 178.731 680.66 178.536 680.464C178.34 680.269 178.024 680.269 177.828 680.464L175 683.293L172.172 680.464C171.976 680.269 171.66 680.269 171.464 680.464C171.269 680.66 171.269 680.976 171.464 681.172L174.646 684.354ZM95.5 302V436H96.5V302H95.5ZM120 460.5H218V459.5H120V460.5ZM241.5 484V620H242.5V484H241.5ZM218 643.5H199V644.5H218V643.5ZM174.5 668V684H175.5V668H174.5ZM199 643.5C185.469 643.5 174.5 654.469 174.5 668H175.5C175.5 655.021 186.021 644.5 199 644.5V643.5ZM241.5 620C241.5 632.979 230.979 643.5 218 643.5V644.5C231.531 644.5 242.5 633.531 242.5 620H241.5ZM218 460.5C230.979 460.5 241.5 471.021 241.5 484H242.5C242.5 470.469 231.531 459.5 218 459.5V460.5ZM95.5 436C95.5 449.53 106.469 460.5 120 460.5V459.5C107.021 459.5 96.5 448.978 96.5 436H95.5Z" fill="#C4C4C4"/>
<path d="M249.5 442C249.5 441.724 249.276 441.5 249 441.5C248.724 441.5 248.5 441.724 248.5 442H249.5ZM174.646 684.354C174.842 684.549 175.158 684.549 175.354 684.354L178.536 681.172C178.731 680.976 178.731 680.66 178.536 680.464C178.34 680.269 178.024 680.269 177.828 680.464L175 683.293L172.172 680.464C171.976 680.269 171.66 680.269 171.464 680.464C171.269 680.66 171.269 680.976 171.464 681.172L174.646 684.354ZM248.5 442V620H249.5V442H248.5ZM225 643.5H199V644.5H225V643.5ZM174.5 668V684H175.5V668H174.5ZM199 643.5C185.469 643.5 174.5 654.469 174.5 668H175.5C175.5 655.021 186.021 644.5 199 644.5V643.5ZM248.5 620C248.5 632.979 237.979 643.5 225 643.5V644.5C238.531 644.5 249.5 633.531 249.5 620H248.5Z" fill="#C4C4C4"/>
<path d="M73.5 556C73.5 555.724 73.2761 555.5 73 555.5C72.7239 555.5 72.5 555.724 72.5 556H73.5ZM174.646 684.354C174.842 684.549 175.158 684.549 175.354 684.354L178.536 681.172C178.731 680.976 178.731 680.66 178.536 680.464C178.34 680.269 178.024 680.269 177.828 680.464L175 683.293L172.172 680.464C171.976 680.269 171.66 680.269 171.464 680.464C171.269 680.66 171.269 680.976 171.464 681.172L174.646 684.354ZM72.5 556V620H73.5V556H72.5ZM97 644.5H151V643.5H97V644.5ZM174.5 668V684H175.5V668H174.5ZM151 644.5C163.979 644.5 174.5 655.021 174.5 668H175.5C175.5 654.469 164.531 643.5 151 643.5V644.5ZM72.5 620C72.5 633.531 83.469 644.5 97 644.5V643.5C84.0213 643.5 73.5 632.979 73.5 620H72.5Z" fill="#C4C4C4"/>
<defs>
<linearGradient id="paint0_linear_1522_591" x1="355" y1="95.1985" x2="303.633" y2="233.583" gradientUnits="userSpaceOnUse">
<stop stop-color="#125EF3"/>
<stop offset="1" stop-color="#C024E7"/>
</linearGradient>
<linearGradient id="paint1_linear_1522_591" x1="192" y1="-6.80146" x2="143.34" y2="133.811" gradientUnits="userSpaceOnUse">
<stop stop-color="#125EF3"/>
<stop offset="1" stop-color="#C024E7"/>
</linearGradient>
<linearGradient id="paint2_linear_1522_591" x1="192" y1="217.199" x2="143.34" y2="357.811" gradientUnits="userSpaceOnUse">
<stop stop-color="#125EF3"/>
<stop offset="1" stop-color="#C024E7"/>
</linearGradient>
<linearGradient id="paint3_linear_1522_591" x1="345" y1="337.544" x2="273.935" y2="502.72" gradientUnits="userSpaceOnUse">
<stop stop-color="#125EF3"/>
<stop offset="1" stop-color="#C024E7"/>
</linearGradient>
<linearGradient id="paint4_linear_1522_591" x1="146" y1="490.853" x2="109.316" y2="597.372" gradientUnits="userSpaceOnUse">
<stop stop-color="#125EF3"/>
<stop offset="1" stop-color="#C024E7"/>
</linearGradient>
<linearGradient id="paint5_linear_1522_591" x1="244" y1="675.316" x2="98.0347" y2="837.883" gradientUnits="userSpaceOnUse">
<stop stop-color="#125EF3"/>
<stop offset="1" stop-color="#C024E7"/>
</linearGradient>
</defs>
</svg>
