<svg width="30" height="31" viewBox="0 0 30 31" fill="none" xmlns="http://www.w3.org/2000/svg">
<path d="M17.5 14.25C16.5054 14.25 15.5516 13.8549 14.8483 13.1517C14.1451 12.4484 13.75 11.4946 13.75 10.5V5.5H8.75C8.08696 5.5 7.45107 5.76339 6.98223 6.23223C6.51339 6.70107 6.25 7.33696 6.25 8V24.25C6.25 24.913 6.51339 25.5489 6.98223 26.0178C7.45107 26.4866 8.08696 26.75 8.75 26.75H20C20.663 26.75 21.2989 26.4866 21.7678 26.0178C22.2366 25.5489 22.5 24.913 22.5 24.25V14.25H17.5ZM15 10.5C15 11.163 15.2634 11.7989 15.7322 12.2678C16.2011 12.7366 16.837 13 17.5 13H21.9825L15 6.0175V10.5ZM8.75 4.25H15L23.75 13V24.25C23.75 25.2446 23.3549 26.1984 22.6517 26.9017C21.9484 27.6049 20.9946 28 20 28H8.75C7.75544 28 6.80161 27.6049 6.09835 26.9017C5.39509 26.1984 5 25.2446 5 24.25V8C5 7.00544 5.39509 6.05161 6.09835 5.34835C6.80161 4.64509 7.75544 4.25 8.75 4.25ZM11.25 24.25V21.75H8.75V20.5H11.25V18H12.5V20.5H15V21.75H12.5V24.25H11.25Z" fill="#131418"/>
</svg>