<svg width="16" height="19" viewBox="0 0 16 19" fill="none" xmlns="http://www.w3.org/2000/svg">
<path d="M4.43787 13.6091C4.62977 13.1613 4.91006 12.7522 5.28058 12.3816C5.28074 12.3814 5.2809 12.3812 5.28107 12.3811L8 9.71026L10.7189 12.3811C10.7191 12.3812 10.7193 12.3814 10.7194 12.3816C11.09 12.7522 11.3702 13.1613 11.5621 13.6091C11.7537 14.0561 11.85 14.5359 11.85 15.05V15.275C11.85 15.3295 11.8431 15.3944 11.8279 15.4706L11.7394 15.9129L12.0752 15.6116C12.7403 15.0148 13.2529 14.3186 13.6117 13.5237C13.9706 12.7293 14.15 11.8875 14.15 11C14.15 10.1477 13.9924 9.3404 13.6765 8.57949L13.6765 8.57934C13.3601 7.81941 12.9029 7.14074 12.3061 6.54393L12.2201 6.45801L12.1183 6.52423C11.7966 6.7333 11.4598 6.88938 11.1076 6.99311L11.1074 6.99318C10.7546 7.09774 10.3939 7.15 10.025 7.15C9.02825 7.15 8.1685 6.82174 7.43844 6.16359L7.43839 6.16354C6.7064 5.50424 6.28636 4.69583 6.17399 3.73262L6.14158 3.45486L5.92811 3.63549C5.27237 4.19035 4.69134 4.76686 4.18546 5.36515L4.1854 5.36521C3.67994 5.96368 3.25367 6.57143 2.9072 7.18857C2.55963 7.80716 2.29649 8.43937 2.1184 9.08512C1.93972 9.73059 1.85 10.369 1.85 11C1.85 11.8875 2.02935 12.7293 2.38828 13.5237C2.74709 14.3186 3.25973 15.0148 3.92481 15.6116L4.26056 15.9129L4.17209 15.4706C4.15686 15.3944 4.15 15.3295 4.15 15.275V15.05C4.15 14.5359 4.24628 14.0561 4.43787 13.6091ZM8.10512 12.193L8 12.0897L7.89488 12.193L6.46987 13.593L6.46893 13.5939C6.2724 13.7905 6.11981 14.0147 6.01213 14.2659C5.90425 14.5176 5.85 14.7794 5.85 15.05C5.85 15.6249 6.06318 16.1216 6.48313 16.5322C6.9026 16.9431 7.41097 17.15 8 17.15C8.58906 17.15 9.09775 16.9431 9.51787 16.5322L9.51797 16.5322C9.93722 16.1215 10.15 15.6249 10.15 15.05C10.15 14.7641 10.0963 14.4972 9.98711 14.2512L9.98704 14.251C9.87916 14.0086 9.72668 13.7896 9.53107 13.5939L9.53012 13.593L8.10512 12.193ZM10.9281 5.24813L10.9285 5.24792C11.2086 5.11188 11.4544 4.9094 11.6666 4.64435C11.6668 4.64414 11.667 4.64392 11.6671 4.6437L12.0353 4.19368C13.1933 4.8752 14.1127 5.80974 14.7949 6.99961C15.4983 8.22648 15.85 9.55902 15.85 11C15.85 13.1944 15.0902 15.0477 13.5689 16.5689C12.0477 18.0902 10.1944 18.85 8 18.85C5.80561 18.85 3.95235 18.0902 2.43107 16.5689C0.909785 15.0477 0.15 13.1944 0.15 11C0.15 8.88622 0.858093 6.87542 2.28324 4.96468L2.28326 4.96465C3.66616 3.1097 5.52039 1.53846 7.85 0.252503V3.3C7.85 3.90547 8.06117 4.41957 8.48304 4.83216C8.90346 5.24399 9.42059 5.45 10.025 5.45C10.3465 5.45 10.6482 5.38302 10.9281 5.24813Z" fill="#131418" stroke="#F0F0F0" stroke-width="0.3"/>
</svg>
