<svg width="24" height="24" viewBox="0 0 24 24" fill="none" xmlns="http://www.w3.org/2000/svg">
<path fill-rule="evenodd" clip-rule="evenodd" d="M2.57143 7.60706C2.03887 7.60706 1.60715 8.03878 1.60715 8.57134V15.4285C1.60715 15.961 2.03887 16.3928 2.57143 16.3928H6C6.53256 16.3928 6.96429 15.961 6.96429 15.4285V8.57134C6.96429 8.03878 6.53256 7.60706 6 7.60706H2.57143ZM8.46429 11.2499V8.57134C8.46429 7.21035 7.36099 6.10706 6 6.10706H2.57143C1.21045 6.10706 0.107147 7.21035 0.107147 8.57134V15.4285C0.107147 16.7895 1.21045 17.8928 2.57143 17.8928H6C7.36099 17.8928 8.46429 16.7895 8.46429 15.4285V12.7499H15.5357V15.4285C15.5357 16.7895 16.639 17.8928 18 17.8928H21.4286C22.7896 17.8928 23.8929 16.7895 23.8929 15.4285V8.57134C23.8929 7.21035 22.7896 6.10706 21.4286 6.10706H18C16.639 6.10706 15.5357 7.21035 15.5357 8.57134V11.2499H8.46429ZM18 7.60706C17.4674 7.60706 17.0357 8.03878 17.0357 8.57134V15.4285C17.0357 15.961 17.4674 16.3928 18 16.3928H21.4286C21.9611 16.3928 22.3929 15.961 22.3929 15.4285V8.57134C22.3929 8.03878 21.9611 7.60706 21.4286 7.60706H18Z" fill="#131312"/>
</svg>
