<svg width="28" height="20" viewBox="0 0 28 20" fill="none" xmlns="http://www.w3.org/2000/svg">
<path d="M11.0757 0.841408C10.397 0.512891 9.62908 0.41684 8.89038 0.568075L7.31438 0.868074C6.74623 0.976294 6.21025 1.21269 5.74723 1.55926C5.28421 1.90583 4.90634 2.35346 4.64238 2.86807C2.81971 6.43207 1.44238 9.35074 0.909044 11.8414C0.362377 14.4081 0.695711 16.6067 2.34904 18.6094C3.44371 19.9361 5.32238 19.6681 6.29971 18.5614C7.04638 17.7174 7.89304 16.7414 8.72371 15.7787C8.993 15.4661 9.32654 15.2151 9.70159 15.043C10.0766 14.8709 10.4844 14.7817 10.897 14.7814H17.1037C17.937 14.7814 18.7304 15.1454 19.277 15.7787C20.1064 16.7414 20.9544 17.7174 21.6997 18.5614C22.6784 19.6681 24.5557 19.9361 25.6517 18.6094C27.3037 16.6067 27.6384 14.4094 27.0904 11.8401C26.5584 9.35074 25.1797 6.43207 23.357 2.86941C23.0932 2.35495 22.7156 1.90742 22.2528 1.56086C21.79 1.21429 21.2543 0.977815 20.6864 0.869408L19.109 0.568075C18.3703 0.41684 17.6024 0.512891 16.9237 0.841408C16.7269 0.940397 16.5318 1.04263 16.3384 1.14807C15.8842 1.401 15.3742 1.53665 14.8544 1.54274H13.145C12.6437 1.54274 12.1357 1.40407 11.661 1.14807C11.4672 1.04261 11.2716 0.940373 11.0744 0.841408H11.0757ZM9.24771 2.43874C9.57594 2.36636 9.91886 2.40384 10.2237 2.54541C10.393 2.63074 10.5704 2.72274 10.7544 2.82274C11.4744 3.21207 12.2904 3.44807 13.145 3.44807H14.8544C15.709 3.44807 16.5264 3.21207 17.2464 2.82141C17.429 2.72274 17.6064 2.63074 17.7757 2.54541C18.0464 2.40941 18.385 2.36941 18.753 2.43874L20.329 2.73874C20.9024 2.84807 21.3957 3.21874 21.6624 3.73607C23.5024 7.33341 24.7557 10.0334 25.2277 12.2387C25.681 14.3641 25.3877 15.9347 24.1824 17.3974C24.1268 17.4654 24.0555 17.5189 23.9747 17.5532C23.8939 17.5876 23.8059 17.6019 23.7184 17.5947C23.6051 17.5873 23.4944 17.5575 23.3928 17.5069C23.2911 17.4563 23.2006 17.386 23.1264 17.3001C22.3188 16.3834 21.5166 15.4621 20.7197 14.5361C20.2717 14.0157 19.7168 13.5981 19.0928 13.3116C18.4688 13.0251 17.7903 12.8766 17.1037 12.8761H10.8957C10.2093 12.8767 9.53107 13.0253 8.90729 13.3117C8.2835 13.5982 7.72882 14.0158 7.28104 14.5361C6.45438 15.4947 5.61038 16.4641 4.87304 17.3001C4.79894 17.3858 4.70859 17.456 4.60721 17.5065C4.50582 17.5571 4.39542 17.5871 4.28238 17.5947C4.19484 17.6019 4.10689 17.5876 4.02607 17.5532C3.94525 17.5189 3.87398 17.4654 3.81838 17.3974C2.61171 15.9347 2.31838 14.3641 2.77304 12.2374C3.24371 10.0334 4.49704 7.33341 6.33838 3.73607C6.47016 3.4794 6.65875 3.25615 6.8898 3.08333C7.12084 2.91051 7.38826 2.79266 7.67171 2.73874L9.24771 2.43874ZM13.9984 8.16541C14.352 8.16541 14.6911 8.02493 14.9412 7.77488C15.1912 7.52483 15.3317 7.1857 15.3317 6.83207C15.3317 6.47845 15.1912 6.13931 14.9412 5.88927C14.6911 5.63922 14.352 5.49874 13.9984 5.49874C13.6448 5.49874 13.3056 5.63922 13.0556 5.88927C12.8055 6.13931 12.665 6.47845 12.665 6.83207C12.665 7.1857 12.8055 7.52483 13.0556 7.77488C13.3056 8.02493 13.6448 8.16541 13.9984 8.16541Z" fill="#5B5B5B"/>
</svg>
