<svg width="19" height="25" viewBox="0 0 19 25" fill="none" xmlns="http://www.w3.org/2000/svg">
<path id="Vector" d="M12.5 10.75C11.5054 10.75 10.5516 10.3549 9.84835 9.65165C9.14509 8.94839 8.75 7.99456 8.75 7V2H3.75C3.08696 2 2.45107 2.26339 1.98223 2.73223C1.51339 3.20107 1.25 3.83696 1.25 4.5V20.75C1.25 21.413 1.51339 22.0489 1.98223 22.5178C2.45107 22.9866 3.08696 23.25 3.75 23.25H15C15.663 23.25 16.2989 22.9866 16.7678 22.5178C17.2366 22.0489 17.5 21.413 17.5 20.75V10.75H12.5ZM10 7C10 7.66304 10.2634 8.29893 10.7322 8.76777C11.2011 9.23661 11.837 9.5 12.5 9.5H16.9825L10 2.5175V7ZM3.75 0.75H10L18.75 9.5V20.75C18.75 21.7446 18.3549 22.6984 17.6517 23.4017C16.9484 24.1049 15.9946 24.5 15 24.5H3.75C2.75544 24.5 1.80161 24.1049 1.09835 23.4017C0.395088 22.6984 0 21.7446 0 20.75V4.5C0 3.50544 0.395088 2.55161 1.09835 1.84835C1.80161 1.14509 2.75544 0.75 3.75 0.75ZM6.25 20.75V18.25H3.75V17H6.25V14.5H7.5V17H10V18.25H7.5V20.75H6.25Z" fill="#131418"/>
</svg>
