<svg width="30" height="25" viewBox="0 0 30 25" fill="none" xmlns="http://www.w3.org/2000/svg">
<path d="M2.38407 3.13002C5.35607 -1.03998 11.5501 -1.04498 14.5301 3.12002L14.9951 3.77002L15.4121 3.17702C18.3671 -1.01798 24.5721 -1.05898 27.5821 3.09602C28.5993 4.49969 29.0974 6.21309 28.9912 7.94333C28.8851 9.67357 28.1813 11.3132 27.0001 12.582L15.7321 24.68C15.6385 24.7806 15.5252 24.8608 15.3993 24.9156C15.2733 24.9704 15.1374 24.9987 15.0001 24.9987C14.8627 24.9987 14.7268 24.9704 14.6009 24.9156C14.4749 24.8608 14.3617 24.7806 14.2681 24.68L2.99207 12.538C1.82301 11.2792 1.12411 9.65558 1.01334 7.94123C0.902569 6.22687 1.38673 4.5268 2.38407 3.12802V3.13002ZM12.9041 4.28402C10.7231 1.23402 6.18807 1.23802 4.01207 4.29102C3.2824 5.31492 2.9283 6.55921 3.00955 7.81388C3.09081 9.06855 3.60243 10.2568 4.45807 11.178L15.0021 22.53L25.5361 11.22C26.4016 10.2905 26.9174 9.08925 26.9953 7.82155C27.0732 6.55386 26.7083 5.29847 25.9631 4.27002C23.7581 1.22602 19.2121 1.25702 17.0471 4.33002L15.8181 6.07402C15.7261 6.20439 15.6043 6.31086 15.4628 6.38454C15.3213 6.45822 15.1642 6.49697 15.0046 6.49756C14.8451 6.49815 14.6877 6.46055 14.5457 6.38792C14.4036 6.31528 14.281 6.20971 14.1881 6.08002L12.9031 4.28402H12.9041Z" fill="#C70000"/>
<path d="M12.9041 4.28402C10.7231 1.23402 6.18807 1.23802 4.01207 4.29102C3.2824 5.31492 2.9283 6.55921 3.00955 7.81388C3.09081 9.06855 3.60243 10.2568 4.45807 11.178L15.0021 22.53L25.5361 11.22C26.4016 10.2905 26.9174 9.08925 26.9953 7.82155C27.0732 6.55386 26.7083 5.29847 25.9631 4.27002C23.7581 1.22602 19.2121 1.25702 17.0471 4.33002L15.8181 6.07402C15.7261 6.20439 15.6043 6.31086 15.4628 6.38454C15.3213 6.45822 15.1642 6.49697 15.0046 6.49756C14.8451 6.49815 14.6877 6.46055 14.5457 6.38792C14.4036 6.31528 14.281 6.20971 14.1881 6.08002L12.9031 4.28402H12.9041Z" fill="#C70000"/>
</svg>
