<svg width="30" height="25" viewBox="0 0 30 25" fill="none" xmlns="http://www.w3.org/2000/svg">
<path d="M2.38401 3.13002C5.35601 -1.03998 11.55 -1.04498 14.53 3.12002L14.995 3.77002L15.412 3.17702C18.367 -1.01798 24.572 -1.05898 27.582 3.09602C28.5992 4.49969 29.0973 6.21309 28.9912 7.94333C28.885 9.67357 28.1812 11.3132 27 12.582L15.732 24.68C15.6384 24.7806 15.5251 24.8608 15.3992 24.9156C15.2733 24.9704 15.1374 24.9987 15 24.9987C14.8627 24.9987 14.7268 24.9704 14.6008 24.9156C14.4749 24.8608 14.3616 24.7806 14.268 24.68L2.99201 12.538C1.82295 11.2792 1.12404 9.65558 1.01328 7.94123C0.902508 6.22687 1.38667 4.5268 2.38401 3.12802V3.13002ZM12.904 4.28402C10.723 1.23402 6.18801 1.23802 4.01201 4.29102C3.28234 5.31492 2.92824 6.55921 3.00949 7.81388C3.09075 9.06855 3.60237 10.2568 4.45801 11.178L15.002 22.53L25.536 11.22C26.4016 10.2905 26.9174 9.08925 26.9952 7.82155C27.0731 6.55386 26.7083 5.29847 25.963 4.27002C23.758 1.22602 19.212 1.25702 17.047 4.33002L15.818 6.07402C15.726 6.20439 15.6042 6.31086 15.4627 6.38454C15.3212 6.45822 15.1641 6.49697 15.0046 6.49756C14.845 6.49815 14.6876 6.46055 14.5456 6.38792C14.4035 6.31528 14.2809 6.20971 14.188 6.08002L12.903 4.28402H12.904Z" fill="#131418"/>
</svg>
