<svg width="28" height="28" viewBox="0 0 28 28" fill="none" xmlns="http://www.w3.org/2000/svg">
<g id="fluent:heart-28-regular">
<path id="Vector" d="M14.6041 6.19313C15.1822 5.54156 15.8851 5.01246 16.6711 4.63709C17.4572 4.26171 18.3105 4.04768 19.1806 4.00763C20.0508 3.96757 20.9201 4.10231 21.7373 4.40389C22.5545 4.70546 23.303 5.16775 23.9385 5.76346C24.5741 6.35916 25.0838 7.07619 25.4375 7.87219C25.7913 8.66819 25.982 9.52701 25.9982 10.3979C26.0145 11.2689 25.8561 12.1342 25.5323 12.9429C25.2085 13.7515 24.726 14.4871 24.1131 15.1061L14.5331 24.7781C14.4634 24.8486 14.3804 24.9045 14.2889 24.9427C14.1974 24.9808 14.0992 25.0005 14.0001 25.0005C13.901 25.0005 13.8028 24.9808 13.7114 24.9427C13.6199 24.9045 13.5369 24.8486 13.4671 24.7781L3.88712 15.1061C2.72511 13.933 2.05167 12.3625 2.00285 10.712C1.95403 9.06145 2.53348 7.45392 3.62412 6.21413C6.21212 3.27113 10.7941 3.26113 13.3961 6.19313L14.0001 6.87313L14.6041 6.19313ZM23.2501 7.20413C22.7802 6.66996 22.2021 6.24178 21.5541 5.94798C20.9062 5.65417 20.2032 5.50145 19.4917 5.49994C18.7803 5.49843 18.0766 5.64816 17.4274 5.9392C16.7782 6.23025 16.1983 6.65597 15.7261 7.18813L14.5601 8.50113C14.4898 8.58044 14.4034 8.64392 14.3067 8.6874C14.21 8.73088 14.1051 8.75336 13.9991 8.75336C13.8931 8.75336 13.7883 8.73088 13.6916 8.6874C13.5949 8.64392 13.5085 8.58044 13.4381 8.50113L12.2731 7.18813C11.829 6.68277 11.2878 6.27185 10.6817 5.97979C10.0756 5.68772 9.41696 5.52047 8.74495 5.48797C8.07294 5.45547 7.40126 5.55838 6.76981 5.7906C6.13836 6.02281 5.56003 6.37959 5.06919 6.83972C4.57834 7.29986 4.185 7.85397 3.91253 8.46912C3.64007 9.08428 3.49404 9.74792 3.48312 10.4206C3.4722 11.0933 3.59661 11.7614 3.84897 12.385C4.10132 13.0087 4.47647 13.5753 4.95212 14.0511L14.0001 23.1841L23.0471 14.0511C23.942 13.1478 24.4606 11.9386 24.4983 10.6676C24.536 9.39672 24.0899 8.15885 23.2501 7.20413Z" fill="#131418"/>
</g>
</svg>
