<svg width="28" height="28" viewBox="0 0 28 28" fill="none" xmlns="http://www.w3.org/2000/svg">
<g id="fluent:history-32-regular">
<path id="Vector" d="M14 23.625C8.68438 23.625 4.375 19.3156 4.375 14C4.375 13.7568 4.38375 13.5153 4.40125 13.2764C4.44238 12.74 4.03813 12.25 3.49913 12.25C3.07388 12.25 2.70813 12.5598 2.6705 12.9841C2.63988 13.3175 2.625 13.6579 2.625 14C2.625 20.2825 7.7175 25.375 14 25.375C20.2825 25.375 25.375 20.2825 25.375 14C25.375 7.71751 20.2825 2.62501 14 2.62501C11.0639 2.62119 8.24076 3.75671 6.125 5.79251V3.93751C6.125 3.70545 6.03281 3.48289 5.86872 3.31879C5.70462 3.1547 5.48206 3.06251 5.25 3.06251C5.01794 3.06251 4.79538 3.1547 4.63128 3.31879C4.46719 3.48289 4.375 3.70545 4.375 3.93751V7.87501C4.375 8.10707 4.46719 8.32963 4.63128 8.49373C4.79538 8.65782 5.01794 8.75001 5.25 8.75001H9.625C9.85706 8.75001 10.0796 8.65782 10.2437 8.49373C10.4078 8.32963 10.5 8.10707 10.5 7.87501C10.5 7.64295 10.4078 7.42039 10.2437 7.25629C10.0796 7.0922 9.85706 7.00001 9.625 7.00001H7.39375C9.1175 5.37251 11.4424 4.37501 14 4.37501C19.3156 4.37501 23.625 8.68438 23.625 14C23.625 19.3156 19.3156 23.625 14 23.625ZM14.875 7.87501C14.875 7.64295 14.7828 7.42039 14.6187 7.25629C14.4546 7.0922 14.2321 7.00001 14 7.00001C13.7679 7.00001 13.5454 7.0922 13.3813 7.25629C13.2172 7.42039 13.125 7.64295 13.125 7.87501V14C13.125 14.2321 13.2172 14.4546 13.3813 14.6187C13.5454 14.7828 13.7679 14.875 14 14.875H17.5C17.7321 14.875 17.9546 14.7828 18.1187 14.6187C18.2828 14.4546 18.375 14.2321 18.375 14C18.375 13.7679 18.2828 13.5454 18.1187 13.3813C17.9546 13.2172 17.7321 13.125 17.5 13.125H14.875V7.87501Z" fill="#131418"/>
</g>
</svg>
