<svg width="24" height="24" viewBox="0 0 24 24" fill="none" xmlns="http://www.w3.org/2000/svg">
<path d="M18.75 12H12.75C12.3523 12.0004 11.971 12.1586 11.6898 12.4398C11.4086 12.721 11.2504 13.1023 11.25 13.5V18H3V11.25C3 10.8358 2.66421 10.5 2.25 10.5C1.83579 10.5 1.5 10.8358 1.5 11.25V21.75C1.5 22.1642 1.83579 22.5 2.25 22.5C2.66421 22.5 3 22.1642 3 21.75V19.5H21V21.75C21 22.1642 21.3358 22.5 21.75 22.5C22.1642 22.5 22.5 22.1642 22.5 21.75V15.75C22.4988 14.7558 22.1033 13.8027 21.4003 13.0997C20.6973 12.3967 19.7442 12.0012 18.75 12ZM21 18H12.75V13.5H18.75C19.3466 13.5006 19.9185 13.7378 20.3403 14.1597C20.7622 14.5815 20.9994 15.1534 21 15.75V18Z" fill="#131312"/>
<path d="M7.125 12.75C7.3475 12.75 7.56501 12.816 7.75002 12.9396C7.93502 13.0632 8.07922 13.2389 8.16436 13.4445C8.24951 13.65 8.27179 13.8762 8.22838 14.0945C8.18498 14.3127 8.07783 14.5132 7.9205 14.6705C7.76316 14.8278 7.56271 14.935 7.34448 14.9784C7.12625 15.0218 6.90005 14.9995 6.69448 14.9144C6.48891 14.8292 6.31321 14.685 6.1896 14.5C6.06598 14.315 6 14.0975 6 13.875C6.0004 13.5768 6.11905 13.2908 6.32994 13.0799C6.54084 12.8691 6.82675 12.7504 7.125 12.75ZM7.125 11.25C6.60582 11.25 6.09831 11.404 5.66663 11.6924C5.23495 11.9808 4.8985 12.3908 4.69982 12.8705C4.50114 13.3501 4.44915 13.8779 4.55044 14.3871C4.65173 14.8963 4.90173 15.364 5.26885 15.7312C5.63596 16.0983 6.10369 16.3483 6.61289 16.4496C7.12209 16.5508 7.64989 16.4989 8.12954 16.3002C8.6092 16.1015 9.01917 15.7651 9.30761 15.3334C9.59605 14.9017 9.75 14.3942 9.75 13.875C9.75 13.1788 9.47344 12.5111 8.98116 12.0188C8.48887 11.5266 7.82119 11.25 7.125 11.25ZM15.75 5.25C15.75 4.83579 15.4142 4.5 15 4.5H12.75V2.25C12.75 1.83579 12.4142 1.5 12 1.5C11.5858 1.5 11.25 1.83579 11.25 2.25V4.5H9C8.58579 4.5 8.25 4.83579 8.25 5.25C8.25 5.66421 8.58579 6 9 6H11.25V8.25C11.25 8.66421 11.5858 9 12 9C12.4142 9 12.75 8.66421 12.75 8.25V6H15C15.4142 6 15.75 5.66421 15.75 5.25Z" fill="#131312"/>
</svg>
