<svg width="11" height="21" viewBox="0 0 11 21" fill="none" xmlns="http://www.w3.org/2000/svg">
<path d="M8.71036 10.0059L0.218355 1.27886C0.148439 1.20853 0.0931651 1.12503 0.055731 1.0332C0.0182968 0.94137 -0.000553796 0.843026 0.000270022 0.743861C0.00109384 0.644696 0.0215751 0.546679 0.0605298 0.455482C0.0994845 0.364284 0.156139 0.281718 0.227214 0.212561C0.298289 0.143403 0.382373 0.0890277 0.474601 0.052581C0.566829 0.0161342 0.66537 -0.00166026 0.764521 0.000227454C0.863671 0.00211517 0.961463 0.0236476 1.05224 0.0635785C1.14301 0.103509 1.22496 0.161046 1.29336 0.232859L10.2934 9.48286C10.4296 9.62287 10.5058 9.81051 10.5058 10.0059C10.5058 10.2012 10.4296 10.3888 10.2934 10.5289L1.29336 19.7789C1.22496 19.8507 1.14301 19.9082 1.05224 19.9481C0.961463 19.9881 0.863671 20.0096 0.764521 20.0115C0.66537 20.0134 0.566829 19.9956 0.474601 19.9591C0.382373 19.9227 0.298289 19.8683 0.227214 19.7992C0.156139 19.73 0.0994845 19.6474 0.0605298 19.5562C0.0215751 19.465 0.00109384 19.367 0.000270022 19.2679C-0.000553796 19.1687 0.0182968 19.0703 0.055731 18.9785C0.0931651 18.8867 0.148439 18.8032 0.218355 18.7329L8.71136 10.0059H8.71036Z" fill="#FAFAFD"/>
</svg>
