<svg width="16" height="20" viewBox="0 0 16 20" fill="none" xmlns="http://www.w3.org/2000/svg">
<path d="M9.30778 0.555255C8.55674 -0.0938362 7.44326 -0.0938379 6.69222 0.555253L1.19222 5.30866C0.752648 5.68857 0.5 6.24085 0.5 6.82184V6.875C0.5 7.97957 1.39543 8.875 2.5 8.875H13.5C14.6046 8.875 15.5 7.97957 15.5 6.875V6.82184C15.5 6.24085 15.2474 5.68857 14.8078 5.30866L9.30778 0.555255ZM14 6.83851C14 7.1348 13.7598 7.375 13.4635 7.375H2.53649C2.24019 7.375 2 7.1348 2 6.83851V6.83851C2 6.68266 2.06778 6.5345 2.1857 6.4326L6.69226 2.53797C7.44329 1.88893 8.55671 1.88893 9.30774 2.53797L13.8143 6.4326C13.9322 6.53451 14 6.68266 14 6.83851V6.83851ZM0.5 13.1782C0.5 13.7591 0.752647 14.3114 1.19222 14.6913L6.69222 19.4447C7.44326 20.0938 8.55674 20.0938 9.30778 19.4447L14.8078 14.6913C15.2474 14.3114 15.5 13.7591 15.5 13.1782V13.125C15.5 12.0204 14.6046 11.125 13.5 11.125H2.5C1.39543 11.125 0.5 12.0204 0.5 13.125V13.1782ZM2 13.1615C2 12.8652 2.24019 12.625 2.53649 12.625H13.4635C13.7598 12.625 14 12.8652 14 13.1615V13.1615C14 13.3173 13.9322 13.4655 13.8143 13.5674L9.30774 17.462C8.55671 18.1111 7.44329 18.1111 6.69226 17.462L2.1857 13.5674C2.06778 13.4655 2 13.3173 2 13.1615V13.1615Z" fill="#131418"/>
</svg>
