<svg width="11" height="22" viewBox="0 0 11 22" fill="none" xmlns="http://www.w3.org/2000/svg">
<path d="M1.79556 11L10.2876 2.273C10.3575 2.20267 10.4128 2.11917 10.4502 2.02734C10.4876 1.93551 10.5065 1.83717 10.5056 1.738C10.5048 1.63884 10.4843 1.54082 10.4454 1.44962C10.4064 1.35843 10.3498 1.27586 10.2787 1.2067C10.2076 1.13754 10.1235 1.08317 10.0313 1.04672C9.93909 1.01027 9.84055 0.99248 9.7414 0.994368C9.64225 0.996256 9.54445 1.01779 9.45368 1.05772C9.36291 1.09765 9.28095 1.15519 9.21256 1.227L0.212562 10.477C0.0763399 10.617 0.00012207 10.8047 0.00012207 11C0.00012207 11.1953 0.0763399 11.383 0.212562 11.523L9.21256 20.773C9.28095 20.8448 9.36291 20.9023 9.45368 20.9423C9.54445 20.9822 9.64225 21.0037 9.7414 21.0056C9.84055 21.0075 9.93909 20.9897 10.0313 20.9533C10.1235 20.9168 10.2076 20.8625 10.2787 20.7933C10.3498 20.7241 10.4064 20.6416 10.4454 20.5504C10.4843 20.4592 10.5048 20.3612 10.5056 20.262C10.5065 20.1628 10.4876 20.0645 10.4502 19.9727C10.4128 19.8808 10.3575 19.7973 10.2876 19.727L1.79456 11H1.79556Z" fill="#FAFAFD"/>
</svg>
