<svg width="22" height="28" viewBox="0 0 22 28" fill="none" xmlns="http://www.w3.org/2000/svg">
<path d="M11 0.666672C12.4145 0.666672 13.771 1.22857 14.7712 2.22877C15.7714 3.22896 16.3333 4.58552 16.3333 6V8.66667H18.6666C19.0606 8.66667 19.4507 8.74427 19.8147 8.89503C20.1787 9.0458 20.5094 9.26678 20.788 9.54535C21.0665 9.82393 21.2875 10.1546 21.4383 10.5186C21.5891 10.8826 21.6666 11.2727 21.6666 11.6667V24.3333C21.6666 24.7273 21.5891 25.1174 21.4383 25.4814C21.2875 25.8454 21.0665 26.1761 20.788 26.4547C20.5094 26.7332 20.1787 26.9542 19.8147 27.105C19.4507 27.2557 19.0606 27.3333 18.6666 27.3333H3.33331C2.53766 27.3333 1.7746 27.0173 1.21199 26.4547C0.649384 25.892 0.333313 25.129 0.333313 24.3333V11.6667C0.333313 10.871 0.649384 10.108 1.21199 9.54535C1.7746 8.98274 2.53766 8.66667 3.33331 8.66667H5.66665V6C5.66665 4.58552 6.22855 3.22896 7.22874 2.22877C8.22894 1.22857 9.58549 0.666672 11 0.666672ZM18.6666 10.6667H3.33331C3.0681 10.6667 2.81374 10.772 2.62621 10.9596C2.43867 11.1471 2.33331 11.4015 2.33331 11.6667V24.3333C2.33331 24.8853 2.78131 25.3333 3.33331 25.3333H18.6666C18.9319 25.3333 19.1862 25.228 19.3738 25.0404C19.5613 24.8529 19.6666 24.5986 19.6666 24.3333V11.6667C19.6666 11.4015 19.5613 11.1471 19.3738 10.9596C19.1862 10.772 18.9319 10.6667 18.6666 10.6667ZM11 16C11.5304 16 12.0391 16.2107 12.4142 16.5858C12.7893 16.9609 13 17.4696 13 18C13 18.5304 12.7893 19.0391 12.4142 19.4142C12.0391 19.7893 11.5304 20 11 20C10.4695 20 9.96084 19.7893 9.58577 19.4142C9.21069 19.0391 8.99998 18.5304 8.99998 18C8.99998 17.4696 9.21069 16.9609 9.58577 16.5858C9.96084 16.2107 10.4695 16 11 16ZM11 2.66667C10.1159 2.66667 9.26808 3.01786 8.64296 3.64298C8.01784 4.2681 7.66665 5.11595 7.66665 6V8.66667H14.3333V6C14.3333 5.11595 13.9821 4.2681 13.357 3.64298C12.7319 3.01786 11.884 2.66667 11 2.66667Z" fill="#5B5B5B"/>
</svg>
