<svg width="91" height="44" viewBox="0 0 91 44" fill="none" xmlns="http://www.w3.org/2000/svg">
<path d="M16.9262 7.65217L13.5415 27.8252H17.3364L20.798 7.65217H16.9262Z" fill="#001894"/>
<path fill-rule="evenodd" clip-rule="evenodd" d="M91 22C91 34.1503 81.2449 44 69.2113 44C57.1777 44 47.4225 34.1503 47.4225 22C47.4225 9.84973 57.1777 0 69.2113 0C81.2449 0 91 9.84973 91 22ZM50.5231 25.1109C50.0589 24.1873 49.8955 23.1461 50.0331 21.9874C50.205 20.8119 50.6435 19.7708 51.3485 18.864C52.0535 17.9572 52.9391 17.2435 54.0052 16.7229C55.0885 16.2023 56.2492 15.942 57.4873 15.942C58.7254 15.942 59.8001 16.2107 60.7114 16.7481C61.64 17.2687 62.3364 17.9907 62.8007 18.9143C63.265 19.8211 63.4197 20.8539 63.265 22.0126C63.1102 23.1881 62.6803 24.2292 61.9753 25.136C61.2703 26.0429 60.3847 26.7565 59.3186 27.2771C58.2525 27.7977 57.0832 28.058 55.8107 28.058C54.5899 28.058 53.5151 27.7977 52.5866 27.2771C51.6752 26.7397 50.9874 26.0177 50.5231 25.1109ZM69.978 27.8061L71.2419 20.7531C71.2935 20.3837 71.2935 20.0478 71.2419 19.7456C71.2075 19.4265 71.0871 19.1662 70.8808 18.9647C70.6916 18.7464 70.3821 18.6373 69.9522 18.6373C69.5395 18.6373 69.1698 18.7212 68.8431 18.8892C68.5164 19.0571 68.2499 19.3006 68.0435 19.6196C67.8372 19.9219 67.6996 20.2829 67.6308 20.7028L66.367 27.8061H62.498L64.5357 16.2191H68.4046L68.1467 17.8312C68.5594 17.2603 69.0581 16.8069 69.6427 16.471C70.2445 16.1184 70.9582 15.942 71.7835 15.942C72.7465 15.942 73.5031 16.1351 74.0533 16.5214C74.6036 16.9076 74.9733 17.4366 75.1624 18.1083C75.3688 18.7632 75.4118 19.5105 75.2914 20.3501L73.9759 27.8061H69.978ZM85.2899 27.1764C84.2065 27.7641 82.9083 28.058 81.3951 28.058C80.1914 28.058 79.1425 27.8481 78.2483 27.4282C77.3714 26.9916 76.6835 26.3787 76.1849 25.5894C75.7034 24.8002 75.4627 23.8598 75.4627 22.7683C75.4627 21.8111 75.6432 20.9211 76.0043 20.0982C76.3654 19.2754 76.8727 18.5617 77.5261 17.9572C78.1968 17.3358 78.9877 16.8488 79.8991 16.4962C80.8105 16.1435 81.8164 15.9672 82.9169 15.9672C84.1206 15.9672 85.1265 16.1771 85.9347 16.5969C86.7601 17 87.3791 17.5877 87.7918 18.3602C88.2217 19.1159 88.4366 20.0311 88.4366 21.1058C88.4366 21.3745 88.4108 21.6683 88.3592 21.9874C88.3077 22.3065 88.2389 22.5835 88.1529 22.8186H79.283C79.2751 23.1929 79.3171 23.5372 79.409 23.8514C79.5638 24.3216 79.8217 24.6826 80.1828 24.9345C80.5439 25.1864 81.0082 25.3124 81.5757 25.3124C82.2291 25.3124 82.7965 25.178 83.278 24.9093C83.7595 24.6407 84.1721 24.2712 84.5161 23.801L87.8692 24.6323C87.2501 25.7406 86.3904 26.5886 85.2899 27.1764Z" fill="#001894"/>
<path fill-rule="evenodd" clip-rule="evenodd" d="M54.5727 20.5516C54.2632 20.9882 54.0654 21.4752 53.9794 22.0126C53.8935 22.5164 53.9278 22.9866 54.0826 23.4232C54.2374 23.8598 54.4781 24.2124 54.8048 24.4811C55.1487 24.7498 55.5786 24.8841 56.0945 24.8841C56.6275 24.9009 57.1176 24.7834 57.5647 24.5315C58.0289 24.2628 58.4158 23.9102 58.7254 23.4736C59.0521 23.0202 59.2584 22.5248 59.3444 21.9874C59.4132 21.4836 59.3702 21.0218 59.2154 20.602C59.0779 20.1654 58.8371 19.8128 58.4932 19.5441C58.1493 19.2586 57.7194 19.1075 57.2036 19.0907C56.6877 19.0739 56.1976 19.1998 55.7334 19.4685C55.2691 19.7372 54.8822 20.0982 54.5727 20.5516ZM84.5149 20.7028H79.6928C79.8647 20.2326 80.0797 19.8379 80.3376 19.5189C80.6127 19.1998 80.9308 18.9563 81.2919 18.7884C81.6702 18.6037 82.0915 18.5113 82.5558 18.5113C83.0029 18.5113 83.364 18.6037 83.6391 18.7884C83.9314 18.9731 84.1464 19.2334 84.2839 19.5693C84.4279 19.8817 84.5049 20.2595 84.5149 20.7028Z" fill="#001894"/>
<path fill-rule="evenodd" clip-rule="evenodd" d="M29.073 27.8252H32.868L34.8936 15.9283H31.073L30.7071 18.1054C30.6261 17.9158 30.5344 17.7333 30.432 17.5577C30.1072 16.9714 29.6628 16.5145 29.0987 16.1869C28.5516 15.8421 27.885 15.6697 27.0986 15.6697C26.0388 15.6697 25.0473 15.9369 24.1242 16.4714C23.2182 17.0059 22.4575 17.7473 21.8421 18.6956C21.2267 19.6267 20.8421 20.6784 20.6883 21.8509C20.5515 22.9889 20.6455 24.032 20.9703 24.9803C21.3122 25.9114 21.8421 26.6614 22.5601 27.2304C23.2951 27.7821 24.184 28.058 25.2268 28.058C26.0131 28.058 26.7396 27.9028 27.4063 27.5924C28.0901 27.2648 28.6884 26.8166 29.2012 26.2476C29.2591 26.1834 29.3157 26.1181 29.3712 26.0518L29.073 27.8252ZM25.3037 20.3508C24.9789 20.8164 24.7738 21.325 24.6883 21.8767C24.6199 22.394 24.6456 22.8854 24.7652 23.3509C24.902 23.8165 25.1413 24.1958 25.4832 24.4889C25.8422 24.7648 26.2781 24.9027 26.7909 24.9027C27.167 24.9199 27.5345 24.851 27.8935 24.6958C28.2525 24.5406 28.5773 24.3251 28.8679 24.0492C29.1756 23.7561 29.432 23.4199 29.6371 23.0406C29.8423 22.6613 29.979 22.2647 30.0474 21.8509C30.0987 21.4543 30.0901 21.0836 30.0217 20.7388C29.9534 20.3767 29.8252 20.0577 29.6371 19.7819C29.4662 19.4887 29.244 19.2646 28.9704 19.1094C28.714 18.937 28.4063 18.8422 28.0474 18.8249C27.5174 18.8077 27.0046 18.937 26.5089 19.2129C26.0302 19.4887 25.6285 19.8681 25.3037 20.3508Z" fill="#001894"/>
<path d="M36.5002 15.9283L35.9361 19.1611H37.9432L36.4746 27.8252H40.1413L41.6376 19.1611H43.6542L44.2183 15.9283H42.1959L42.9106 11.7902H39.1926L38.4912 15.9283H36.5002Z" fill="#001894"/>
<path d="M13.0515 13.4713L13.7182 9.7212H7.17961H5.8719H3.05133L0 27.8252H4.07699L5.32247 20.5577H11.6156L12.231 17.0404H5.92527L6.53692 13.4713H13.0515Z" fill="#001894"/>
</svg>
