<svg width="87" height="41" viewBox="0 0 87 41" fill="none" xmlns="http://www.w3.org/2000/svg">
<path d="M4.55433 13.8839L5.13764 10.6308H12.0028L11.4195 13.8839H4.55433ZM3.49988 20.0311L4.03832 16.98H10.7015L10.1631 20.0311H3.49988ZM2.66978 10.6308H6.28183L3.56718 26.3354H0L2.66978 10.6308Z" fill="url(#paint0_linear_2163_1929)"/>
<path d="M14.8096 8.83603H18.1973L15.1686 26.3354H11.8482L14.8096 8.83603Z" fill="url(#paint1_linear_2163_1929)"/>
<path d="M27.1875 16.0153H30.5303L28.7579 26.3354H25.4375L27.1875 16.0153ZM18.1013 21.1529C18.2359 20.1358 18.5724 19.2235 19.1109 18.4158C19.6493 17.5932 20.3149 16.9501 21.1076 16.4864C21.9152 16.0227 22.7827 15.7909 23.71 15.7909C24.3981 15.7909 24.9814 15.9405 25.46 16.2396C25.9536 16.5238 26.3424 16.9201 26.6266 17.4287C26.9257 17.9372 27.1202 18.513 27.2099 19.1562C27.3146 19.7993 27.3221 20.4724 27.2324 21.1753C27.1426 21.9082 26.9482 22.6037 26.649 23.2618C26.3649 23.9049 25.9984 24.4733 25.5497 24.9669C25.101 25.4604 24.5775 25.8493 23.9793 26.1335C23.396 26.4027 22.7603 26.5373 22.0723 26.5373C21.1599 26.5373 20.3822 26.298 19.739 25.8194C19.1109 25.3258 18.6472 24.6752 18.3481 23.8675C18.0639 23.0449 17.9816 22.14 18.1013 21.1529ZM21.6011 21.1753C21.5413 21.624 21.5638 22.0503 21.6685 22.4541C21.7881 22.858 21.9975 23.187 22.2966 23.4413C22.6107 23.6806 22.9921 23.8002 23.4408 23.8002C23.7699 23.8152 24.0914 23.7554 24.4055 23.6208C24.7196 23.4862 25.0038 23.2992 25.2581 23.0599C25.5273 22.8056 25.7516 22.514 25.9311 22.1849C26.1106 21.8559 26.2303 21.5119 26.2901 21.1529C26.335 20.8089 26.3275 20.4873 26.2676 20.1882C26.2078 19.8741 26.0956 19.5974 25.9311 19.3581C25.7816 19.1038 25.5871 18.9094 25.3478 18.7748C25.1235 18.6252 24.8542 18.543 24.5401 18.528C24.0765 18.513 23.6278 18.6252 23.194 18.8645C22.7753 19.1038 22.4238 19.4329 22.1396 19.8517C21.8554 20.2555 21.6759 20.6967 21.6011 21.1753Z" fill="url(#paint2_linear_2163_1929)"/>
<path d="M31.936 16.0153H38.689L38.1954 18.8197H31.4424L31.936 16.0153ZM34.2917 12.4256H37.5448L35.1218 26.3354H31.9136L34.2917 12.4256Z" fill="url(#paint3_linear_2163_1929)"/>
<path fill-rule="evenodd" clip-rule="evenodd" d="M81.575 0.23645C78.5788 0.23645 76.1498 2.6654 76.1498 5.66167C76.1498 8.65794 78.5788 11.0869 81.575 11.0869C84.5713 11.0869 87.0003 8.65794 87.0003 5.66167C87.0003 2.66541 84.5713 0.23645 81.575 0.23645ZM79.5568 7.79254H78.6991L80.2608 3.35638H81.2529L82.8168 7.79254H81.959L81.5915 6.69867H79.9237L79.5568 7.79254ZM81.3746 6.05317L80.7742 4.26614H80.7395L80.1402 6.05317H81.3746ZM84.1132 7.79254V3.35638H83.3096V7.79254H84.1132Z" fill="url(#paint4_linear_2163_1929)"/>
<path fill-rule="evenodd" clip-rule="evenodd" d="M60.5144 40.8487C71.1241 40.8487 79.725 32.2478 79.725 21.6381C79.725 11.0284 71.1241 2.42747 60.5144 2.42747C49.9047 2.42747 41.3038 11.0284 41.3038 21.6381C41.3038 32.2478 49.9047 40.8487 60.5144 40.8487ZM62.6511 19.1562C62.696 19.4255 62.696 19.7246 62.6511 20.0536L61.5518 26.3355H65.0293L66.1734 19.6947C66.2781 18.9468 66.2408 18.2813 66.0613 17.698C65.8967 17.0997 65.5752 16.6285 65.0966 16.2845C64.6179 15.9405 63.9599 15.7685 63.1223 15.7685C62.4044 15.7685 61.7836 15.9256 61.2602 16.2397C60.7516 16.5388 60.3179 16.9426 59.9589 17.4512L60.1833 16.0153H56.818L55.0456 26.3355H58.4109L59.5102 20.0088C59.57 19.6349 59.6897 19.3133 59.8692 19.0441C60.0487 18.7599 60.2805 18.543 60.5647 18.3934C60.8488 18.2439 61.1704 18.1691 61.5294 18.1691C61.9033 18.1691 62.1725 18.2663 62.337 18.4608C62.5165 18.6402 62.6212 18.8721 62.6511 19.1562ZM44.2035 21.153C44.3531 20.106 44.7345 19.1787 45.3477 18.371C45.9609 17.5633 46.7312 16.9277 47.6585 16.464C48.6008 16.0004 49.6104 15.7685 50.6873 15.7685C51.7641 15.7685 52.6989 16.0078 53.4916 16.4865C54.2993 16.9501 54.9051 17.5933 55.3089 18.4159C55.7127 19.2235 55.8473 20.1434 55.7127 21.1754C55.5781 22.2224 55.2042 23.1497 54.591 23.9573C53.9777 24.765 53.2075 25.4007 52.2802 25.8643C51.3528 26.328 50.3358 26.5598 49.229 26.5598C48.1671 26.5598 47.2323 26.328 46.4246 25.8643C45.6319 25.3857 45.0336 24.7426 44.6298 23.9349C44.226 23.1123 44.0839 22.185 44.2035 21.153ZM47.7258 22.4318C47.5912 22.0429 47.5613 21.6241 47.6361 21.1754C47.7109 20.6968 47.8829 20.263 48.1521 19.8742C48.4213 19.4703 48.7578 19.1488 49.1617 18.9095C49.5655 18.6701 49.9918 18.558 50.4405 18.5729C50.8892 18.5879 51.2631 18.7225 51.5622 18.9768C51.8614 19.2161 52.0708 19.5302 52.1904 19.919C52.325 20.2929 52.3624 20.7043 52.3026 21.153C52.2278 21.6316 52.0483 22.0728 51.7641 22.4766C51.4949 22.8655 51.1584 23.1796 50.7546 23.4189C50.3657 23.6433 49.9394 23.748 49.4758 23.733C49.0271 23.733 48.6531 23.6133 48.354 23.374C48.0698 23.1347 47.8604 22.8206 47.7258 22.4318ZM68.7454 25.9989C69.5232 26.3729 70.4355 26.5598 71.4825 26.5598C72.7987 26.5598 73.9279 26.2981 74.8702 25.7746C75.8274 25.2511 76.5753 24.4958 77.1137 23.5086L74.1971 22.7683C73.898 23.1871 73.539 23.5161 73.1203 23.7554C72.7015 23.9947 72.2079 24.1144 71.6395 24.1144C71.146 24.1144 70.7421 24.0022 70.428 23.7779C70.114 23.5535 69.8896 23.2319 69.755 22.8132C69.675 22.5333 69.6385 22.2267 69.6454 21.8933H77.3605C77.4353 21.6839 77.4951 21.4371 77.54 21.153C77.5848 20.8688 77.6073 20.607 77.6073 20.3677C77.6073 19.4105 77.4203 18.5954 77.0464 17.9223C76.6874 17.2343 76.149 16.7108 75.4311 16.3519C74.7281 15.9779 73.8531 15.791 72.8062 15.791C71.8489 15.791 70.974 15.948 70.1813 16.2621C69.3886 16.5762 68.7005 17.0099 68.1172 17.5633C67.5489 18.1018 67.1077 18.7374 66.7936 19.4703C66.4795 20.2032 66.3224 20.9959 66.3224 21.8485C66.3224 22.8206 66.5318 23.6582 66.9506 24.3612C67.3844 25.0641 67.9826 25.6101 68.7454 25.9989ZM70.0018 20.0088C70.1513 19.59 70.3383 19.2385 70.5627 18.9543C70.802 18.6701 71.0787 18.4533 71.3928 18.3037C71.7218 18.1392 72.0882 18.0569 72.4921 18.0569C72.881 18.0569 73.195 18.1392 73.4344 18.3037C73.6886 18.4682 73.8756 18.7001 73.9952 18.9992C74.1205 19.2775 74.1874 19.614 74.1962 20.0088H70.0018Z" fill="url(#paint5_linear_2163_1929)"/>
<defs>
<linearGradient id="paint0_linear_2163_1929" x1="87.0003" y1="-3.49629" x2="56.1939" y2="70.0033" gradientUnits="userSpaceOnUse">
<stop stop-color="#125EF3"/>
<stop offset="1" stop-color="#C024E7"/>
</linearGradient>
<linearGradient id="paint1_linear_2163_1929" x1="87.0003" y1="-3.49629" x2="56.1939" y2="70.0033" gradientUnits="userSpaceOnUse">
<stop stop-color="#125EF3"/>
<stop offset="1" stop-color="#C024E7"/>
</linearGradient>
<linearGradient id="paint2_linear_2163_1929" x1="87.0003" y1="-3.49629" x2="56.1939" y2="70.0033" gradientUnits="userSpaceOnUse">
<stop stop-color="#125EF3"/>
<stop offset="1" stop-color="#C024E7"/>
</linearGradient>
<linearGradient id="paint3_linear_2163_1929" x1="87.0003" y1="-3.49629" x2="56.1939" y2="70.0033" gradientUnits="userSpaceOnUse">
<stop stop-color="#125EF3"/>
<stop offset="1" stop-color="#C024E7"/>
</linearGradient>
<linearGradient id="paint4_linear_2163_1929" x1="87.0003" y1="-3.49629" x2="56.1939" y2="70.0033" gradientUnits="userSpaceOnUse">
<stop stop-color="#125EF3"/>
<stop offset="1" stop-color="#C024E7"/>
</linearGradient>
<linearGradient id="paint5_linear_2163_1929" x1="87.0003" y1="-3.49629" x2="56.1939" y2="70.0033" gradientUnits="userSpaceOnUse">
<stop stop-color="#125EF3"/>
<stop offset="1" stop-color="#C024E7"/>
</linearGradient>
</defs>
</svg>
