<svg width="54" height="26" viewBox="0 0 54 26" fill="none" xmlns="http://www.w3.org/2000/svg">
<path d="M10.0441 4.52174L8.03561 16.4422H10.2876L12.3417 4.52174H10.0441Z" fill="#FAFAFD"/>
<path fill-rule="evenodd" clip-rule="evenodd" d="M54 13C54 20.1797 48.2112 26 41.0704 26C33.9296 26 28.1408 20.1797 28.1408 13C28.1408 5.8203 33.9296 0 41.0704 0C48.2112 0 54 5.8203 54 13ZM29.9808 14.8382C29.7053 14.2925 29.6083 13.6772 29.69 12.9926C29.792 12.2979 30.0522 11.6827 30.4706 11.1469C30.8889 10.611 31.4144 10.1893 32.0471 9.88171C32.6899 9.5741 33.3787 9.42029 34.1133 9.42029C34.848 9.42029 35.4858 9.57906 36.0266 9.89659C36.5776 10.2042 36.9908 10.6309 37.2663 11.1767C37.5418 11.7125 37.6337 12.3228 37.5418 13.0074C37.45 13.7021 37.1949 14.3173 36.7766 14.8531C36.3582 15.389 35.8327 15.8107 35.2001 16.1183C34.5674 16.4259 33.8736 16.5797 33.1185 16.5797C32.394 16.5797 31.7562 16.4259 31.2052 16.1183C30.6644 15.8008 30.2563 15.3741 29.9808 14.8382ZM41.5254 16.4309L42.2754 12.2632C42.306 12.0449 42.306 11.8465 42.2754 11.6678C42.255 11.4793 42.1836 11.3255 42.0611 11.2064C41.9489 11.0774 41.7652 11.0129 41.5101 11.0129C41.2652 11.0129 41.0458 11.0625 40.852 11.1618C40.6581 11.261 40.4999 11.4049 40.3775 11.5934C40.255 11.772 40.1734 11.9854 40.1326 12.2335L39.3826 16.4309H37.0867L38.2959 9.58402H40.5918L40.4387 10.5366C40.6836 10.1992 40.9795 9.93132 41.3264 9.73286C41.6836 9.52448 42.107 9.42029 42.5968 9.42029C43.1682 9.42029 43.6172 9.5344 43.9437 9.76263C44.2703 9.99086 44.4896 10.3034 44.6019 10.7004C44.7243 11.0873 44.7498 11.5289 44.6784 12.0251L43.8978 16.4309H41.5254ZM50.6116 16.0588C49.9687 16.4061 49.1983 16.5797 48.3004 16.5797C47.5861 16.5797 46.9637 16.4557 46.4331 16.2076C45.9127 15.9496 45.5045 15.5874 45.2086 15.121C44.9229 14.6547 44.7801 14.099 44.7801 13.454C44.7801 12.8884 44.8872 12.3624 45.1015 11.8762C45.3158 11.39 45.6168 10.9683 46.0045 10.611C46.4025 10.2439 46.8718 9.95613 47.4127 9.74775C47.9535 9.53937 48.5504 9.43517 49.2034 9.43517C49.9177 9.43517 50.5146 9.55921 50.9942 9.80729C51.484 10.0454 51.8513 10.3927 52.0962 10.8492C52.3513 11.2957 52.4789 11.8365 52.4789 12.4716C52.4789 12.6304 52.4636 12.804 52.433 12.9926C52.4024 13.1811 52.3615 13.3448 52.3105 13.4837H47.047C47.0424 13.7049 47.0673 13.9083 47.1218 14.094C47.2137 14.3719 47.3667 14.5852 47.581 14.734C47.7953 14.8829 48.0708 14.9573 48.4075 14.9573C48.7953 14.9573 49.132 14.8779 49.4177 14.7192C49.7034 14.5604 49.9483 14.3421 50.1524 14.0642L52.1421 14.5554C51.7748 15.2103 51.2646 15.7115 50.6116 16.0588Z" fill="#FAFAFD"/>
<path fill-rule="evenodd" clip-rule="evenodd" d="M32.3838 12.1441C32.2001 12.4021 32.0828 12.6899 32.0317 13.0074C31.9807 13.3051 32.0011 13.583 32.093 13.841C32.1848 14.099 32.3277 14.3074 32.5215 14.4661C32.7256 14.6249 32.9807 14.7043 33.2868 14.7043C33.6031 14.7142 33.894 14.6447 34.1593 14.4959C34.4348 14.3371 34.6643 14.1287 34.848 13.8707C35.0419 13.6028 35.1643 13.3101 35.2154 12.9926C35.2562 12.6949 35.2307 12.422 35.1388 12.1739C35.0572 11.9159 34.9143 11.7075 34.7103 11.5488C34.5062 11.3801 34.2511 11.2908 33.945 11.2808C33.6389 11.2709 33.3481 11.3453 33.0725 11.5041C32.797 11.6629 32.5675 11.8762 32.3838 12.1441ZM50.1517 12.2335H47.2902C47.3922 11.9556 47.5198 11.7224 47.6729 11.5339C47.8361 11.3453 48.0249 11.2015 48.2392 11.1022C48.4636 10.9931 48.7136 10.9385 48.9892 10.9385C49.2545 10.9385 49.4687 10.9931 49.632 11.1022C49.8055 11.2114 49.933 11.3652 50.0146 11.5637C50.1001 11.7483 50.1458 11.9715 50.1517 12.2335Z" fill="#FAFAFD"/>
<path fill-rule="evenodd" clip-rule="evenodd" d="M17.2521 16.4422H19.5041L20.7061 9.41217H18.439L18.2218 10.6986C18.1737 10.5866 18.1193 10.4787 18.0586 10.375C17.8658 10.0286 17.6021 9.75858 17.2673 9.565C16.9427 9.36123 16.5471 9.25935 16.0805 9.25935C15.4516 9.25935 14.8632 9.41726 14.3155 9.7331C13.7778 10.0489 13.3264 10.487 12.9613 11.0474C12.5961 11.5976 12.3678 12.2191 12.2765 12.9119C12.1954 13.5843 12.2512 14.2007 12.4439 14.7611C12.6468 15.3113 12.9613 15.7544 13.3873 16.0907C13.8235 16.4167 14.351 16.5797 14.9697 16.5797C15.4364 16.5797 15.8675 16.488 16.2631 16.3046C16.6688 16.111 17.0239 15.8461 17.3282 15.5099C17.3625 15.472 17.3961 15.4334 17.429 15.3942L17.2521 16.4422ZM15.0154 12.0255C14.8227 12.3006 14.7009 12.6011 14.6502 12.9272C14.6096 13.2328 14.6249 13.5232 14.6959 13.7983C14.777 14.0734 14.919 14.2975 15.1219 14.4707C15.3349 14.6337 15.5936 14.7152 15.8979 14.7152C16.1211 14.7254 16.3392 14.6847 16.5522 14.593C16.7652 14.5013 16.9579 14.3739 17.1304 14.2109C17.313 14.0377 17.4651 13.839 17.5869 13.6149C17.7086 13.3907 17.7897 13.1564 17.8303 12.9119C17.8608 12.6776 17.8557 12.4585 17.8151 12.2547C17.7745 12.0408 17.6985 11.8523 17.5869 11.6893C17.4854 11.5161 17.3536 11.3836 17.1913 11.2919C17.0391 11.19 16.8565 11.134 16.6435 11.1238C16.329 11.1136 16.0247 11.19 15.7305 11.3531C15.4465 11.5161 15.2081 11.7402 15.0154 12.0255Z" fill="#FAFAFD"/>
<path d="M21.6595 9.41217L21.3247 11.3225H22.5157L21.6443 16.4422H23.8201L24.708 11.3225H25.9047L26.2394 9.41217H25.0394L25.4634 6.96696H23.2571L22.8409 9.41217H21.6595Z" fill="#FAFAFD"/>
<path d="M7.74485 7.96032L8.14046 5.74435H4.26043H3.48442H1.81068L0 16.4422H2.41931L3.15839 12.1478H6.89276L7.25794 10.0693H3.51609L3.87905 7.96032H7.74485Z" fill="#FAFAFD"/>
</svg>
