<svg width="28" height="28" viewBox="0 0 28 28" fill="none" xmlns="http://www.w3.org/2000/svg">
<path d="M13.5947 20.4747L8.12002 14.0853C7.56123 13.4457 7.27232 12.6143 7.3141 11.766C7.35587 10.9177 7.72506 10.1187 8.34398 9.5371C8.96291 8.95548 9.78331 8.63662 10.6326 8.64761C11.4818 8.6586 12.2937 8.99857 12.8974 9.596L14 10.6667L15.1027 9.596C15.708 9.00517 16.518 8.6709 17.3638 8.66293C18.2096 8.65496 19.0258 8.97392 19.6421 9.55324C20.2585 10.1326 20.6272 10.9275 20.6716 11.7722C20.7159 12.6169 20.4323 13.446 19.88 14.0867L14.4054 20.4733C14.3553 20.5319 14.2931 20.5789 14.2232 20.6111C14.1532 20.6434 14.0771 20.66 14 20.66C13.923 20.66 13.8469 20.6434 13.7769 20.6111C13.7069 20.5789 13.6448 20.5319 13.5947 20.4733V20.4747ZM27.3334 14C27.3334 21.364 21.364 27.3333 14 27.3333C6.63602 27.3333 0.666687 21.364 0.666687 14C0.666687 6.636 6.63602 0.666672 14 0.666672C21.364 0.666672 27.3334 6.636 27.3334 14ZM25.3334 14C25.3334 10.9942 24.1393 8.11154 22.0139 5.98613C19.8885 3.86072 17.0058 2.66667 14 2.66667C10.9942 2.66667 8.11156 3.86072 5.98614 5.98613C3.86073 8.11154 2.66669 10.9942 2.66669 14C2.66669 17.0058 3.86073 19.8885 5.98614 22.0139C8.11156 24.1393 10.9942 25.3333 14 25.3333C17.0058 25.3333 19.8885 24.1393 22.0139 22.0139C24.1393 19.8885 25.3334 17.0058 25.3334 14Z" fill="#5B5B5B"/>
</svg>
