<svg width="24" height="24" viewBox="0 0 24 24" fill="none" xmlns="http://www.w3.org/2000/svg">
<path d="M22.5 8.01004L21 3.51004C20.9478 3.35481 20.8462 3.22092 20.7108 3.12883C20.5754 3.03674 20.4135 2.99151 20.25 3.00004H3.74999C3.58644 2.99151 3.42459 3.03674 3.28916 3.12883C3.15373 3.22092 3.05217 3.35481 2.99999 3.51004L1.49999 8.01004C1.48918 8.08968 1.48918 8.17041 1.49999 8.25004V12.75C1.49999 12.949 1.579 13.1397 1.71966 13.2804C1.86031 13.421 2.05107 13.5 2.24999 13.5H2.99999V20.25C2.99999 20.6643 3.33577 21 3.74999 21L-nan -nanL3.74999 21C4.1642 21 4.49999 20.6643 4.49999 20.25V13.5H8.99999V21H21V13.5H21.75C21.9489 13.5 22.1397 13.421 22.2803 13.2804C22.421 13.1397 22.5 12.949 22.5 12.75V8.25004C22.5108 8.17041 22.5108 8.08968 22.5 8.01004ZM19.5 19.5H10.5V13.5H19.5V19.5ZM21 12H18V9.75004C18 9.33583 17.6642 9.00004 17.25 9.00004C16.8358 9.00004 16.5 9.33583 16.5 9.75004V12H12.75V9.75004C12.75 9.33583 12.4142 9.00004 12 9.00004C11.5858 9.00004 11.25 9.33583 11.25 9.75004V12H7.49999V9.75004C7.49999 9.33583 7.1642 9.00004 6.74999 9.00004C6.33577 9.00004 5.99999 9.33583 5.99999 9.75004V12H2.99999V8.37004L4.28999 4.50004H19.71L21 8.37004V12Z" fill="#131312"/>
</svg>
