<svg width="18" height="20" viewBox="0 0 18 20" fill="none" xmlns="http://www.w3.org/2000/svg">
<path d="M12.8359 9.875L10.7684 4.65833L9.02505 7.70833L7.28172 4.65833L5.21422 9.87667H4.61672V10.6608H7.73005V9.87667H7.26922L7.71755 8.58083L9.02505 10.7225L10.3326 8.58083L10.7809 9.87667H10.32V10.6608H13.4459V9.87667L12.8359 9.875ZM17.2817 8.28167C17.2823 7.19395 17.0684 6.11679 16.6524 5.11176C16.2364 4.10674 15.6264 3.19356 14.8573 2.42442C14.0882 1.65529 13.175 1.04529 12.17 0.62929C11.1649 0.213291 10.0878 -0.000546616 9.00005 1.04932e-06C4.43005 1.04932e-06 0.718384 3.71083 0.718384 8.28167C0.718384 10.5733 1.65255 12.64 3.14672 14.1342C3.24028 14.2286 3.3598 14.293 3.49009 14.3193C3.62037 14.3455 3.75552 14.3325 3.87836 14.2817C4.00119 14.231 4.10616 14.1449 4.17992 14.0343C4.25367 13.9237 4.29288 13.7937 4.29255 13.6608C4.29283 13.4792 4.22123 13.3048 4.09338 13.1758C2.79904 11.8762 2.07367 10.1159 2.07672 8.28167C2.07672 4.45833 5.17672 1.345 9.00005 1.345C12.8234 1.345 15.9367 4.45833 15.9367 8.28167C15.9388 9.19301 15.7604 10.0957 15.412 10.9379C15.0636 11.78 14.552 12.5448 13.9067 13.1883L8.05338 19.0408L9.00005 20L14.8659 14.1342C15.6345 13.366 16.2436 12.4535 16.6582 11.4491C17.0728 10.4447 17.2847 9.36827 17.2817 8.28167Z" fill="#01BEF4"/>
</svg>
