<svg width="24" height="24" viewBox="0 0 24 24" fill="none" xmlns="http://www.w3.org/2000/svg">
<g clip-path="url(#clip0_1735_1875)">
<path d="M17.5588 17.8971L17.5226 17.9244C17.3751 18.0246 17.2019 18.077 16.994 18.077C16.8083 18.077 16.6282 18.0195 16.449 17.8939C16.3045 17.7932 16.229 17.6525 16.229 17.439V9.376H15.8005L12.7477 15.5725L12.7449 15.5785C12.6715 15.738 12.5641 15.8795 12.4303 15.9931C12.341 16.0605 12.209 16.106 12.009 16.106C11.8093 16.106 11.6767 16.0602 11.5888 15.9932C11.4548 15.88 11.3475 15.7385 11.2744 15.5789L8.21852 9.377H7.79L7.78975 17.438L7.79025 17.4491C7.7941 17.5357 7.7753 17.6217 7.73572 17.6988C7.69614 17.7758 7.63701 17.841 7.56442 17.8883L7.5557 17.8946C7.39321 18.0106 7.19915 18.0743 6.99952 18.077C6.7748 18.0767 6.59829 18.0158 6.45352 17.9025C6.33141 17.8062 6.259 17.6639 6.259 17.439V6.958C6.259 6.71076 6.33585 6.47704 6.50046 6.25304L6.50118 6.25204C6.62532 6.08136 6.87237 5.959 7.335 5.959C7.66977 5.959 7.88954 6.03508 8.03023 6.15245C8.19416 6.29117 8.35536 6.51039 8.50808 6.82713L11.8534 13.722H12.1911L15.5122 6.82648L15.5127 6.82548C15.6629 6.51011 15.8256 6.29129 15.9909 6.15235C16.1303 6.0353 16.3497 5.959 16.685 5.959C17.1467 5.959 17.3948 6.08155 17.5189 6.25218C17.6835 6.47812 17.761 6.71229 17.761 6.959V17.437C17.761 17.6596 17.6871 17.8007 17.5588 17.8971Z" fill="#131418"/>
<path fill-rule="evenodd" clip-rule="evenodd" d="M11.976 23.75C5.6347 23.75 0.25 18.3436 0.25 11.928C0.25 5.45407 5.47707 0.25 11.976 0.25C18.4769 0.25 23.75 5.48001 23.75 11.928C23.75 18.4399 18.461 23.75 11.976 23.75ZM22.505 11.928C22.505 17.752 17.7731 22.505 11.976 22.505C6.32106 22.505 1.496 17.6542 1.496 11.928C1.496 6.14186 6.165 1.495 11.976 1.495C17.7879 1.495 22.505 6.16777 22.505 11.928Z" fill="#131418"/>
</g>
<defs>
<clipPath id="clip0_1735_1875">
<rect width="24" height="24" fill="white"/>
</clipPath>
</defs>
</svg>
