<svg width="28" height="28" viewBox="0 0 28 28" fill="none" xmlns="http://www.w3.org/2000/svg">
<path d="M13.6182 16.6155C13.4634 16.7703 13.2797 16.8931 13.0774 16.9768C12.8752 17.0606 12.6584 17.1037 12.4396 17.1037C12.2207 17.1037 12.0039 17.0606 11.8017 16.9768C11.5994 16.8931 11.4157 16.7703 11.2609 16.6155C11.1061 16.4607 10.9833 16.277 10.8995 16.0747C10.8158 15.8725 10.7727 15.6557 10.7727 15.4368C10.7727 15.2179 10.8158 15.0012 10.8995 14.7989C10.9833 14.5967 11.1061 14.413 11.2609 14.2582C11.5735 13.9456 11.9975 13.77 12.4396 13.77C12.8816 13.77 13.3056 13.9456 13.6182 14.2582C13.9308 14.5708 14.1064 14.9948 14.1064 15.4368C14.1064 15.8789 13.9308 16.3029 13.6182 16.6155ZM22.3009 1.4555C22.5176 1.23881 22.7748 1.06692 23.0579 0.94964C23.341 0.832364 23.6444 0.772003 23.9509 0.772003C24.2573 0.772003 24.5608 0.832364 24.8439 0.94964C25.127 1.06692 25.3842 1.23881 25.6009 1.4555L26.5436 2.39951C26.7602 2.61618 26.9321 2.87341 27.0494 3.15652C27.1667 3.43963 27.2271 3.74307 27.2271 4.0495C27.2271 4.35594 27.1667 4.65938 27.0494 4.94249C26.9321 5.2256 26.7602 5.48283 26.5436 5.6995L19.7436 12.4995C20.0351 12.9323 20.2309 13.4222 20.318 13.9367C20.4052 14.4512 20.3816 14.9783 20.2488 15.4829C20.1161 15.9875 19.8772 16.458 19.5482 16.863C19.2192 17.268 18.8076 17.5982 18.3409 17.8315L17.2316 18.3862C17.0723 18.4656 16.9436 18.5951 16.8653 18.7549C16.787 18.9146 16.7634 19.0957 16.7982 19.2702L16.8182 19.3675C17.0506 20.5291 16.9495 21.7327 16.5267 22.8392C16.1039 23.9458 15.3766 24.9102 14.4289 25.6208C12.8813 26.7815 10.9671 27.3449 9.03754 27.2078C7.108 27.0706 5.29268 26.242 3.92488 24.8742L3.12622 24.0742C1.7587 22.7064 0.930346 20.8914 0.793191 18.9622C0.656036 17.0329 1.21928 15.1189 2.37955 13.5715C3.09024 12.6238 4.05458 11.8965 5.16114 11.4737C6.2677 11.0509 7.47131 10.9498 8.63288 11.1822L8.72888 11.2022C8.90354 11.2368 9.08474 11.2132 9.24467 11.1349C9.4046 11.0566 9.53443 10.928 9.61422 10.7688L10.1689 9.65817C10.4025 9.19186 10.7328 8.7807 11.1378 8.4521C11.5428 8.1235 12.0131 7.88501 12.5176 7.75253C13.022 7.62006 13.5489 7.59663 14.0631 7.68382C14.5773 7.77101 15.067 7.96681 15.4995 8.25817L22.3009 1.45684V1.4555ZM24.1862 2.87017C24.1237 2.80788 24.0391 2.77291 23.9509 2.77291C23.8627 2.77291 23.778 2.80788 23.7156 2.87017L22.1355 4.45017L23.5489 5.8635L25.1289 4.28484C25.1599 4.25387 25.1846 4.21709 25.2014 4.17659C25.2182 4.1361 25.2268 4.09268 25.2268 4.04884C25.2268 4.00499 25.2182 3.96158 25.2014 3.92108C25.1846 3.88059 25.1599 3.8438 25.1289 3.81284L24.1862 2.87017ZM22.1355 7.27817L20.7222 5.86484L16.2542 10.3315C16.1614 10.4244 16.0511 10.4981 15.9297 10.5484C15.8083 10.5987 15.6783 10.6246 15.5469 10.6246C15.4155 10.6246 15.2854 10.5987 15.1641 10.5484C15.0427 10.4981 14.9324 10.4244 14.8396 10.3315L14.6262 10.1195C14.4395 9.93303 14.2111 9.79356 13.9599 9.7126C13.7087 9.63163 13.4419 9.61147 13.1814 9.65378C12.9209 9.69609 12.6742 9.79966 12.4615 9.95597C12.2488 10.1123 12.0764 10.3168 11.9582 10.5528L11.4022 11.6635C11.1264 12.2149 10.6769 12.6604 10.123 12.9312C9.56907 13.202 8.94147 13.2832 8.33688 13.1622L8.24088 13.1435C7.44947 12.985 6.62936 13.0536 5.8753 13.3414C5.12124 13.6293 4.46401 14.1246 3.97955 14.7702C3.10759 15.9327 2.6843 17.3708 2.78742 18.8203C2.89054 20.2698 3.51314 21.6335 4.54088 22.6608L5.33955 23.4595C6.36701 24.4867 7.7305 25.1088 9.17972 25.2117C10.6289 25.3146 12.0666 24.8913 13.2289 24.0195C13.8742 23.5352 14.3694 22.8781 14.6572 22.1243C14.9451 21.3706 15.0138 20.5507 14.8556 19.7595L14.8369 19.6635C14.7157 19.0586 14.7969 18.4306 15.068 17.8763C15.339 17.3221 15.7849 16.8725 16.3369 16.5968L17.4475 16.0422C17.6837 15.924 17.8884 15.7513 18.0447 15.5385C18.201 15.3257 18.3046 15.0788 18.3468 14.8181C18.3889 14.5574 18.3686 14.2904 18.2874 14.0391C18.2061 13.7879 18.0664 13.5595 17.8795 13.3728L17.6675 13.1595C17.4803 12.972 17.3751 12.7178 17.3751 12.4528C17.3751 12.1878 17.4803 11.9337 17.6675 11.7462L22.1355 7.27951V7.27817Z" fill="#5B5B5B"/>
</svg>
