<svg width="24" height="24" viewBox="0 0 24 24" fill="none" xmlns="http://www.w3.org/2000/svg">
<path fill-rule="evenodd" clip-rule="evenodd" d="M15.4787 4.62145C15.0422 5.20347 14.75 6.04189 14.75 6.99988C14.75 7.95786 15.0422 8.79629 15.4787 9.3783C15.915 9.96009 16.4606 10.2499 17 10.2499C17.5394 10.2499 18.085 9.96009 18.5213 9.37831C18.9578 8.79629 19.25 7.95786 19.25 6.99988C19.25 6.04189 18.9578 5.20347 18.5213 4.62145C18.085 4.03966 17.5394 3.74988 17 3.74988C16.4606 3.74988 15.915 4.03966 15.4787 4.62145ZM14.2787 3.72145C14.9281 2.85552 15.8826 2.24988 17 2.24988C18.1174 2.24988 19.0719 2.85552 19.7213 3.72145C20.3706 4.58715 20.75 5.74872 20.75 6.99988C20.75 8.25103 20.3706 9.41261 19.7213 10.2783C19.2226 10.9432 18.5441 11.4547 17.75 11.6563V20.9999C17.75 21.4141 17.4142 21.7499 17 21.7499C16.5858 21.7499 16.25 21.4141 16.25 20.9999V11.6563C15.4559 11.4547 14.7774 10.9432 14.2787 10.2783C13.6294 9.41261 13.25 8.25103 13.25 6.99988C13.25 5.74872 13.6294 4.58715 14.2787 3.72145ZM4 2.74992C4.41421 2.74992 4.75 3.0857 4.75 3.49992L4.75 6.46142C4.75 7.18588 5.03162 7.8774 5.52776 8.38469C5.8405 8.70446 6.22212 8.93455 6.63542 9.06081L6.63542 3.49992C6.63542 3.0857 6.9712 2.74992 7.38542 2.74992C7.79963 2.74992 8.13542 3.0857 8.13542 3.49992L8.13542 9.06082C8.22105 9.03466 8.30551 9.00398 8.38847 8.96885C8.70702 8.83393 8.99757 8.63572 9.24307 8.38469C9.48861 8.13363 9.68424 7.83468 9.81801 7.50449C9.95178 7.17427 10.0208 6.81979 10.0208 6.46142L10.0208 3.49992C10.0208 3.0857 10.3566 2.74992 10.7708 2.74992C11.185 2.74992 11.5208 3.0857 11.5208 3.49992L11.5208 6.46142C11.5208 7.0122 11.4148 7.55796 11.2083 8.06769C11.0018 8.57744 10.6987 9.04169 10.3155 9.4335C9.93223 9.82534 9.47637 10.1371 8.97345 10.3501C8.70311 10.4646 8.42216 10.5493 8.13542 10.6031L8.13542 20.9999C8.13542 21.4141 7.79963 21.7499 7.38542 21.7499C6.9712 21.7499 6.63542 21.4141 6.63542 20.9999L6.63542 10.6031C5.81331 10.4488 5.0515 10.043 4.45537 9.4335C3.68174 8.64246 3.25 7.57307 3.25 6.46142L3.25 3.49992C3.25 3.0857 3.58579 2.74992 4 2.74992Z" fill="#131312"/>
</svg>
