<svg width="24" height="24" viewBox="0 0 24 24" fill="none" xmlns="http://www.w3.org/2000/svg">
<path fill-rule="evenodd" clip-rule="evenodd" d="M12 1.60706C7.20694 1.60706 3.32141 5.49258 3.32141 10.2856C3.32141 14.826 6.80808 18.552 11.25 18.9322V14.0249L8.89822 11.6731C8.60533 11.3802 8.60533 10.9053 8.89822 10.6124C9.19112 10.3195 9.66599 10.3195 9.95889 10.6124L12 12.6535L14.0411 10.6124C14.334 10.3195 14.8088 10.3195 15.1017 10.6124C15.3946 10.9053 15.3946 11.3802 15.1017 11.6731L12.75 14.0249V18.9322C17.1919 18.552 20.6786 14.826 20.6786 10.2856C20.6786 5.49258 16.793 1.60706 12 1.60706ZM12.75 20.437C18.0213 20.0531 22.1786 15.6548 22.1786 10.2856C22.1786 4.66416 17.6215 0.107056 12 0.107056C6.37851 0.107056 1.82141 4.66416 1.82141 10.2856C1.82141 15.6548 5.97871 20.0531 11.25 20.437V23.1428C11.25 23.557 11.5858 23.8928 12 23.8928C12.4142 23.8928 12.75 23.557 12.75 23.1428V20.437Z" fill="#131312"/>
</svg>
