<svg width="14" height="16" viewBox="0 0 14 16" fill="none" xmlns="http://www.w3.org/2000/svg">
<path d="M3.5 9C3.36739 9 3.24022 9.05268 3.14645 9.14645C3.05268 9.24021 3 9.36739 3 9.5V11.5C3 11.6326 3.05268 11.7598 3.14645 11.8536C3.24022 11.9473 3.36739 12 3.5 12C3.63261 12 3.75979 11.9473 3.85355 11.8536C3.94732 11.7598 4 11.6326 4 11.5V11.334H4.333C4.64251 11.334 4.93934 11.211 5.15819 10.9922C5.37705 10.7733 5.5 10.4765 5.5 10.167C5.5 9.85749 5.37705 9.56066 5.15819 9.34181C4.93934 9.12295 4.64251 9 4.333 9H3.5ZM4.333 10.334H4V10H4.333C4.37729 10 4.41977 10.0176 4.45109 10.0489C4.48241 10.0802 4.5 10.1227 4.5 10.167C4.5 10.2113 4.48241 10.2538 4.45109 10.2851C4.41977 10.3164 4.37729 10.334 4.333 10.334ZM9 9.499C9.00027 9.36656 9.05306 9.23964 9.1468 9.14609C9.24054 9.05254 9.36757 9 9.5 9H10.499C10.6316 9 10.7588 9.05268 10.8526 9.14645C10.9463 9.24021 10.999 9.36739 10.999 9.5C10.999 9.63261 10.9463 9.75979 10.8526 9.85355C10.7588 9.94732 10.6316 10 10.499 10H9.999V10.335H10.499C10.6316 10.335 10.7588 10.3877 10.8526 10.4814C10.9463 10.5752 10.999 10.7024 10.999 10.835C10.999 10.9676 10.9463 11.0948 10.8526 11.1886C10.7588 11.2823 10.6316 11.335 10.499 11.335H9.999L10 11.499C10.0001 11.5647 9.98733 11.6297 9.96232 11.6904C9.93732 11.7511 9.9006 11.8063 9.85426 11.8528C9.76068 11.9468 9.63361 11.9997 9.501 12C9.36839 12.0003 9.24111 11.9478 9.14715 11.8543C9.0532 11.7607 9.00027 11.6336 9 11.501V9.499ZM6.498 9C6.36539 9 6.23821 9.05268 6.14445 9.14645C6.05068 9.24021 5.998 9.36739 5.998 9.5V11.5C5.998 11.6326 6.05068 11.7598 6.14445 11.8536C6.23821 11.9473 6.36539 12 6.498 12H7C7.39782 12 7.77936 11.842 8.06066 11.5607C8.34196 11.2794 8.5 10.8978 8.5 10.5C8.5 10.1022 8.34196 9.72064 8.06066 9.43934C7.77936 9.15804 7.39782 9 7 9H6.498ZM6.998 11V10H7C7.13261 10 7.25979 10.0527 7.35355 10.1464C7.44732 10.2402 7.5 10.3674 7.5 10.5C7.5 10.6326 7.44732 10.7598 7.35355 10.8536C7.25979 10.9473 7.13261 11 7 11H6.998ZM1 2C1 1.46957 1.21071 0.960859 1.58579 0.585786C1.96086 0.210714 2.46957 0 3 0H7.585C7.78209 4.20407e-05 7.97723 0.038923 8.15928 0.114421C8.34134 0.189918 8.50673 0.300552 8.646 0.44L12.56 4.354C12.8414 4.63503 12.9997 5.01631 13 5.414V7.082C13.292 7.18572 13.5448 7.37735 13.7235 7.63055C13.9022 7.88375 13.9981 8.18609 13.998 8.496V12.499C13.9981 12.8089 13.9022 13.1113 13.7235 13.3645C13.5448 13.6177 13.292 13.8093 13 13.913V14C13 14.5304 12.7893 15.0391 12.4142 15.4142C12.0391 15.7893 11.5304 16 11 16H3C2.46957 16 1.96086 15.7893 1.58579 15.4142C1.21071 15.0391 1 14.5304 1 14V13.913C0.707744 13.8097 0.454678 13.6183 0.275605 13.3653C0.0965332 13.1123 0.000251033 12.81 2.06237e-07 12.5V8.497C-0.00016248 8.18667 0.0959278 7.88394 0.275028 7.63051C0.454129 7.37708 0.707422 7.18544 1 7.082V2ZM12 6H8.5C8.10218 6 7.72064 5.84196 7.43934 5.56066C7.15804 5.27936 7 4.89782 7 4.5V1H3C2.73478 1 2.48043 1.10536 2.29289 1.29289C2.10536 1.48043 2 1.73478 2 2V6.996H12V6ZM2 13.999C1.99987 14.1304 2.02564 14.2605 2.07583 14.382C2.12603 14.5034 2.19967 14.6138 2.29254 14.7068C2.38541 14.7997 2.49569 14.8735 2.61709 14.9238C2.73848 14.9741 2.86859 15 3 15H11C11.1314 15 11.2615 14.9741 11.3829 14.9238C11.5043 14.8735 11.6146 14.7997 11.7075 14.7068C11.8003 14.6138 11.874 14.5034 11.9242 14.382C11.9744 14.2605 12.0001 14.1304 12 13.999H2ZM8 1.207V4.5C8 4.63261 8.05268 4.75979 8.14645 4.85355C8.24021 4.94732 8.36739 5 8.5 5H11.793L8 1.207ZM1.5 7.996C1.36739 7.996 1.24022 8.04868 1.14645 8.14245C1.05268 8.23621 1 8.36339 1 8.496V12.499C1 12.6316 1.05268 12.7588 1.14645 12.8526C1.24022 12.9463 1.36739 12.999 1.5 12.999H12.497C12.6296 12.999 12.7568 12.9463 12.8506 12.8526C12.9443 12.7588 12.997 12.6316 12.997 12.499V8.496C12.997 8.36339 12.9443 8.23621 12.8506 8.14245C12.7568 8.04868 12.6296 7.996 12.497 7.996H1.5Z" fill="#131312"/>
</svg>
