<svg width="20" height="21" viewBox="0 0 20 21" fill="none" xmlns="http://www.w3.org/2000/svg">
<path d="M6.5 11.0169C6.36739 11.0169 6.24022 11.0696 6.14645 11.1634C6.05268 11.2572 6 11.3844 6 11.5171V13.5177C6 13.6503 6.05268 13.7775 6.14645 13.8713C6.24022 13.9651 6.36739 14.0178 6.5 14.0178C6.63261 14.0178 6.75979 13.9651 6.85355 13.8713C6.94732 13.7775 7 13.6503 7 13.5177V13.3516H7.333C7.64251 13.3516 7.93934 13.2286 8.15819 13.0097C8.37705 12.7908 8.5 12.4939 8.5 12.1843C8.5 11.8747 8.37705 11.5777 8.15819 11.3588C7.93934 11.1399 7.64251 11.0169 7.333 11.0169H6.5ZM7.333 12.3513H7V12.0172H7.333C7.37729 12.0172 7.41977 12.0348 7.45109 12.0661C7.48241 12.0975 7.5 12.14 7.5 12.1843C7.5 12.2286 7.48241 12.2711 7.45109 12.3024C7.41977 12.3337 7.37729 12.3513 7.333 12.3513ZM12 11.5161C12.0003 11.3836 12.0531 11.2566 12.1468 11.1631C12.2405 11.0695 12.3676 11.0169 12.5 11.0169H13.499C13.6316 11.0169 13.7588 11.0696 13.8526 11.1634C13.9463 11.2572 13.999 11.3844 13.999 11.5171C13.999 11.6497 13.9463 11.7769 13.8526 11.8707C13.7588 11.9645 13.6316 12.0172 13.499 12.0172H12.999V12.3523H13.499C13.6316 12.3523 13.7588 12.405 13.8526 12.4988C13.9463 12.5926 13.999 12.7198 13.999 12.8525C13.999 12.9851 13.9463 13.1123 13.8526 13.2061C13.7588 13.2999 13.6316 13.3526 13.499 13.3526H12.999L13 13.5167C13.0001 13.5824 12.9873 13.6474 12.9623 13.7082C12.9373 13.7689 12.9006 13.8241 12.8543 13.8706C12.7607 13.9646 12.6336 14.0176 12.501 14.0178C12.3684 14.0181 12.2411 13.9657 12.1472 13.872C12.0532 13.7784 12.0003 13.6513 12 13.5187V11.5161ZM9.498 11.0169C9.36539 11.0169 9.23821 11.0696 9.14445 11.1634C9.05068 11.2572 8.998 11.3844 8.998 11.5171V13.5177C8.998 13.6503 9.05068 13.7775 9.14445 13.8713C9.23821 13.9651 9.36539 14.0178 9.498 14.0178H10C10.3978 14.0178 10.7794 13.8597 11.0607 13.5784C11.342 13.297 11.5 12.9153 11.5 12.5174C11.5 12.1194 11.342 11.7378 11.0607 11.4564C10.7794 11.175 10.3978 11.0169 10 11.0169H9.498ZM9.998 13.0175V12.0172H10C10.1326 12.0172 10.2598 12.0699 10.3536 12.1637C10.4473 12.2575 10.5 12.3847 10.5 12.5174C10.5 12.65 10.4473 12.7772 10.3536 12.871C10.2598 12.9648 10.1326 13.0175 10 13.0175H9.998ZM4 4.01477C4 3.48418 4.21071 2.97531 4.58579 2.60013C4.96086 2.22494 5.46957 2.01416 6 2.01416H10.585C10.7821 2.0142 10.9772 2.0531 11.1593 2.12862C11.3413 2.20414 11.5067 2.3148 11.646 2.45429L15.56 6.36949C15.8414 6.65061 15.9997 7.03201 16 7.42982V9.09833C16.292 9.20208 16.5448 9.39377 16.7235 9.64704C16.9022 9.90032 16.9981 10.2028 16.998 10.5128V14.517C16.9981 14.827 16.9022 15.1294 16.7235 15.3827C16.5448 15.636 16.292 15.8277 16 15.9314V16.0184C16 16.549 15.7893 17.0579 15.4142 17.4331C15.0391 17.8083 14.5304 18.0191 14 18.0191H6C5.46957 18.0191 4.96086 17.8083 4.58579 17.4331C4.21071 17.0579 4 16.549 4 16.0184V15.9314C3.70774 15.8281 3.45468 15.6367 3.27561 15.3836C3.09653 15.1305 3.00025 14.8281 3 14.518V10.5138C2.99984 10.2033 3.09593 9.90051 3.27503 9.64701C3.45413 9.3935 3.70742 9.2018 4 9.09833V4.01477ZM15 8.016H11.5C11.1022 8.016 10.7206 7.85791 10.4393 7.57652C10.158 7.29513 10 6.91348 10 6.51554V3.01447H6C5.73478 3.01447 5.48043 3.11986 5.29289 3.30745C5.10536 3.49504 5 3.74947 5 4.01477V9.0123H15V8.016ZM5 16.0174C4.99987 16.1489 5.02564 16.2791 5.07583 16.4006C5.12603 16.522 5.19967 16.6324 5.29254 16.7254C5.38541 16.8184 5.49569 16.8922 5.61709 16.9425C5.73848 16.9928 5.86859 17.0188 6 17.0188H14C14.1314 17.0188 14.2615 16.9928 14.3829 16.9425C14.5043 16.8922 14.6146 16.8184 14.7075 16.7254C14.8003 16.6324 14.874 16.522 14.9242 16.4006C14.9744 16.2791 15.0001 16.1489 15 16.0174H5ZM11 3.22153V6.51554C11 6.64819 11.0527 6.7754 11.1464 6.8692C11.2402 6.963 11.3674 7.01569 11.5 7.01569H14.793L11 3.22153ZM4.5 10.0126C4.36739 10.0126 4.24022 10.0653 4.14645 10.1591C4.05268 10.2529 4 10.3801 4 10.5128V14.517C4 14.6496 4.05268 14.7769 4.14645 14.8706C4.24022 14.9644 4.36739 15.0171 4.5 15.0171H15.497C15.6296 15.0171 15.7568 14.9644 15.8506 14.8706C15.9443 14.7769 15.997 14.6496 15.997 14.517V10.5128C15.997 10.3801 15.9443 10.2529 15.8506 10.1591C15.7568 10.0653 15.6296 10.0126 15.497 10.0126H4.5Z" fill="#131418"/>
</svg>
