<svg width="24" height="24" viewBox="0 0 24 24" fill="none" xmlns="http://www.w3.org/2000/svg">
<path d="M18.035 15.096C17.3946 15.6045 16.6637 15.9872 15.881 16.224C15.959 16.72 16 17.229 16 17.748C17.7274 17.3011 19.2559 16.2899 20.3427 14.8749C21.4295 13.4599 22.0123 11.7223 21.9985 9.93814C21.9847 8.15398 21.3751 6.42559 20.2666 5.02756C19.158 3.62953 17.6141 2.64204 15.88 2.22196C13.838 1.72867 11.6839 2.05806 9.88261 3.13905C8.08133 4.22005 6.77731 5.96595 6.252 7.99996C6.77 7.99996 7.279 8.03996 7.775 8.11896C8.01176 7.33624 8.3945 6.60538 8.903 5.96496L18.035 15.096ZM19.095 14.036L15.062 9.99996L15.823 9.23896C16.5352 9.73545 17.3829 10.0008 18.251 9.99896C19.0345 10.0006 19.8031 9.78455 20.471 9.37496C20.6355 11.0478 20.1428 12.719 19.097 14.035L19.095 14.036ZM16.225 3.88996C16.885 4.12996 17.495 4.47496 18.036 4.90396L15.849 7.09096C15.6196 6.68128 15.4994 6.21949 15.5 5.74996C15.5 5.03296 15.775 4.37996 16.225 3.88996ZM14.76 8.17796L14 8.93896L9.965 4.90396C11.281 3.8582 12.9522 3.36544 14.625 3.52996C14.2151 4.19779 13.9987 4.96636 14 5.74996C14 6.65296 14.28 7.48996 14.76 8.17796ZM20.109 7.77596C19.6021 8.24256 18.938 8.50106 18.249 8.49996C17.762 8.49996 17.305 8.37296 16.909 8.15096L19.095 5.96496C19.5279 6.51002 19.8702 7.12216 20.109 7.77596ZM4.25 10.5C4.05109 10.5 3.86032 10.579 3.71967 10.7196C3.57902 10.8603 3.5 11.0511 3.5 11.25V13.25C3.5 15.1728 4.26384 17.0168 5.62348 18.3765C6.98311 19.7361 8.82718 20.5 10.75 20.5H12.75C12.9489 20.5 13.1397 20.4209 13.2803 20.2803C13.421 20.1396 13.5 19.9489 13.5 19.75V17.75C13.5 15.8271 12.7362 13.9831 11.3765 12.6234C10.0169 11.2638 8.17282 10.5 6.25 10.5H4.25ZM2 11.25C2 10.6532 2.23705 10.0809 2.65901 9.65897C3.08097 9.23702 3.65326 8.99996 4.25 8.99996H6.25C8.57064 8.99996 10.7962 9.92183 12.4372 11.5628C14.0781 13.2037 15 15.4293 15 17.75V19.75C15 20.3467 14.7629 20.919 14.341 21.341C13.919 21.7629 13.3467 22 12.75 22H10.75C8.42936 22 6.20376 21.0781 4.56282 19.4371C2.92187 17.7962 2 15.5706 2 13.25V11.25ZM7.78 13.72C7.63783 13.5875 7.44978 13.5154 7.25548 13.5188C7.06118 13.5222 6.87579 13.6009 6.73838 13.7383C6.60097 13.8758 6.52225 14.0611 6.51883 14.2554C6.5154 14.4497 6.58752 14.6378 6.72 14.78L9.22 17.28C9.28866 17.3537 9.37146 17.4128 9.46346 17.4537C9.55546 17.4947 9.65478 17.5168 9.75548 17.5186C9.85618 17.5203 9.95621 17.5018 10.0496 17.4641C10.143 17.4264 10.2278 17.3702 10.299 17.299C10.3703 17.2278 10.4264 17.1429 10.4641 17.0496C10.5018 16.9562 10.5204 16.8561 10.5186 16.7554C10.5168 16.6547 10.4948 16.5554 10.4538 16.4634C10.4128 16.3714 10.3537 16.2886 10.28 16.22L7.78 13.72Z" fill="#131312"/>
</svg>
