<svg width="24" height="24" viewBox="0 0 24 24" fill="none" xmlns="http://www.w3.org/2000/svg">
<path d="M13.4109 12.6L18.671 7.33997C19.3903 6.62066 19.3903 5.45444 18.671 4.73513L-nan -nanL18.671 4.73513C16.8396 2.90372 14.3556 1.87486 11.7656 1.87488C9.17558 1.8749 6.69165 2.90379 4.86025 4.73522C3.02884 6.56665 1.99998 9.05059 2 11.6406C2.00002 14.2306 3.02891 16.7146 4.86034 18.546L-nan -nanL4.86034 18.546C5.57953 19.2652 6.74567 19.2653 7.46491 18.546L12.3501 13.6609L20.0644 21.375H22.1858L13.4109 12.6ZM11.7657 3.37505C12.8516 3.37209 13.9273 3.58453 14.9305 4.00008C15.9337 4.41563 16.8446 5.02603 17.6103 5.79596L17.8521 6.03774L15.1775 8.71233C14.2701 7.78601 13.2839 6.94027 12.23 6.18464C11.048 5.34849 9.91258 4.76297 8.85531 4.44413C8.59218 4.3643 8.32468 4.29968 8.05412 4.25058C9.20571 3.67219 10.477 3.3723 11.7657 3.37505ZM6.16258 17.727L5.9208 17.4853C4.69324 16.2559 3.88348 14.6716 3.60617 12.9565C3.32886 11.2415 3.59804 9.48269 4.37561 7.9291C4.42473 8.19965 4.48935 8.46715 4.56916 8.73028C4.88791 9.7876 5.47384 10.923 6.30967 12.105C7.06529 13.1588 7.91104 14.145 8.83736 15.0525L6.16258 17.727ZM9.89852 13.9911C9.34272 13.4458 8.38769 12.4453 7.53423 11.2387C6.46211 9.72296 5.35033 7.58714 5.95206 5.82699C7.70617 5.22732 9.83331 6.33024 11.3429 7.39435C12.5553 8.24902 13.5662 9.2138 14.116 9.77367L9.89852 13.9911Z" fill="#131312"/>
</svg>
