<svg xmlns="http://www.w3.org/2000/svg" width="32" height="32" viewBox="0 0 32 32" fill="none">
<path d="M21.8333 10C21.8333 11.5913 21.2188 13.1174 20.1248 14.2426C19.0308 15.3679 17.5471 16 16 16C14.4529 16 12.9692 15.3679 11.8752 14.2426C10.7812 13.1174 10.1667 11.5913 10.1667 10C10.1667 8.4087 10.7812 6.88258 11.8752 5.75736C12.9692 4.63214 14.4529 4 16 4C17.5471 4 19.0308 4.63214 20.1248 5.75736C21.2188 6.88258 21.8333 8.4087 21.8333 10ZM20.1667 10C20.1667 8.86336 19.7277 7.77327 18.9463 6.96954C18.1649 6.16582 17.1051 5.71429 16 5.71429C14.8949 5.71429 13.8351 6.16582 13.0537 6.96954C12.2723 7.77327 11.8333 8.86336 11.8333 10C11.8333 11.1366 12.2723 12.2267 13.0537 13.0305C13.8351 13.8342 14.8949 14.2857 16 14.2857C17.1051 14.2857 18.1649 13.8342 18.9463 13.0305C19.7277 12.2267 20.1667 11.1366 20.1667 10ZM8.91667 17.7143C8.14312 17.7143 7.40125 18.0304 6.85427 18.593C6.30729 19.1556 6 19.9186 6 20.7143V21.1429C6 23.194 7.26917 24.9289 9.07083 26.1083C10.8825 27.2946 13.335 28 16 28C18.665 28 21.1167 27.2946 22.9292 26.1083C24.7308 24.9289 26 23.194 26 21.1429V20.7143C26 19.9186 25.6927 19.1556 25.1457 18.593C24.5987 18.0304 23.8569 17.7143 23.0833 17.7143H8.91667ZM7.66667 20.7143C7.66667 20.3733 7.79836 20.0463 8.03278 19.8051C8.2672 19.564 8.58515 19.4286 8.91667 19.4286H23.0833C23.4149 19.4286 23.7328 19.564 23.9672 19.8051C24.2016 20.0463 24.3333 20.3733 24.3333 20.7143V21.1429C24.3333 22.4054 23.55 23.6706 22.0342 24.6623C20.5283 25.648 18.3975 26.2857 16 26.2857C13.6025 26.2857 11.4717 25.648 9.96583 24.6623C8.44917 23.6714 7.66667 22.4046 7.66667 21.1429V20.7143Z" fill="#131418"/>
<circle cx="23" cy="3" r="2" fill="#C73930"/>
</svg>