<svg width="29" height="28" viewBox="0 0 29 28" fill="none" xmlns="http://www.w3.org/2000/svg">
<g id="fluent:question-circle-32-regular">
<path id="Vector" d="M15.8125 19.25C15.8125 19.5981 15.6742 19.9319 15.4281 20.1781C15.1819 20.4242 14.8481 20.5625 14.5 20.5625C14.1519 20.5625 13.8181 20.4242 13.5719 20.1781C13.3258 19.9319 13.1875 19.5981 13.1875 19.25C13.1875 18.9019 13.3258 18.5681 13.5719 18.3219C13.8181 18.0758 14.1519 17.9375 14.5 17.9375C14.8481 17.9375 15.1819 18.0758 15.4281 18.3219C15.6742 18.5681 15.8125 18.9019 15.8125 19.25ZM12.75 10.5C12.75 10.0301 12.9075 9.58913 13.1849 9.27675C13.4482 8.98013 13.8621 8.75 14.5 8.75C15.6445 8.75 16.5843 9.9295 16.2763 11.1632C16.1188 11.795 15.7425 12.1564 15.1764 12.6997L15.0206 12.8485C14.3827 13.4663 13.625 14.287 13.625 15.75C13.625 15.9821 13.7172 16.2046 13.8813 16.3687C14.0454 16.5328 14.2679 16.625 14.5 16.625C14.7321 16.625 14.9546 16.5328 15.1187 16.3687C15.2828 16.2046 15.375 15.9821 15.375 15.75C15.375 15.0264 15.6839 14.6414 16.2369 14.1076L16.404 13.9484C16.9413 13.4409 17.6867 12.7365 17.9737 11.5876C18.5407 9.32137 16.8555 7 14.5 7C13.3879 7 12.4893 7.42612 11.8776 8.11387C11.28 8.78587 11 9.65737 11 10.5C11 10.7321 11.0922 10.9546 11.2563 11.1187C11.4204 11.2828 11.6429 11.375 11.875 11.375C12.1071 11.375 12.3296 11.2828 12.4937 11.1187C12.6578 10.9546 12.75 10.7321 12.75 10.5ZM2.25 14C2.25 7.2345 7.7345 1.75 14.5 1.75C21.2655 1.75 26.75 7.2345 26.75 14C26.75 20.7655 21.2655 26.25 14.5 26.25C7.7345 26.25 2.25 20.7655 2.25 14ZM14.5 3.5C8.70138 3.5 4 8.20138 4 14C4 19.7986 8.70138 24.5 14.5 24.5C20.2986 24.5 25 19.7986 25 14C25 8.20138 20.2986 3.5 14.5 3.5Z" fill="#131418"/>
</g>
</svg>
