<svg width="18" height="19" viewBox="0 0 18 19" fill="none" xmlns="http://www.w3.org/2000/svg">
<path d="M3.28571 3.93103V6.5M3.28571 10.8649V13.3103M3.28571 16.2414V18M14.7143 16.2414V18M11.2857 11.5517C10.6795 11.5517 10.0981 11.3047 9.66947 10.8649C9.24082 10.4252 9 9.82878 9 9.2069C9 8.58501 9.24082 7.98859 9.66947 7.54885C10.0981 7.10911 10.6795 6.86207 11.2857 6.86207C11.8919 6.86207 12.4733 7.10911 12.902 7.54885C13.3306 7.98859 13.5714 8.58501 13.5714 9.2069C13.5714 9.82878 13.3306 10.4252 12.902 10.8649C12.4733 11.3047 11.8919 11.5517 11.2857 11.5517ZM2.14286 1H15.8571C16.1602 1 16.4509 1.12352 16.6653 1.34339C16.8796 1.56326 17 1.86147 17 2.17241V15.069C17 15.3799 16.8796 15.6781 16.6653 15.898C16.4509 16.1179 16.1602 16.2414 15.8571 16.2414H2.14286C1.83975 16.2414 1.54906 16.1179 1.33474 15.898C1.12041 15.6781 1 15.3799 1 15.069V2.17241C1 1.86147 1.12041 1.56326 1.33474 1.34339C1.54906 1.12352 1.83975 1 2.14286 1Z" stroke="#131418" stroke-width="1.6" stroke-linecap="round"/>
</svg>
