<svg width="18" height="18" viewBox="0 0 18 18" fill="none" xmlns="http://www.w3.org/2000/svg">
<path d="M7.00064 1.57026e-09C8.33415 -2.82359e-05 9.63992 0.380784 10.7643 1.09763C11.8888 1.81448 12.7851 2.83755 13.3478 4.04647C13.9105 5.25539 14.1162 6.59987 13.9407 7.92173C13.7653 9.24359 13.2159 10.4878 12.3573 11.5081L17.8259 16.9773C17.9323 17.0845 17.9943 17.2279 17.9996 17.3788C18.0049 17.5298 17.9531 17.6772 17.8546 17.7916C17.756 17.906 17.6179 17.9791 17.4678 17.9961C17.3178 18.0132 17.1668 17.9731 17.045 17.8838L16.9778 17.8254L11.5084 12.357C10.6469 13.0818 9.62335 13.5883 8.52447 13.8333C7.42559 14.0783 6.28383 14.0547 5.19602 13.7645C4.10821 13.4742 3.10645 12.9259 2.27571 12.1661C1.44496 11.4062 0.809734 10.4572 0.423912 9.39956C0.0380891 8.34191 -0.0869498 7.20681 0.0594007 6.09055C0.205751 4.97428 0.619174 3.90977 1.2646 2.98731C1.91003 2.06486 2.76842 1.31167 3.76697 0.791623C4.76553 0.27158 5.87478 2.83322e-05 7.00064 1.57026e-09ZM7.00064 1.20009C5.4622 1.20009 3.98678 1.81121 2.89894 2.89901C1.81111 3.9868 1.19996 5.46217 1.19996 7.00054C1.19996 8.53892 1.81111 10.0143 2.89894 11.1021C3.98678 12.1899 5.4622 12.801 7.00064 12.801C8.53907 12.801 10.0145 12.1899 11.1023 11.1021C12.1902 10.0143 12.8013 8.53892 12.8013 7.00054C12.8013 5.46217 12.1902 3.9868 11.1023 2.89901C10.0145 1.81121 8.53907 1.20009 7.00064 1.20009Z" fill="#131418"/>
</svg>
