<svg width="27" height="29" viewBox="0 0 27 29" fill="none" xmlns="http://www.w3.org/2000/svg">
<path d="M21.9999 19C21.2514 19.0037 20.5133 19.1755 19.84 19.5026C19.1668 19.8297 18.5755 20.3038 18.1099 20.89L10.7999 16.32C11.0664 15.4601 11.0664 14.5398 10.7999 13.68L18.1099 9.10996C18.8519 10.0287 19.8951 10.6551 21.0547 10.8784C22.2143 11.1016 23.4155 10.9072 24.4455 10.3296C25.4755 9.75198 26.2678 8.82845 26.6821 7.72261C27.0963 6.61676 27.1058 5.39998 26.7089 4.28779C26.3119 3.17561 25.5341 2.23982 24.5133 1.64619C23.4925 1.05256 22.2944 0.83941 21.1315 1.0445C19.9685 1.24958 18.9157 1.85967 18.1595 2.76668C17.4033 3.67369 16.9925 4.81908 16.9999 5.99996C17.0047 6.44714 17.072 6.89145 17.1999 7.31996L9.88994 11.89C9.24459 11.0775 8.36248 10.486 7.36589 10.1974C6.3693 9.9087 5.3076 9.93723 4.32795 10.279C3.3483 10.6207 2.49923 11.2588 1.89843 12.1047C1.29762 12.9506 0.974854 13.9624 0.974854 15C0.974854 16.0375 1.29762 17.0494 1.89843 17.8953C2.49923 18.7412 3.3483 19.3792 4.32795 19.7209C5.3076 20.0627 6.3693 20.0912 7.36589 19.8026C8.36248 19.5139 9.24459 18.9224 9.88994 18.11L17.1999 22.68C17.072 23.1085 17.0047 23.5528 16.9999 24C16.9999 24.9889 17.2932 25.9556 17.8426 26.7778C18.392 27.6001 19.1729 28.2409 20.0865 28.6194C21.0002 28.9978 22.0055 29.0968 22.9754 28.9039C23.9453 28.711 24.8362 28.2348 25.5355 27.5355C26.2347 26.8362 26.7109 25.9453 26.9039 24.9754C27.0968 24.0055 26.9978 23.0002 26.6193 22.0865C26.2409 21.1729 25.6 20.392 24.7778 19.8426C23.9555 19.2932 22.9888 19 21.9999 19V19ZM21.9999 2.99996C22.5933 2.99996 23.1733 3.17591 23.6666 3.50555C24.16 3.8352 24.5445 4.30373 24.7716 4.85191C24.9986 5.40009 25.0581 6.00329 24.9423 6.58523C24.8265 7.16717 24.5408 7.70172 24.1213 8.12128C23.7017 8.54084 23.1672 8.82656 22.5852 8.94232C22.0033 9.05807 21.4001 8.99866 20.8519 8.7716C20.3037 8.54454 19.8352 8.16002 19.5055 7.66667C19.1759 7.17332 18.9999 6.5933 18.9999 5.99996C18.9999 5.20431 19.316 4.44125 19.8786 3.87864C20.4412 3.31603 21.2043 2.99996 21.9999 2.99996V2.99996ZM5.99994 18C5.4066 18 4.82658 17.824 4.33323 17.4944C3.83988 17.1647 3.45536 16.6962 3.2283 16.148C3.00124 15.5998 2.94183 14.9966 3.05758 14.4147C3.17334 13.8327 3.45906 13.2982 3.87862 12.8786C4.29818 12.4591 4.83273 12.1734 5.41467 12.0576C5.99661 11.9418 6.59981 12.0013 7.14799 12.2283C7.69617 12.4554 8.1647 12.8399 8.49435 13.3332C8.82399 13.8266 8.99994 14.4066 8.99994 15C8.99994 15.7956 8.68387 16.5587 8.12126 17.1213C7.55865 17.6839 6.79559 18 5.99994 18ZM21.9999 27C21.4066 27 20.8266 26.824 20.3332 26.4944C19.8399 26.1647 19.4554 25.6962 19.2283 25.148C19.0012 24.5998 18.9418 23.9966 19.0576 23.4147C19.1733 22.8327 19.4591 22.2982 19.8786 21.8786C20.2982 21.4591 20.8327 21.1734 21.4147 21.0576C21.9966 20.9418 22.5998 21.0013 23.148 21.2283C23.6962 21.4554 24.1647 21.8399 24.4943 22.3333C24.824 22.8266 24.9999 23.4066 24.9999 24C24.9999 24.7956 24.6839 25.5587 24.1213 26.1213C23.5587 26.6839 22.7956 27 21.9999 27V27Z" fill="#131418"/>
</svg>
