<svg width="24" height="24" viewBox="0 0 24 24" fill="none" xmlns="http://www.w3.org/2000/svg">
<path fill-rule="evenodd" clip-rule="evenodd" d="M11.7215 4.30364C11.9003 4.23212 12.0997 4.23212 12.2785 4.30364L22.2785 8.30364C22.5633 8.41754 22.75 8.69332 22.75 9V15C22.75 15.4142 22.4142 15.75 22 15.75C21.5858 15.75 21.25 15.4142 21.25 15V10.1078L18.75 11.1078V16C18.75 17.2236 17.7962 18.1831 16.5781 18.7921C15.3248 19.4188 13.6777 19.75 12 19.75C10.3223 19.75 8.67519 19.4188 7.42195 18.7921C6.20379 18.1831 5.25 17.2236 5.25 16V11.1078L1.72146 9.69636C1.43671 9.58246 1.25 9.30668 1.25 9C1.25 8.69332 1.43671 8.41754 1.72146 8.30364L11.7215 4.30364ZM6.29432 9.90995C6.28378 9.90545 6.27312 9.90119 6.26234 9.89716L4.01944 9L12 5.80777L19.9806 9L17.7377 9.89716C17.7269 9.90119 17.7162 9.90545 17.7057 9.90995L12 12.1922L6.29432 9.90995ZM6.75 11.7078V16C6.75 16.3677 7.06049 16.9344 8.09277 17.4505C9.08996 17.9491 10.4951 18.25 12 18.25C13.5049 18.25 14.91 17.9491 15.9072 17.4505C16.9395 16.9344 17.25 16.3677 17.25 16V11.7078L12.2785 13.6964C12.0997 13.7679 11.9003 13.7679 11.7215 13.6964L6.75 11.7078Z" fill="#131312"/>
</svg>
