<svg width="28" height="28" viewBox="0 0 28 28" fill="none" xmlns="http://www.w3.org/2000/svg">
<path d="M8.99287 15.3387C9.16578 15.3385 9.33578 15.3831 9.48629 15.4683C9.63679 15.5534 9.76264 15.6761 9.85157 15.8244C9.94049 15.9727 9.98944 16.1415 9.99364 16.3144C9.99784 16.4872 9.95715 16.6582 9.87554 16.8107L9.79953 16.9307L3.63687 25.332H8.99287C9.23472 25.3321 9.46836 25.4198 9.6505 25.5789C9.83265 25.738 9.95097 25.9577 9.98354 26.1973L9.99287 26.3333C9.99286 26.575 9.90534 26.8085 9.74651 26.9906C9.58768 27.1727 9.36827 27.2911 9.12887 27.324L8.99287 27.3333H1.66354C1.49055 27.3334 1.3205 27.2886 1.17 27.2033C1.01951 27.118 0.893712 26.9951 0.804909 26.8467C0.716105 26.6982 0.66733 26.5293 0.663351 26.3563C0.659371 26.1834 0.700322 26.0124 0.782203 25.86L0.858203 25.7413L7.0182 17.3373H1.6662C1.42455 17.3373 1.19108 17.2498 1.00896 17.091C0.826844 16.9321 0.7084 16.7127 0.675536 16.4733L0.666203 16.3387C0.666257 16.0968 0.753958 15.8632 0.913061 15.681C1.07216 15.4989 1.29189 15.3806 1.53154 15.348L1.6662 15.3387H8.9942H8.99287ZM26.3369 0.666672C26.5149 0.666713 26.6897 0.714275 26.8432 0.804446C26.9967 0.894617 27.1233 1.02413 27.21 1.1796C27.2967 1.33508 27.3403 1.51088 27.3364 1.68886C27.3324 1.86683 27.2811 2.04053 27.1875 2.19201L27.1075 2.304L15.7862 15.9947H26.3369C26.5787 15.9947 26.8124 16.0824 26.9945 16.2415C27.1767 16.4006 27.295 16.6204 27.3275 16.86L27.3369 16.9947C27.3372 17.2366 27.2498 17.4703 27.091 17.6527C26.9321 17.8351 26.7125 17.9538 26.4729 17.9867L26.3369 17.9947H13.6635C13.4855 17.9946 13.3107 17.9471 13.1572 17.8569C13.0037 17.7667 12.8771 17.6372 12.7904 17.4817C12.7037 17.3263 12.6601 17.1505 12.664 16.9725C12.668 16.7945 12.7193 16.6208 12.8129 16.4693L12.8929 16.3587L24.2142 2.66667L13.6649 2.668C13.4232 2.66799 13.1897 2.58048 13.0076 2.42165C12.8255 2.26282 12.7071 2.04341 12.6742 1.804L12.6649 1.668C12.6649 1.42615 12.7526 1.19252 12.9117 1.01037C13.0708 0.828223 13.2906 0.709907 13.5302 0.677338L13.6635 0.666672H26.3369Z" fill="#001894"/>
</svg>
