<svg width="24" height="24" viewBox="0 0 24 24" fill="none" xmlns="http://www.w3.org/2000/svg">
<path d="M18.38 4.00005C18.69 4.00005 18.968 4.19205 19.08 4.48205C19.64 5.94405 20.689 6.49705 21.25 6.49705C21.4489 6.49705 21.6397 6.57606 21.7803 6.71672C21.921 6.85737 22 7.04813 22 7.24705C22 7.44596 21.921 7.63672 21.7803 7.77738C21.6397 7.91803 21.4489 7.99705 21.25 7.99705C20.248 7.99705 19.163 7.38605 18.377 6.31005C17.563 7.40305 16.406 7.99705 15.19 7.99705C13.973 7.99705 12.814 7.40205 12 6.30705C11.186 7.40205 10.027 7.99705 8.81 7.99705C7.595 7.99705 6.437 7.40405 5.624 6.31105C4.838 7.38805 3.753 8.00005 2.75 8.00005C2.55109 8.00005 2.36032 7.92103 2.21967 7.78038C2.07902 7.63972 2 7.44896 2 7.25005C2 7.05113 2.07902 6.86037 2.21967 6.71972C2.36032 6.57906 2.55109 6.50005 2.75 6.50005C3.31 6.50005 4.36 5.94705 4.92 4.48205C4.97425 4.34023 5.07025 4.21823 5.19533 4.13215C5.32041 4.04608 5.46867 4 5.6205 4C5.77233 4 5.92059 4.04608 6.04567 4.13215C6.17075 4.21823 6.26675 4.34023 6.321 4.48205C6.865 5.90105 7.891 6.49705 8.811 6.49705C9.731 6.49705 10.756 5.90105 11.3 4.48205C11.3544 4.34056 11.4504 4.21888 11.5754 4.13306C11.7004 4.04724 11.8484 4.0013 12 4.0013C12.1516 4.0013 12.2996 4.04724 12.4246 4.13306C12.5496 4.21888 12.6456 4.34056 12.7 4.48205C13.244 5.90105 14.27 6.49705 15.19 6.49705C16.11 6.49705 17.135 5.90005 17.679 4.48205C17.7332 4.34032 17.8292 4.21838 17.9541 4.13232C18.0791 4.04627 18.2283 4.00014 18.38 4.00005ZM18.38 10C18.5317 10.0001 18.6799 10.0463 18.8049 10.1323C18.9298 10.2184 19.0258 10.3403 19.08 10.482C19.64 11.944 20.689 12.497 21.25 12.497C21.4489 12.497 21.6397 12.5761 21.7803 12.7167C21.921 12.8574 22 13.0481 22 13.247C22 13.446 21.921 13.6367 21.7803 13.7774C21.6397 13.918 21.4489 13.997 21.25 13.997C20.248 13.997 19.163 13.386 18.377 12.31C17.563 13.403 16.406 13.997 15.19 13.997C13.973 13.997 12.814 13.402 12 12.307C11.186 13.402 10.027 13.997 8.81 13.997C7.595 13.997 6.437 13.404 5.624 12.312C4.838 13.388 3.753 14 2.75 14C2.55109 14 2.36032 13.921 2.21967 13.7804C2.07902 13.6397 2 13.449 2 13.25C2 13.0511 2.07902 12.8604 2.21967 12.7197C2.36032 12.5791 2.55109 12.5 2.75 12.5C3.31 12.5 4.36 11.947 4.92 10.482C4.97425 10.3402 5.07025 10.2182 5.19533 10.1322C5.32041 10.0461 5.46867 10 5.6205 10C5.77233 10 5.92059 10.0461 6.04567 10.1322C6.17075 10.2182 6.26675 10.3402 6.321 10.482C6.865 11.901 7.891 12.497 8.811 12.497C9.731 12.497 10.756 11.901 11.3 10.482C11.3544 10.3406 11.4504 10.2189 11.5754 10.1331C11.7004 10.0472 11.8484 10.0013 12 10.0013C12.1516 10.0013 12.2996 10.0472 12.4246 10.1331C12.5496 10.2189 12.6456 10.3406 12.7 10.482C13.244 11.901 14.27 12.497 15.19 12.497C16.11 12.497 17.135 11.9 17.679 10.482C17.7332 10.3403 17.8292 10.2184 17.9541 10.1323C18.0791 10.0463 18.2283 10.0001 18.38 10ZM19.08 16.482C19.0258 16.3402 18.9297 16.2182 18.8047 16.1322C18.6796 16.0461 18.5313 16 18.3795 16C18.2277 16 18.0794 16.0461 17.9543 16.1322C17.8293 16.2182 17.7332 16.3402 17.679 16.482C17.135 17.9 16.109 18.497 15.189 18.497C14.269 18.497 13.244 17.901 12.7 16.482C12.6456 16.3406 12.5496 16.2189 12.4246 16.1331C12.2996 16.0472 12.1516 16.0013 12 16.0013C11.8484 16.0013 11.7004 16.0472 11.5754 16.1331C11.4504 16.2189 11.3544 16.3406 11.3 16.482C10.756 17.901 9.73 18.497 8.81 18.497C7.89 18.497 6.865 17.901 6.321 16.482C6.26658 16.3406 6.17055 16.2189 6.04559 16.1331C5.92063 16.0472 5.77259 16.0013 5.621 16.0013C5.46941 16.0013 5.32137 16.0472 5.19641 16.1331C5.07145 16.2189 4.97542 16.3406 4.921 16.482C4.358 17.947 3.31 18.5 2.75 18.5C2.55109 18.5 2.36032 18.5791 2.21967 18.7197C2.07902 18.8604 2 19.0511 2 19.25C2 19.449 2.07902 19.6397 2.21967 19.7804C2.36032 19.921 2.55109 20 2.75 20C3.753 20 4.838 19.388 5.624 18.311C6.437 19.404 7.594 19.997 8.81 19.997C10.027 19.997 11.186 19.402 12 18.307C12.814 19.403 13.973 19.997 15.19 19.997C16.406 19.997 17.563 19.403 18.377 18.31C19.163 19.386 20.247 19.997 21.25 19.997C21.4489 19.997 21.6397 19.918 21.7803 19.7774C21.921 19.6367 22 19.446 22 19.247C22 19.0481 21.921 18.8574 21.7803 18.7167C21.6397 18.5761 21.4489 18.497 21.25 18.497C20.689 18.497 19.64 17.944 19.08 16.482Z" fill="#131312"/>
</svg>
