<svg width="28" height="28" viewBox="0 0 28 28" fill="none" xmlns="http://www.w3.org/2000/svg">
<g id="fluent:star-emphasis-32-regular">
<g id="Group">
<path id="Vector" d="M12.5894 3.56459C13.1669 2.39384 14.8364 2.39384 15.4139 3.56459L18.0756 8.95809L24.0283 9.82259C25.3198 10.0107 25.836 11.5988 24.9006 12.5088L20.5939 16.708L21.6106 22.6361C21.8311 23.9223 20.481 24.9032 19.3251 24.296L14.0016 21.4968L8.67814 24.2968C7.52314 24.9032 6.17214 23.9223 6.39264 22.6361L7.40939 16.708L3.10264 12.5097C2.16726 11.598 2.68264 10.0107 3.97501 9.82346L9.92764 8.95721L12.5894 3.56459ZM14.0016 4.65659L11.4554 9.81471C11.3424 10.0437 11.1755 10.2418 10.969 10.392C10.7624 10.5421 10.5225 10.6398 10.2698 10.6766L4.57789 11.5035L8.69652 15.5188C8.87939 15.697 9.0162 15.917 9.09516 16.1598C9.17412 16.4027 9.19286 16.661 9.14976 16.9127L8.17764 22.5827L13.2684 19.9052C13.4945 19.7863 13.7462 19.7241 14.0016 19.7241C14.2571 19.7241 14.5088 19.7863 14.7349 19.9052L19.8256 22.5827L18.8544 16.9127C18.8112 16.6611 18.8298 16.4028 18.9086 16.16C18.9874 15.9171 19.124 15.6971 19.3068 15.5188L23.4254 11.5035L17.7335 10.6766C17.4807 10.6399 17.2405 10.5423 17.0338 10.3922C16.8271 10.242 16.6601 10.0438 16.547 9.81471L14.0016 4.65659Z" fill="#131418"/>
<path id="Vector_2" d="M22.1313 8.37987C21.9673 8.21578 21.8751 7.99326 21.8751 7.76124C21.8751 7.52922 21.9673 7.3067 22.1313 7.14262L24.7563 4.51762C24.837 4.43404 24.9336 4.36738 25.0403 4.32153C25.1471 4.27567 25.2619 4.25153 25.3781 4.25052C25.4943 4.24951 25.6095 4.27165 25.717 4.31565C25.8246 4.35964 25.9222 4.42461 26.0044 4.50677C26.0866 4.58893 26.1515 4.68662 26.1955 4.79416C26.2395 4.90169 26.2617 5.01691 26.2607 5.13309C26.2596 5.24927 26.2355 5.36409 26.1896 5.47084C26.1438 5.5776 26.0771 5.67415 25.9936 5.75487L23.3686 8.37987C23.2045 8.5439 22.982 8.63605 22.7499 8.63605C22.5179 8.63605 22.2954 8.5439 22.1313 8.37987ZM2.00631 20.2676C1.92501 20.3489 1.86051 20.4453 1.81649 20.5515C1.77247 20.6576 1.7498 20.7714 1.74976 20.8864C1.74972 21.0013 1.77231 21.1151 1.81626 21.2213C1.8602 21.3275 1.92463 21.424 2.00587 21.5053C2.08711 21.5866 2.18357 21.6511 2.28973 21.6951C2.3959 21.7391 2.50969 21.7618 2.62462 21.7619C2.73955 21.7619 2.85337 21.7393 2.95956 21.6954C3.06576 21.6514 3.16226 21.587 3.24356 21.5057L5.86856 18.8807C5.94985 18.7995 6.01435 18.703 6.05837 18.5969C6.10239 18.4907 6.12507 18.3769 6.12511 18.262C6.12515 18.1471 6.10255 18.0332 6.05861 17.927C6.01467 17.8209 5.95023 17.7243 5.869 17.6431C5.78776 17.5618 5.6913 17.4973 5.58513 17.4532C5.47897 17.4092 5.36517 17.3865 5.25024 17.3865C5.13531 17.3865 5.0215 17.4091 4.9153 17.453C4.80911 17.4969 4.7126 17.5614 4.63131 17.6426L2.00631 20.2676ZM2.00631 4.51762C2.17039 4.35358 2.39291 4.26143 2.62493 4.26143C2.85695 4.26143 3.07947 4.35358 3.24356 4.51762L5.86856 7.14262C6.02795 7.30764 6.11614 7.52867 6.11415 7.75809C6.11215 7.98751 6.02013 8.20697 5.8579 8.36921C5.69567 8.53144 5.47621 8.62346 5.24678 8.62546C5.01736 8.62745 4.79634 8.53925 4.63131 8.37987L2.00631 5.75487C1.84227 5.59078 1.75012 5.36826 1.75012 5.13624C1.75012 4.90422 1.84227 4.6817 2.00631 4.51762ZM23.3686 17.6426C23.2044 17.4785 22.9817 17.3864 22.7496 17.3865C22.5175 17.3866 22.2949 17.4789 22.1309 17.6431C21.9668 17.8072 21.8747 18.0299 21.8748 18.262C21.8748 18.4941 21.9671 18.7167 22.1313 18.8807L24.7563 21.5057C24.9205 21.6698 25.1431 21.7619 25.3752 21.7619C25.6074 21.7618 25.8299 21.6695 25.994 21.5053C26.1581 21.3411 26.2502 21.1185 26.2501 20.8864C26.25 20.6543 26.1577 20.4317 25.9936 20.2676L23.3686 17.6426Z" fill="#131418"/>
</g>
</g>
</svg>
