<svg width="20" height="20" viewBox="0 0 20 20" fill="none" xmlns="http://www.w3.org/2000/svg">
<path d="M10.0049 6.90805L2.73239 13.9847C2.67378 14.043 2.6042 14.089 2.52767 14.1202C2.45115 14.1514 2.36919 14.1671 2.28656 14.1665C2.20392 14.1658 2.12224 14.1487 2.04624 14.1162C1.97024 14.0838 1.90144 14.0366 1.84381 13.9773C1.78617 13.9181 1.74086 13.848 1.71049 13.7712C1.68012 13.6943 1.66529 13.6122 1.66686 13.5296C1.66843 13.447 1.68638 13.3655 1.71965 13.2898C1.75293 13.2142 1.80088 13.1459 1.86072 13.0889L9.56905 5.58888C9.68573 5.47536 9.8421 5.41185 10.0049 5.41185C10.1677 5.41185 10.324 5.47536 10.4407 5.58888L18.1491 13.0889C18.2089 13.1459 18.2568 13.2142 18.2901 13.2898C18.3234 13.3655 18.3413 13.447 18.3429 13.5296C18.3445 13.6122 18.3297 13.6943 18.2993 13.7712C18.2689 13.848 18.2236 13.9181 18.166 13.9773C18.1083 14.0366 18.0395 14.0838 17.9635 14.1162C17.8875 14.1487 17.8059 14.1658 17.7232 14.1665C17.6406 14.1671 17.5586 14.1514 17.4821 14.1202C17.4056 14.089 17.336 14.043 17.2774 13.9847L10.0049 6.90721L10.0049 6.90805Z" fill="#131418"/>
</svg>
