<svg width="12" height="13" viewBox="0 0 12 13" fill="none" xmlns="http://www.w3.org/2000/svg">
<path d="M3.79289 8.70757C3.69912 8.6138 3.64644 8.48662 3.64644 8.35402C3.64644 8.22141 3.69912 8.09423 3.79289 8.00046L7.62152 4.1718L3.87881 4.17251C3.81306 4.17251 3.74796 4.15956 3.68722 4.1344C3.62648 4.10924 3.57129 4.07237 3.52481 4.02588C3.47832 3.97939 3.44144 3.9242 3.41628 3.86346C3.39112 3.80272 3.37817 3.73762 3.37817 3.67188C3.37817 3.60613 3.39112 3.54103 3.41628 3.4803C3.44144 3.41956 3.47832 3.36437 3.52481 3.31788C3.57129 3.27139 3.62648 3.23451 3.68722 3.20935C3.74796 3.1842 3.81306 3.17125 3.87881 3.17125L8.82855 3.17125C8.89432 3.17116 8.95946 3.18406 9.02024 3.20919C9.08101 3.23431 9.13623 3.27119 9.18274 3.31769C9.22924 3.3642 9.26612 3.41942 9.29125 3.4802C9.31638 3.54097 9.32927 3.60611 9.32919 3.67188L9.32918 8.62163C9.32918 8.7544 9.27644 8.88174 9.18255 8.97563C9.08867 9.06951 8.96133 9.12226 8.82855 9.12226C8.69578 9.12226 8.56844 9.06951 8.47455 8.97563C8.38067 8.88174 8.32792 8.7544 8.32792 8.62163L8.32863 4.87891L4.5 8.70757C4.40623 8.80134 4.27905 8.85402 4.14644 8.85402C4.01383 8.85402 3.88666 8.80134 3.79289 8.70757Z" fill="#4356BC"/>
</svg>
