<svg width="20" height="21" viewBox="0 0 20 21" fill="none" xmlns="http://www.w3.org/2000/svg">
<path d="M9.99511 13.1334L17.2676 6.05676C17.3262 5.9985 17.3958 5.95243 17.4723 5.92124C17.5489 5.89004 17.6308 5.87434 17.7134 5.87502C17.7961 5.87571 17.8778 5.89278 17.9538 5.92524C18.0298 5.9577 18.0986 6.00491 18.1562 6.06414C18.2138 6.12337 18.2591 6.19344 18.2895 6.2703C18.3199 6.34715 18.3347 6.42927 18.3331 6.5119C18.3316 6.59452 18.3136 6.67602 18.2803 6.75166C18.2471 6.82731 18.1991 6.8956 18.1393 6.95259L10.4309 14.4526C10.3143 14.5661 10.1579 14.6296 9.99511 14.6296C9.83232 14.6296 9.67596 14.5661 9.55928 14.4526L1.85094 6.95259C1.7911 6.8956 1.74315 6.8273 1.70988 6.75166C1.6766 6.67601 1.65866 6.59452 1.65709 6.5119C1.65551 6.42927 1.67034 6.34715 1.70071 6.2703C1.73109 6.19344 1.7764 6.12337 1.83403 6.06414C1.89166 6.00491 1.96047 5.9577 2.03646 5.92524C2.11246 5.89278 2.19414 5.87571 2.27678 5.87502C2.35942 5.87433 2.44137 5.89004 2.5179 5.92124C2.59443 5.95243 2.66401 5.9985 2.72261 6.05676L9.99511 13.1343L9.99511 13.1334Z" fill="#131418"/>
</svg>
