<svg width="12" height="12" viewBox="0 0 12 12" fill="none" xmlns="http://www.w3.org/2000/svg">
<path d="M5.99712 7.85518L10.3606 3.60918C10.3958 3.57422 10.4375 3.54658 10.4834 3.52787C10.5294 3.50915 10.5785 3.49972 10.6281 3.50013C10.6777 3.50055 10.7267 3.51079 10.7723 3.53026C10.8179 3.54974 10.8592 3.57807 10.8938 3.61361C10.9283 3.64914 10.9555 3.69119 10.9738 3.7373C10.992 3.78341 11.0009 3.83269 10.9999 3.88226C10.999 3.93184 10.9882 3.98073 10.9683 4.02612C10.9483 4.07151 10.9195 4.11248 10.8836 4.14668L6.25862 8.64668C6.18861 8.71479 6.09479 8.7529 5.99712 8.7529C5.89944 8.7529 5.80562 8.71479 5.73562 8.64668L1.11062 4.14668C1.07471 4.11248 1.04594 4.0715 1.02598 4.02612C1.00601 3.98073 0.995246 3.93184 0.994302 3.88226C0.993359 3.83268 1.00226 3.78341 1.02048 3.7373C1.0387 3.69119 1.06589 3.64914 1.10047 3.61361C1.13505 3.57807 1.17633 3.54974 1.22193 3.53026C1.26753 3.51079 1.31654 3.50055 1.36612 3.50013C1.4157 3.49972 1.46487 3.50915 1.51079 3.52787C1.5567 3.54658 1.59845 3.57422 1.63362 3.60918L5.99712 7.85568L5.99712 7.85518Z" fill="#4356BC"/>
</svg>
