<svg width="33" height="32" viewBox="0 0 33 32" fill="none" xmlns="http://www.w3.org/2000/svg">
<path d="M14.807 10.603L12.222 12.974C12.0945 13.0911 11.9995 13.2392 11.9462 13.404C11.8929 13.5687 11.8832 13.7444 11.918 13.914M14.807 10.603L17.098 21.42C16.9333 21.472 16.7579 21.4804 16.5889 21.4445C16.42 21.4086 16.2633 21.3295 16.134 21.215L16.054 21.141M14.807 10.603C15.1006 10.3336 15.3071 9.98265 15.3999 9.59513M14.807 10.603L15.3999 9.59513M11.918 13.914L11.941 14.018M11.918 13.914L12.1132 13.8708L12.1136 13.8724M11.918 13.914L12.1139 13.8738C12.1138 13.8734 12.1137 13.8729 12.1136 13.8724M11.941 14.018L12.005 14.279M11.941 14.018L12.1352 13.9704L12.1357 13.9726M11.941 14.018L12.1362 13.9748L12.1357 13.9726M12.005 14.279C12.062 14.499 12.148 14.809 12.269 15.179C12.509 15.914 12.892 16.902 13.462 17.889C14.032 18.876 14.696 19.702 15.212 20.277M12.005 14.279L12.1986 14.2288C12.1987 14.2292 12.1988 14.2297 12.1989 14.2301M12.005 14.279L12.1992 14.2314L12.1989 14.2301M15.212 20.277C15.4807 20.5764 15.7616 20.8646 16.054 21.141M15.212 20.277L15.3608 20.1434M15.212 20.277L15.3608 20.1434C15.3608 20.1434 15.3608 20.1434 15.3608 20.1434M16.054 21.141L16.1898 20.9942L16.1906 20.995C15.9025 20.7226 15.6257 20.4385 15.3608 20.1434M16.054 21.141L16.1913 20.9957L16.2681 21.0666C16.3712 21.1575 16.4961 21.2203 16.6305 21.2489C16.7657 21.2776 16.906 21.2709 17.0378 21.2293L17.0379 21.2292L20.3839 20.1762L20.384 20.1762C20.8022 20.0447 21.2501 20.0412 21.6703 20.1661C22.0905 20.2909 22.4638 20.5384 22.7424 20.8769L24.3252 22.7987C25.0527 23.6805 24.9666 24.9763 24.1303 25.7553C22.0048 27.7363 19.0408 28.1738 16.9586 26.4988L16.9584 26.4987C14.5075 24.522 12.4414 22.1111 10.8631 19.3866C9.27155 16.6633 8.20834 13.664 7.72928 10.5464L7.72696 10.5313V10.5299C7.33643 7.89945 9.20007 5.56854 11.9714 4.71976L11.9714 4.71975C12.5013 4.55757 13.0731 4.60366 13.5701 4.84861C14.0672 5.09356 14.4521 5.51891 14.6463 6.03791L15.5153 8.35784L15.5153 8.35787C15.669 8.76838 15.6965 9.21544 15.5944 9.64172C15.4923 10.068 15.2652 10.454 14.9422 10.7504L14.9421 10.7504L12.3573 13.1213C12.2552 13.215 12.1791 13.3336 12.1365 13.4655C12.094 13.5969 12.0861 13.7371 12.1136 13.8724M12.1136 13.8724L12.1357 13.9726M12.1357 13.9726L12.1989 14.2301M12.1989 14.2301C12.2551 14.4468 12.3398 14.7523 12.4591 15.1168L12.4591 15.1169C12.6963 15.8433 13.0742 16.8176 13.6352 17.789C14.1962 18.7604 14.8508 19.5751 15.3608 20.1434M15.3999 9.59513C15.4927 9.2076 15.4677 8.80119 15.328 8.428L15.3999 9.59513ZM13.8778 13.8976L13.787 13.9808L13.8205 14.0994C13.8697 14.2736 13.9225 14.4469 13.9788 14.619C14.2446 15.4418 14.5935 16.2355 15.02 16.9876L15.02 16.9877L15.0215 16.9904C15.4597 17.7357 15.9726 18.4344 16.5523 19.0758C16.673 19.2105 16.7965 19.3427 16.9226 19.4724L17.0085 19.5608L17.126 19.5238L19.903 18.6498C19.903 18.6498 19.903 18.6498 19.903 18.6498C20.6254 18.4225 21.3993 18.4163 22.1253 18.632C22.8513 18.8476 23.4963 19.2753 23.9775 19.8601L23.9776 19.8601L25.5606 21.7821C26.1695 22.5215 26.4734 23.4653 26.4105 24.4211C26.3475 25.3769 25.9223 26.2726 25.2216 26.9257L25.2216 26.9257C22.6925 29.2842 18.8307 30.0561 15.9552 27.7461C13.3517 25.6465 11.1567 23.0857 9.48001 20.1917L9.47967 20.1911C7.7873 17.2932 6.65686 14.1019 6.14767 10.7848C5.59498 7.14247 8.20291 4.20055 11.5034 3.19026C12.4227 2.90922 13.4145 2.98933 14.2767 3.41425C15.1389 3.83918 15.8066 4.57694 16.1437 5.47713L16.1437 5.47722L17.0137 7.79712C17.2791 8.50618 17.3267 9.27838 17.1503 10.0147C16.974 10.751 16.5817 11.4178 16.0238 11.9296C16.0238 11.9296 16.0238 11.9296 16.0238 11.9296L13.8778 13.8976Z" fill="#FAFAFD" stroke="url(#paint0_linear_1733_1567)" stroke-width="0.4"/>
<defs>
<linearGradient id="paint0_linear_1733_1567" x1="26.6186" y1="0.388513" x2="-1.32157" y2="24.7382" gradientUnits="userSpaceOnUse">
<stop stop-color="#125EF3"/>
<stop offset="1" stop-color="#C024E7"/>
</linearGradient>
</defs>
</svg>
