<svg width="18" height="21" viewBox="0 0 18 21" fill="none" xmlns="http://www.w3.org/2000/svg">
<path d="M8.25 4C8.25 4.19891 8.17098 4.38968 8.03033 4.53033C7.88968 4.67098 7.69891 4.75 7.5 4.75H6C5.80109 4.75 5.61032 4.67098 5.46967 4.53033C5.32902 4.38968 5.25 4.19891 5.25 4C5.25 3.80109 5.32902 3.61032 5.46967 3.46967C5.61032 3.32902 5.80109 3.25 6 3.25H7.5C7.69891 3.25 7.88968 3.32902 8.03033 3.46967C8.17098 3.61032 8.25 3.80109 8.25 4ZM13.05 16.5344L13.3688 18.7844C13.4013 18.9973 13.3872 19.2148 13.3276 19.4218C13.268 19.6288 13.1643 19.8205 13.0235 19.9835C12.8827 20.1466 12.7082 20.2772 12.5121 20.3664C12.316 20.4555 12.1029 20.5011 11.8875 20.5H6.1125C5.89708 20.5011 5.68397 20.4555 5.48786 20.3664C5.29175 20.2772 5.1173 20.1466 4.97651 19.9835C4.83573 19.8205 4.73196 19.6288 4.67236 19.4218C4.61275 19.2148 4.59873 18.9973 4.63125 18.7844L4.95 16.5344C3.46208 15.7846 2.2115 14.6365 1.33753 13.218C0.463568 11.7994 0.000533581 10.1661 0 8.5C0 8.30109 0.0790178 8.11032 0.21967 7.96967C0.360322 7.82902 0.551088 7.75 0.75 7.75H2.25V1.75C2.25 1.35218 2.40804 0.970644 2.68934 0.68934C2.97064 0.408035 3.35218 0.25 3.75 0.25H14.25C14.6478 0.25 15.0294 0.408035 15.3107 0.68934C15.592 0.970644 15.75 1.35218 15.75 1.75V7.75H17.25C17.4489 7.75 17.6397 7.82902 17.7803 7.96967C17.921 8.11032 18 8.30109 18 8.5C17.9995 10.1661 17.5364 11.7994 16.6625 13.218C15.7885 14.6365 14.5379 15.7846 13.05 16.5344V16.5344ZM3.75 7.75H14.25V1.75H3.75V7.75ZM11.6156 17.1156C9.90951 17.628 8.09049 17.628 6.38437 17.1156L6.1125 19H11.8875L11.6156 17.1156ZM16.4625 9.25H1.5375C1.72321 11.1001 2.58958 12.8153 3.9685 14.0628C5.34742 15.3102 7.14056 16.0009 9 16.0009C10.8594 16.0009 12.6526 15.3102 14.0315 14.0628C15.4104 12.8153 16.2768 11.1001 16.4625 9.25V9.25Z" fill="#131418"/>
</svg>
