<svg width="24" height="24" viewBox="0 0 24 24" fill="none" xmlns="http://www.w3.org/2000/svg">
<path fill-rule="evenodd" clip-rule="evenodd" d="M12 13.75C9.42199 13.75 7.38223 11.7915 7.25618 9.25H8.75881C8.88035 10.9646 10.2462 12.25 12 12.25C13.7538 12.25 15.1197 10.9646 15.2412 9.25H16.7438C16.6178 11.7915 14.578 13.75 12 13.75Z" fill="#131418"/>
<path fill-rule="evenodd" clip-rule="evenodd" d="M16.75 6V6.25H19C19.9619 6.25 20.75 7.03807 20.75 8V20C20.75 20.9619 19.9619 21.75 19 21.75H5C4.03807 21.75 3.25 20.9619 3.25 20V8C3.25 7.03807 4.03807 6.25 5 6.25H7.25V6C7.25 3.33807 9.33807 1.25 12 1.25C14.6619 1.25 16.75 3.33807 16.75 6ZM8.75 6.25V6C8.75 4.16193 10.1619 2.75 12 2.75C13.8381 2.75 15.25 4.16193 15.25 6V6.25H8.75ZM19.25 20.25H4.75V7.75H19.25V20.25Z" fill="#131418"/>
</svg>
