<svg width="26" height="17" viewBox="0 0 26 17" fill="none" xmlns="http://www.w3.org/2000/svg">
<path d="M2.42272 1.27339L2.43137 1.27344L5.92188 1.29688C5.92219 1.29688 5.9225 1.29688 5.92281 1.29688L5.92355 1.29688L5.92188 1.54688C6.13281 1.54688 6.32031 1.6875 6.39062 1.89844L2.42272 1.27339ZM2.42272 1.27339L2.41409 1.27392C2.00934 1.29922 1.61049 1.40802 1.3087 1.65951C0.9976 1.91876 0.820312 2.30409 0.820312 2.8125C0.820312 3.07387 0.871522 3.36059 0.952613 3.57782C2.23404 7.18657 3.79062 10.4516 5.54522 12.8197C7.29276 15.1783 9.27958 16.7031 11.4297 16.7031H13.7266H13.7355L13.7444 16.7025L14.0725 16.6791L14.0892 16.6779L14.1057 16.6744C14.7898 16.5319 15.1471 15.9903 15.2799 15.5122L15.2832 15.5006L15.2853 15.4888L15.3544 15.097C15.4301 14.7721 15.4989 14.4567 15.5669 14.1453C15.6187 13.9078 15.67 13.6726 15.7234 13.4374C15.9402 13.7102 16.1576 13.9858 16.3759 14.2626C16.8823 14.9048 17.394 15.5536 17.9161 16.1898L17.9239 16.1993L17.9326 16.208C18.192 16.4675 18.58 16.7266 19.0703 16.7266C19.1306 16.7266 19.1805 16.7165 19.2094 16.7107L19.2131 16.71C19.2435 16.7039 19.2504 16.7031 19.2578 16.7031H22.8203H22.8277L22.835 16.7027L23.2334 16.6793L23.2334 16.6795L23.2436 16.6784C23.6348 16.6393 24.0404 16.4958 24.354 16.2436C24.6723 15.9876 24.8984 15.6152 24.8984 15.1406C24.8984 14.8274 24.7864 14.4717 24.5694 14.1733L24.5695 14.1731L24.563 14.1649L21.1412 9.85242L21.1412 9.85237L21.1374 9.84777C21.0368 9.72711 21.0078 9.64222 21.0078 9.58594C21.0078 9.49812 21.0441 9.38646 21.1688 9.22031L21.1691 9.22054L21.1768 9.20899C21.4277 8.83261 21.7667 8.40135 22.1467 7.9251C22.1924 7.86786 22.2386 7.81002 22.2853 7.7516C22.6246 7.32705 22.988 6.87246 23.3348 6.40354C24.1182 5.34431 24.8494 4.17138 25.0357 3.04066L25.0391 3.02047V3V2.83594V2.81525L25.0357 2.79484C25.0331 2.77959 25.0319 2.75195 25.0294 2.68509C25.0271 2.62656 25.0239 2.55043 25.0138 2.46631C24.9937 2.29883 24.9456 2.09133 24.8161 1.88711C24.6688 1.62689 24.3457 1.32613 23.8883 1.3204L23.6655 1.29812L23.6531 1.29688H23.6406H20.0078C19.8807 1.29688 19.7782 1.32665 19.7022 1.3619C19.5359 1.41961 19.2877 1.54059 19.0459 1.71206C18.7976 1.88806 18.5326 2.13359 18.378 2.44288C18.3757 2.44741 18.3731 2.45211 18.3678 2.46125L18.3665 2.46348C18.3619 2.47137 18.3534 2.48609 18.3457 2.50148C18.3275 2.53803 18.31 2.58509 18.3057 2.6441C18.2162 3.13088 17.851 3.8665 17.3332 4.71883C16.8167 5.56897 16.1708 6.50026 15.562 7.35495L15.5571 7.36181L15.5527 7.36898C15.3983 7.6199 15.2356 7.67188 15.1562 7.67188C15.1388 7.67188 15.1213 7.66951 15.1016 7.66273V2.48438C15.1016 1.72669 14.8278 1.18517 14.3761 0.841146C13.9357 0.505813 13.3587 0.382812 12.7891 0.382812V0.382773L12.7846 0.382852L11.4772 0.406199C10.4295 0.38302 9.28365 0.93456 8.90764 2.06447C8.86656 2.15837 8.86697 2.24763 8.86716 2.28954C8.86718 2.29218 8.86719 2.29462 8.86719 2.29688C8.86719 2.63779 9.10414 2.98752 9.49434 3.05847C9.61517 3.08044 9.67791 3.10018 9.7117 3.11699C9.71902 3.12063 9.7237 3.12353 9.72648 3.12545C9.72834 3.12674 9.72941 3.12763 9.72991 3.12807C9.73008 3.12838 9.73032 3.12885 9.73062 3.12951C9.73568 3.14056 9.74516 3.1725 9.74885 3.26093C9.75136 3.32129 9.75097 3.38959 9.75048 3.47648C9.75025 3.51628 9.75 3.55997 9.75 3.60859C9.75 3.60885 9.75 3.60911 9.75 3.60938L9.72676 7.62988L9.67594 7.8162L2.42272 1.27339ZM10.9305 2.04897C10.911 2.02706 10.8906 2.00614 10.8692 1.9861C10.8802 1.98004 10.8907 1.97492 10.9015 1.9703C10.9738 1.93958 11.1008 1.91406 11.4766 1.91406V1.91422L11.4853 1.91391L12.8168 1.86719C13.1889 1.86765 13.375 1.92733 13.4708 2.00636C13.5533 2.07436 13.6172 2.19877 13.6172 2.48438V7.875C13.6172 8.30179 13.8423 8.62438 14.1412 8.83072C14.4347 9.03343 14.8083 9.13281 15.1562 9.13281C15.6179 9.13281 16.0774 8.96821 16.4753 8.59683L16.4922 8.58106L16.5059 8.56247C17.5539 7.14179 19.0563 5.04797 19.6103 3.50642L19.6104 3.50649L19.6134 3.49716L19.7404 3.09482C19.8399 2.97278 19.9676 2.87581 20.1285 2.80469H23.5395C23.5423 2.82724 23.5455 2.85123 23.5496 2.87647L23.4922 3.1251C23.2593 3.93975 22.6387 4.86449 21.9276 5.79224C21.6789 6.1166 21.4181 6.4425 21.1629 6.76143C20.7036 7.33529 20.2625 7.8866 19.9426 8.36581C19.6859 8.72641 19.5234 9.14989 19.5234 9.58594C19.5234 9.99914 19.6631 10.4049 19.9767 10.7968L19.9768 10.7969L23.3662 15.0279C23.3717 15.0377 23.3778 15.0516 23.3827 15.0687C23.3878 15.0866 23.3899 15.102 23.3905 15.1121C23.3839 15.1194 23.3658 15.1353 23.3262 15.1533C23.241 15.192 23.1041 15.2188 22.9375 15.2188H19.0703L19.0702 15.2188C19.0692 15.2188 19.0583 15.2195 19.034 15.2037C19.0049 15.1847 18.9519 15.1385 18.8828 15.0298L18.8761 15.0193L18.8683 15.0094L16.8761 12.4782L16.8763 12.4781L16.8695 12.4701C16.7187 12.2942 16.5258 12.1064 16.3042 11.961C16.0838 11.8162 15.8194 11.7031 15.5312 11.7031C15.2585 11.7031 14.9825 11.7967 14.7451 12.0342C14.5639 12.2154 14.4731 12.4244 14.395 12.604C14.385 12.6272 14.3751 12.6498 14.3653 12.6719L14.3548 12.6955L14.3494 12.7207L13.906 14.7744C13.8874 14.8391 13.8745 14.9105 13.8641 14.9681C13.8628 14.9752 13.8616 14.9822 13.8604 14.9889C13.8473 15.0603 13.8362 15.115 13.821 15.1596C13.8077 15.1984 13.7967 15.213 13.7933 15.2169C13.7925 15.2171 13.7914 15.2174 13.7899 15.2176C13.7886 15.2178 13.7871 15.218 13.7852 15.2182C13.7821 15.2185 13.7783 15.2188 13.7734 15.2188H11.4297C10.0253 15.2188 8.52544 14.2139 7.03534 12.32C5.55367 10.4369 4.12318 7.72601 2.85083 4.43449L2.36647 3.14285C2.34768 3.0421 2.32993 2.89421 2.32826 2.78243C2.36154 2.78162 2.40221 2.78125 2.4522 2.78125C2.45251 2.78125 2.45282 2.78125 2.45312 2.78125L5.39183 2.80335L5.545 3.24584L5.54499 3.24585L5.54593 3.24847C6.32754 5.42751 7.2283 6.94489 8.28636 8.54424C8.55909 9.02875 9.03259 9.34375 9.57812 9.34375C10.3622 9.34375 11.1519 8.70728 11.2335 7.75573L11.2344 7.74507V7.73438V3.60938C11.2344 3.1305 11.2327 2.74991 11.1495 2.45952C11.1055 2.30561 11.037 2.16858 10.9305 2.04897Z" fill="#FAFAFD" stroke="#FAFAFD" stroke-width="0.5"/>
</svg>
