<svg width="18" height="20" viewBox="0 0 18 20" fill="none" xmlns="http://www.w3.org/2000/svg">
<path d="M14.4 3.709L14.409 3.6991M17.1 2.8V17.2C17.1 17.6774 16.9104 18.1352 16.5728 18.4728C16.2353 18.8104 15.7774 19 15.3 19H2.70002C2.22263 19 1.7648 18.8104 1.42723 18.4728C1.08967 18.1352 0.900024 17.6774 0.900024 17.2V2.8C0.900024 2.32261 1.08967 1.86477 1.42723 1.52721C1.7648 1.18964 2.22263 1 2.70002 1H15.3C15.7774 1 16.2353 1.18964 16.5728 1.52721C16.9104 1.86477 17.1 2.32261 17.1 2.8Z" stroke="#131418" stroke-width="1.5" stroke-linecap="round" stroke-linejoin="round"/>
<path d="M9.00004 16.3C10.4322 16.3 11.8057 15.7311 12.8184 14.7184C13.8311 13.7057 14.4 12.3322 14.4 10.9C14.4 9.46783 13.8311 8.09432 12.8184 7.08162C11.8057 6.06893 10.4322 5.5 9.00004 5.5C7.56787 5.5 6.19436 6.06893 5.18166 7.08162C4.16896 8.09432 3.60004 9.46783 3.60004 10.9C3.60004 12.3322 4.16896 13.7057 5.18166 14.7184C6.19436 15.7311 7.56787 16.3 9.00004 16.3V16.3Z" stroke="#131418" stroke-width="1.5" stroke-linecap="round" stroke-linejoin="round"/>
<path d="M9.00005 13.6C8.28396 13.6 7.59721 13.3155 7.09086 12.8092C6.58451 12.3028 6.30005 11.6161 6.30005 10.9" stroke="#131418" stroke-width="1.5" stroke-linecap="round" stroke-linejoin="round"/>
</svg>
