<svg width="20" height="20" viewBox="0 0 20 20" fill="none" xmlns="http://www.w3.org/2000/svg">
<path fill-rule="evenodd" clip-rule="evenodd" d="M17.0859 2.90685C16.1634 1.98268 15.0658 1.24988 13.8567 0.750912C12.6476 0.251943 11.3511 -0.00327912 10.0421 3.18051e-05C4.55351 3.18051e-05 0.0854131 4.44582 0.0831946 9.91059C0.0831946 11.6571 0.541319 13.3617 1.41209 14.8653L0 20L5.27897 18.6211C6.73919 19.4122 8.37513 19.8271 10.0377 19.8278H10.0421C15.5296 19.8278 19.9977 15.382 20 9.91722C20.0037 8.61504 19.7481 7.32503 19.248 6.12175C18.7478 4.91847 18.013 3.82578 17.0859 2.90685ZM10.0421 18.1552H10.0388C8.5563 18.1554 7.10108 17.7584 5.82583 17.006L5.52412 16.8271L2.39156 17.6452L3.22684 14.6059L3.0305 14.2946C2.20165 12.9813 1.76287 11.4615 1.76483 9.91059C1.76705 5.36876 5.47974 1.67369 10.0455 1.67369C11.1328 1.67128 12.2098 1.88354 13.2142 2.29816C14.2186 2.71279 15.1304 3.32156 15.8968 4.08923C16.6673 4.85324 17.278 5.76166 17.6937 6.762C18.1093 7.76233 18.3216 8.83473 18.3183 9.91722C18.3161 14.4591 14.6034 18.1552 10.0421 18.1552ZM14.5823 11.985C14.3327 11.8602 13.1103 11.2619 12.8818 11.1791C12.6544 11.0963 12.4892 11.0554 12.3228 11.3027C12.1564 11.55 11.6794 12.1075 11.5341 12.2731C11.3888 12.4387 11.2435 12.4586 10.995 12.335C10.7465 12.2113 9.94452 11.9497 8.99388 11.1062C8.254 10.4493 7.75484 9.63901 7.60952 9.39061C7.46421 9.14221 7.59399 9.00863 7.71934 8.88498C7.83138 8.77458 7.96782 8.59573 8.09205 8.45111C8.21629 8.30649 8.25733 8.20382 8.34053 8.03822C8.42372 7.87262 8.38268 7.72799 8.31945 7.60435C8.25733 7.4796 7.75927 6.26079 7.55184 5.76509C7.35107 5.28485 7.14585 5.34889 6.99278 5.34226C6.83424 5.33581 6.67557 5.33286 6.5169 5.33343C6.39073 5.33663 6.26658 5.36574 6.15225 5.41893C6.03791 5.47213 5.93584 5.54826 5.85246 5.64255C5.62395 5.89095 4.98169 6.48931 4.98169 7.70812C4.98169 8.92693 5.87353 10.1049 5.99777 10.2705C6.12201 10.4361 7.75262 12.9366 10.2485 14.0097C10.843 14.2647 11.3067 14.4171 11.6672 14.5319C12.2629 14.7207 12.8053 14.6931 13.2346 14.6302C13.7127 14.5595 14.7066 14.0318 14.914 13.4533C15.1214 12.8748 15.1214 12.3791 15.0593 12.2753C14.9972 12.1716 14.8297 12.1086 14.5823 11.985Z" fill="#FAFAFD"/>
</svg>
