<svg width="24" height="24" viewBox="0 0 24 24" fill="none" xmlns="http://www.w3.org/2000/svg">
<path d="M17.745 10.75C18.3462 11.3589 18.8495 12.0572 19.237 12.82C19.3276 12.9972 19.3441 13.2031 19.2828 13.3924C19.2216 13.5817 19.0877 13.739 18.9105 13.8295C18.7334 13.9201 18.5275 13.9366 18.3382 13.8754C18.1488 13.8141 17.9916 13.6802 17.901 13.503C17.5848 12.8798 17.1743 12.3091 16.684 11.811C15.951 11.0778 15.0546 10.5287 14.0684 10.2087C13.0821 9.8887 12.0341 9.80698 11.0102 9.97021C9.98628 10.1335 9.01562 10.537 8.17777 11.1478C7.33992 11.7586 6.65873 12.5592 6.19002 13.484C6.1471 13.5745 6.08652 13.6554 6.01185 13.722C5.93717 13.7886 5.84992 13.8396 5.75522 13.872C5.66053 13.9044 5.56031 13.9175 5.46047 13.9106C5.36063 13.9037 5.26319 13.8768 5.17389 13.8316C5.08459 13.7864 5.00523 13.7238 4.9405 13.6475C4.87577 13.5712 4.82697 13.4827 4.79697 13.3872C4.76698 13.2917 4.75639 13.1912 4.76585 13.0915C4.7753 12.9919 4.8046 12.8952 4.85202 12.807C5.42771 11.6706 6.26451 10.6868 7.29383 9.93623C8.32315 9.18565 9.51568 8.68968 10.7737 8.48897C12.0317 8.28826 13.3194 8.38853 14.5311 8.78156C15.7429 9.17458 16.8443 9.84918 17.745 10.75ZM15.643 13.82C16.091 14.267 16.459 14.817 16.715 15.402C16.7546 15.4923 16.7759 15.5894 16.7779 15.6879C16.7799 15.7863 16.7625 15.8842 16.7266 15.976C16.6908 16.0677 16.6372 16.1515 16.569 16.2226C16.5008 16.2936 16.4192 16.3505 16.329 16.39C16.2388 16.4296 16.1417 16.4509 16.0432 16.4529C15.9447 16.4549 15.8468 16.4375 15.7551 16.4017C15.6633 16.3658 15.5795 16.3123 15.5085 16.244C15.4375 16.1758 15.3806 16.0943 15.341 16.004C15.1591 15.586 14.9018 15.205 14.582 14.88C14.2485 14.5465 13.8525 14.2819 13.4167 14.1013C12.9809 13.9208 12.5137 13.8279 12.042 13.8279C11.5703 13.8279 11.1032 13.9208 10.6674 14.1013C10.2316 14.2819 9.83557 14.5465 9.50202 14.88C9.19202 15.19 8.94002 15.569 8.75502 15.99C8.71768 16.0833 8.66199 16.1681 8.59126 16.2394C8.52053 16.3107 8.4362 16.367 8.34328 16.4051C8.25035 16.4432 8.15072 16.4623 8.05029 16.4611C7.94987 16.46 7.8507 16.4387 7.75866 16.3985C7.66662 16.3583 7.58359 16.3 7.5145 16.2271C7.44541 16.1543 7.39165 16.0682 7.35643 15.9742C7.32121 15.8801 7.30524 15.78 7.30946 15.6796C7.31369 15.5793 7.33802 15.4808 7.38102 15.39C7.63372 14.8051 7.99357 14.2727 8.44202 13.82C9.39695 12.8652 10.6921 12.3287 12.0425 12.3287C13.393 12.3287 14.6881 12.8652 15.643 13.82ZM20.448 8.27905C20.958 8.78805 21.438 9.36905 21.856 9.97605C21.9149 10.057 21.9569 10.1488 21.9797 10.2462C22.0025 10.3436 22.0056 10.4446 21.9887 10.5432C21.9719 10.6418 21.9356 10.736 21.8818 10.8204C21.828 10.9047 21.7579 10.9775 21.6755 11.0343C21.5932 11.0911 21.5004 11.1309 21.4024 11.1513C21.3045 11.1717 21.2035 11.1724 21.1053 11.1531C21.0072 11.1339 20.9138 11.0953 20.8308 11.0394C20.7478 10.9836 20.6768 10.9117 20.622 10.828C20.2556 10.2958 19.8423 9.79752 19.387 9.33905C15.307 5.25905 8.69202 5.25905 4.61202 9.33905C4.19002 9.76105 3.77202 10.273 3.39002 10.823C3.27468 10.9815 3.1019 11.0885 2.90866 11.1211C2.71543 11.1538 2.51709 11.1095 2.35608 10.9978C2.19508 10.886 2.08421 10.7157 2.04719 10.5233C2.01018 10.3308 2.04996 10.1315 2.15802 9.96805C2.58802 9.34805 3.06202 8.76805 3.55202 8.27805C8.21702 3.61305 15.782 3.61305 20.448 8.27805V8.27905ZM13.061 16.439C13.3424 16.7204 13.5005 17.1021 13.5005 17.5C13.5005 17.898 13.3424 18.2797 13.061 18.561C12.7796 18.8424 12.398 19.0005 12 19.0005C11.6021 19.0005 11.2204 18.8424 10.939 18.561C10.6576 18.2797 10.4995 17.898 10.4995 17.5C10.4995 17.1021 10.6576 16.7204 10.939 16.439C11.2204 16.1577 11.6021 15.9996 12 15.9996C12.398 15.9996 12.7796 16.1577 13.061 16.439Z" fill="#131418"/>
</svg>
