<svg width="20" height="15" viewBox="0 0 20 15" fill="none" xmlns="http://www.w3.org/2000/svg">
<path d="M15.745 6.75C16.3462 7.35889 16.8495 8.05715 17.237 8.82C17.3276 8.99717 17.3441 9.20305 17.2828 9.39237C17.2216 9.58169 17.0877 9.73893 16.9105 9.8295C16.7334 9.92007 16.5275 9.93656 16.3382 9.87533C16.1488 9.81409 15.9916 9.68017 15.901 9.503C15.5848 8.87979 15.1743 8.30908 14.684 7.811C13.951 7.07773 13.0546 6.5286 12.0684 6.20863C11.0821 5.88865 10.0341 5.80693 9.01019 5.97017C7.98628 6.13341 7.01562 6.53695 6.17777 7.14773C5.33992 7.75851 4.65873 8.55914 4.19002 9.484C4.1471 9.57441 4.08652 9.65532 4.01185 9.72195C3.93717 9.78858 3.84992 9.8396 3.75522 9.87199C3.66053 9.90438 3.56031 9.91749 3.46047 9.91055C3.36063 9.9036 3.26319 9.87675 3.17389 9.83157C3.08459 9.78638 3.00523 9.72378 2.9405 9.64745C2.87577 9.57113 2.82697 9.48262 2.79697 9.38713C2.76698 9.29165 2.75639 9.19114 2.76585 9.0915C2.7753 8.99187 2.8046 8.89514 2.85202 8.807C3.42771 7.67058 4.26451 6.68676 5.29383 5.93618C6.32315 5.1856 7.51568 4.68963 8.77369 4.48893C10.0317 4.28822 11.3194 4.38849 12.5311 4.78151C13.7429 5.17454 14.8443 5.84913 15.745 6.75ZM13.643 9.82C14.091 10.267 14.459 10.817 14.715 11.402C14.7546 11.4922 14.7759 11.5893 14.7779 11.6878C14.7799 11.7863 14.7625 11.8842 14.7266 11.9759C14.6908 12.0677 14.6372 12.1515 14.569 12.2225C14.5008 12.2936 14.4192 12.3505 14.329 12.39C14.2388 12.4295 14.1417 12.4509 14.0432 12.4529C13.9447 12.4549 13.8468 12.4375 13.7551 12.4016C13.6633 12.3658 13.5795 12.3122 13.5085 12.244C13.4375 12.1758 13.3806 12.0942 13.341 12.004C13.1591 11.586 12.9018 11.205 12.582 10.88C12.2485 10.5464 11.8525 10.2818 11.4167 10.1013C10.9809 9.92077 10.5137 9.82786 10.042 9.82786C9.5703 9.82786 9.10319 9.92077 8.66738 10.1013C8.23156 10.2818 7.83557 10.5464 7.50202 10.88C7.19202 11.19 6.94002 11.569 6.75502 11.99C6.71768 12.0832 6.66199 12.168 6.59126 12.2393C6.52053 12.3106 6.4362 12.367 6.34328 12.4051C6.25035 12.4432 6.15072 12.4622 6.05029 12.4611C5.94987 12.4599 5.8507 12.4386 5.75866 12.3984C5.66662 12.3583 5.58359 12.3 5.5145 12.2271C5.4454 12.1542 5.39165 12.0682 5.35643 11.9741C5.32121 11.8801 5.30524 11.7799 5.30946 11.6796C5.31369 11.5792 5.33802 11.4808 5.38102 11.39C5.63372 10.8051 5.99357 10.2726 6.44202 9.82C7.39695 8.86512 8.69208 8.32868 10.0425 8.32868C11.393 8.32868 12.6881 8.86512 13.643 9.82ZM18.448 4.279C18.958 4.788 19.438 5.369 19.856 5.976C19.9149 6.05691 19.9569 6.14876 19.9797 6.24616C20.0025 6.34356 20.0056 6.44454 19.9887 6.54315C19.9719 6.64176 19.9356 6.736 19.8818 6.82034C19.828 6.90468 19.7579 6.97741 19.6755 7.03425C19.5932 7.09108 19.5004 7.13088 19.4024 7.15129C19.3045 7.1717 19.2035 7.17231 19.1053 7.15309C19.0072 7.13387 18.9138 7.09521 18.8308 7.03938C18.7478 6.98355 18.6768 6.91168 18.622 6.828C18.2556 6.29579 17.8423 5.79747 17.387 5.339C13.307 1.259 6.69202 1.259 2.61202 5.339C2.19002 5.761 1.77202 6.273 1.39002 6.823C1.27468 6.98143 1.1019 7.08843 0.908662 7.12108C0.715427 7.15373 0.517087 7.10946 0.356085 6.99772C0.195083 6.88599 0.0842108 6.71567 0.0471945 6.52323C0.0101782 6.33078 0.0499586 6.13149 0.158023 5.968C0.588023 5.348 1.06202 4.768 1.55202 4.278C6.21702 -0.386999 13.782 -0.386999 18.448 4.278V4.279ZM11.061 12.439C11.3424 12.7204 11.5005 13.102 11.5005 13.5C11.5005 13.898 11.3424 14.2796 11.061 14.561C10.7796 14.8424 10.398 15.0005 10 15.0005C9.60207 15.0005 9.22042 14.8424 8.93902 14.561C8.65763 14.2796 8.49954 13.898 8.49954 13.5C8.49954 13.102 8.65763 12.7204 8.93902 12.439C9.22042 12.1576 9.60207 11.9995 10 11.9995C10.398 11.9995 10.7796 12.1576 11.061 12.439Z" fill="#131418"/>
</svg>
